<svg width="118" height="72" viewBox="0 0 118 72" fill="none" xmlns="http://www.w3.org/2000/svg">
<path d="M17.7157 42.6891C17.6629 31.2323 3.74881 29.7632 14.6983 14.9926C16.6352 12.2651 16.8526 8.95126 15.6536 6.03271C14.2108 11.2176 10.9365 15.6712 7.70169 19.9732C6.23913 21.9167 4.71068 24.0381 4.68433 26.4625C4.68433 33.1495 14.9091 35.8638 14.4479 42.6891C14.4479 42.6891 16.3453 40.8905 17.7157 42.6891Z" fill="#0B0D20"/>
<path d="M40.9584 41.5296C40.405 37.5569 31.9854 28.4983 30.3845 35.9494C28.2367 45.3705 16.892 50.4565 15.6073 60.2333C14.9485 53.1115 22.4062 47.0109 21.4378 39.9221C20.6933 34.5 15.1066 30.1255 15.9235 24.7298C15.9235 24.6903 15.9367 24.6574 15.9499 24.6244C18.5917 16.3563 29.3963 11.7117 29.3238 1.50667C29.3238 0.847856 28.4278 0.630448 28.1379 1.22338C24.6067 8.39127 17.6826 13.5234 13.2751 20.1972C12.1222 21.9365 11.7071 24.071 12.1419 26.1133C13.9076 34.3815 25.5554 41.4966 13.6572 55.1538C15.9565 51.1087 17.1226 47.8213 17.5376 45.0608C17.531 45.0542 16.1146 43.3413 13.6836 45.0608C11.5029 51.3525 7.42483 61.0634 3.12278 64.2257C3.1096 64.2389 3.08983 64.2455 3.07666 64.2586C1.97644 64.957 0.632461 65.4906 0.0658813 66.637C0.0197644 66.7226 0 66.8214 0 66.9202C0.0395288 77.6918 22.0571 64.8582 25.0679 60.5825C25.0876 60.5561 25.1008 60.5232 25.1206 60.4968C27.8744 54.9035 27.1826 54.7059 33.4414 52.8678C33.4677 52.8612 33.4875 52.8546 33.5138 52.8414C36.7157 51.4974 40.9716 45.1201 40.965 41.6152C40.965 41.5823 40.965 41.5559 40.965 41.523L40.9584 41.5296ZM19.1781 58.4545C22.09 49.2048 30.8325 47.505 33.7905 36.4238C35.1806 46.642 23.0914 50.5487 19.1781 58.4545Z" fill="#0B0D20"/>
<path d="M28.8757 34.4275L22.9002 40.7587C23.0056 41.7337 22.1821 46.8659 22.1821 46.8659C30.1933 40.3634 28.8757 34.4275 28.8757 34.4275Z" fill="#0B0D20"/>
<path d="M26.807 20.9284C26.807 20.9284 37.6709 10.7761 32.5058 3.72681C32.5058 3.72681 28.8559 11.6589 24.8899 15.625L26.807 20.9284Z" fill="#0B0D20"/>
<path d="M27.354 22.1934L28.8297 25.8037C28.8297 25.8037 35.9449 19.4396 34.2057 12.6208C34.2057 12.6208 29.113 21.1064 27.354 22.1934Z" fill="#0B0D20"/>
<path d="M30.9181 30.3429C30.9181 30.3429 33.2635 27.1542 32.7628 23.1157L29.4358 27.0884L30.9181 30.3363V30.3429Z" fill="#0B0D20"/>
<path d="M24.4552 19.6109L23.9479 16.7056L18.4204 22.8721C17.3334 24.0843 16.9249 25.7577 17.3334 27.3388L17.8143 29.2098L23.1112 23.8932C24.2312 22.7732 24.7319 21.1723 24.4552 19.6109Z" fill="#0B0D20"/>
<path d="M24.2575 30.7579C26.9587 28.0567 28.362 26.3043 28.362 26.3043C28.362 26.3043 27.354 24.453 25.2194 24.7824C24.4947 24.8944 23.8293 25.2568 23.3023 25.7641L18.5061 30.4021C18.5061 30.4021 21.5498 33.459 24.2575 30.7579Z" fill="#0B0D20"/>
<path d="M29.192 29.0318C29.1327 28.6299 29.0339 28.2149 28.8757 27.7932L24.6725 31.9964C24.6725 31.9964 22.3074 34.5592 23.0321 39.1512L27.5911 34.1442C28.8494 32.7607 29.4687 30.8896 29.1986 29.0384L29.192 29.0318Z" fill="#0B0D20"/>
<path d="M47.0261 27.8195C48.7126 29.46 50.8406 30.2769 53.3704 30.2769C55.3139 30.2769 56.1572 29.7169 56.1572 28.9988C56.1572 28.3597 55.2085 27.9249 52.4217 26.9038C49.7865 25.909 48.4557 24.2422 48.4557 21.9165C48.4557 20.3552 49.0947 19.0244 50.3992 17.9241C51.7036 16.8239 53.3639 16.2837 55.3864 16.2837C58.0744 16.2837 60.143 16.9491 61.6056 18.2535L60.6569 22.7796C59.2273 21.2446 57.0993 20.6055 55.4918 20.6055C53.8843 20.6055 53.186 21.0403 53.186 21.6267C53.186 22.0351 53.5417 22.4172 54.1808 22.7532L55.1295 23.1617C55.4128 23.2869 55.7949 23.4186 56.256 23.5965L57.3036 23.9786C59.7873 24.9734 61.0127 26.5612 61.0127 28.7353C61.0127 30.4218 60.3473 31.8317 59.0165 32.9583C57.6857 34.0585 55.841 34.6185 53.4627 34.6185C50.162 34.6185 47.7046 33.874 46.0444 32.3917L47.0195 27.8129L47.0261 27.8195Z" fill="#0B0D20"/>
<path d="M63.8389 34.368L66.5796 20.9348H61.7703L62.6663 16.5339H77.0416L76.1456 20.9348H71.4351L68.6944 34.368H63.8323H63.8389Z" fill="#0B0D20"/>
<path d="M74.2219 34.368L77.852 16.5339H91.0019L90.1059 20.9085H81.818L81.3042 23.3658H89.032L88.2415 27.3582H80.5136L79.9536 30.0726H88.4457L87.5761 34.368H74.2219Z" fill="#0B0D20"/>
<path d="M89.2954 34.368L92.9255 16.5339H100.423C102.188 16.5339 103.618 17.0742 104.718 18.148C105.845 19.1955 106.405 20.5527 106.405 22.2129C106.405 24.0576 105.713 25.6914 104.33 27.1013C102.972 28.5112 101.286 29.1963 99.2896 29.1963H95.1984L94.1509 34.3614H89.2888L89.2954 34.368ZM96.1009 24.802H99.4543C100.607 24.802 101.549 23.7282 101.549 22.6016C101.549 21.6529 100.831 20.9414 99.8101 20.9414H96.8915L96.1009 24.802Z" fill="#0B0D20"/>
<path d="M46.4397 55.7269L50.0698 37.8928H62.9627L62.0668 42.2673H54.0358L53.4758 45.0278H60.7689L59.9256 49.1454H52.6325L51.3017 55.7203H46.4397V55.7269Z" fill="#0B0D20"/>
<path d="M62.7125 55.7267H57.5935L71.3298 36.6936L77.3447 55.7267H72.6342L71.9688 53.4011H64.3463L62.7059 55.7267H62.7125ZM66.8564 49.6393H71.0267L69.8277 45.3899L66.863 49.6393H66.8564Z" fill="#0B0D20"/>
<path d="M78.01 55.7269L81.6401 37.8928H89.2098C90.9228 37.8928 92.3063 38.4067 93.3801 39.4542C94.4803 40.4754 95.0206 41.7798 95.0206 43.3939C95.0206 44.672 94.6648 45.8776 93.9203 47.024C93.1759 48.1505 92.2074 48.9938 91.0018 49.5538L93.9203 55.7203H88.6235L86.1134 50.1665H83.992L82.8655 55.7203H78.0034L78.01 55.7269ZM84.7892 46.2861H87.8856C89.111 46.2861 90.0861 45.1859 90.0861 44.033C90.0861 43.0118 89.3679 42.2937 88.2677 42.2937H85.6061L84.7892 46.2861Z" fill="#0B0D20"/>
<path d="M94.6384 55.7269L98.4003 37.201L105.871 47.0767L118 36.9705L114.185 55.7269H109.659L111.273 47.7948L105.054 53.118L100.858 47.3863L99.1711 55.7269H94.645H94.6384Z" fill="#0B0D20"/>
</svg>
