<svg width="83" height="36" viewBox="0 0 83 36" fill="none" xmlns="http://www.w3.org/2000/svg">
<path d="M26.5533 16.3135C26.3007 16.0501 26.0395 15.7778 25.9408 15.5392C25.8501 15.32 25.8446 14.9569 25.8393 14.6057C25.8294 13.9523 25.8182 13.2116 25.3033 12.6967C24.7884 12.1818 24.0477 12.1706 23.3943 12.1607C23.0431 12.1554 22.68 12.1499 22.4608 12.0592C22.2222 11.9605 21.9499 11.6993 21.6865 11.4467C21.2238 11.003 20.6993 10.5 20 10.5C19.3007 10.5 18.7763 11.003 18.3135 11.4467C18.0501 11.6993 17.7778 11.9605 17.5392 12.0592C17.32 12.1499 16.9569 12.1554 16.6057 12.1607C15.9523 12.1706 15.2116 12.1818 14.6967 12.6967C14.1818 13.2116 14.1706 13.9523 14.1607 14.6057C14.1554 14.9569 14.1499 15.32 14.0592 15.5392C13.9605 15.7778 13.6993 16.0501 13.4467 16.3135C13.003 16.7762 12.5 17.3007 12.5 18C12.5 18.6993 13.003 19.2237 13.4467 19.6865C13.6993 19.9499 13.9605 20.2222 14.0592 20.4608C14.1499 20.68 14.1554 21.0431 14.1607 21.3943C14.1706 22.0477 14.1818 22.7884 14.6967 23.3033C15.2116 23.8182 15.9523 23.8294 16.6057 23.8393C16.9569 23.8446 17.32 23.8501 17.5392 23.9408C17.7778 24.0395 18.0501 24.3007 18.3135 24.5533C18.7762 24.997 19.3007 25.5 20 25.5C20.6993 25.5 21.2237 24.997 21.6865 24.5533C21.9499 24.3007 22.2222 24.0395 22.4608 23.9408C22.68 23.8501 23.0431 23.8446 23.3943 23.8393C24.0477 23.8294 24.7884 23.8182 25.3033 23.3033C25.8182 22.7884 25.8294 22.0477 25.8393 21.3943C25.8446 21.0431 25.8501 20.68 25.9408 20.4608C26.0395 20.2222 26.3007 19.9499 26.5533 19.6865C26.997 19.2238 27.5 18.6993 27.5 18C27.5 17.3007 26.997 16.7763 26.5533 16.3135ZM23.3163 16.7804L19.3877 20.5304C19.2881 20.6255 19.1556 20.6786 19.0178 20.6786C18.8801 20.6786 18.7476 20.6255 18.648 20.5304L16.6837 18.6554C16.6328 18.6068 16.5919 18.5487 16.5635 18.4843C16.535 18.42 16.5195 18.3507 16.5179 18.2803C16.5162 18.21 16.5284 18.14 16.5538 18.0744C16.5792 18.0087 16.6173 17.9488 16.6659 17.8978C16.7145 17.8469 16.7726 17.8061 16.837 17.7777C16.9014 17.7493 16.9707 17.7338 17.041 17.7322C17.1114 17.7305 17.1814 17.7428 17.247 17.7682C17.3126 17.7936 17.3726 17.8317 17.4234 17.8803L19.0178 19.4023L22.5766 16.0053C22.6274 15.9567 22.6874 15.9186 22.753 15.8932C22.8186 15.8678 22.8886 15.8555 22.959 15.8572C23.0293 15.8588 23.0986 15.8743 23.163 15.9027C23.2274 15.9311 23.2855 15.9719 23.3341 16.0228C23.3827 16.0738 23.4208 16.1337 23.4462 16.1994C23.4716 16.265 23.4838 16.335 23.4821 16.4053C23.4805 16.4757 23.465 16.545 23.4365 16.6093C23.4081 16.6737 23.3672 16.7318 23.3163 16.7804Z" fill="#37E4E5"/>
<path d="M37.446 20.67C36.4847 19.7273 36.004 18.5327 36.004 17.086C36.004 15.6393 36.4847 14.4447 37.446 13.502C38.4167 12.5593 39.602 12.088 41.002 12.088C42.066 12.088 43.0087 12.3587 43.83 12.9C44.6607 13.4413 45.2533 14.202 45.608 15.182H43.242C42.8033 14.3233 42.0567 13.894 41.002 13.894C40.1153 13.894 39.392 14.188 38.832 14.776C38.2813 15.3547 38.006 16.1293 38.006 17.1C38.006 18.0613 38.2813 18.836 38.832 19.424C39.392 20.0027 40.1153 20.292 41.002 20.292C42.0473 20.292 42.794 19.8627 43.242 19.004H45.608C45.2533 19.984 44.6607 20.7447 43.83 21.286C43.0087 21.818 42.066 22.084 41.002 22.084C39.5927 22.084 38.4073 21.6127 37.446 20.67ZM50.7538 20.446C51.3044 20.446 51.7758 20.2453 52.1678 19.844C52.5691 19.4333 52.7698 18.8593 52.7698 18.122C52.7698 17.3753 52.5738 16.8013 52.1818 16.4C51.7898 15.9987 51.3138 15.798 50.7538 15.798C50.2031 15.798 49.7364 15.9987 49.3538 16.4C48.9711 16.8013 48.7798 17.3753 48.7798 18.122C48.7798 18.8687 48.9711 19.4427 49.3538 19.844C49.7364 20.2453 50.2031 20.446 50.7538 20.446ZM47.9118 21.006C47.1558 20.2687 46.7778 19.3027 46.7778 18.108C46.7778 16.9133 47.1604 15.952 47.9258 15.224C48.6911 14.496 49.6384 14.132 50.7678 14.132C51.9064 14.132 52.8584 14.496 53.6238 15.224C54.3891 15.952 54.7718 16.9133 54.7718 18.108C54.7718 19.3027 54.3844 20.2687 53.6098 21.006C52.8444 21.7433 51.8924 22.112 50.7538 22.112C49.6151 22.112 48.6678 21.7433 47.9118 21.006ZM58.3072 14.244V15.616C58.8299 14.6267 59.5859 14.132 60.5752 14.132V16.148H60.0852C59.4972 16.148 59.0539 16.2973 58.7552 16.596C58.4565 16.8853 58.3072 17.3893 58.3072 18.108V22H56.3332V14.244H58.3072ZM65.2557 22.112C64.1264 22.112 63.207 21.748 62.4977 21.02C61.7884 20.2827 61.4337 19.312 61.4337 18.108C61.4337 16.904 61.7884 15.9427 62.4977 15.224C63.2164 14.496 64.1404 14.132 65.2697 14.132C66.4084 14.132 67.3417 14.4867 68.0697 15.196C68.7977 15.896 69.1617 16.834 69.1617 18.01C69.1617 18.2807 69.143 18.5327 69.1057 18.766H63.4497C63.4964 19.27 63.683 19.676 64.0097 19.984C64.3364 20.292 64.7517 20.446 65.2557 20.446C65.937 20.446 66.441 20.166 66.7677 19.606H68.8957C68.6717 20.3433 68.2377 20.9453 67.5937 21.412C66.9497 21.8787 66.1704 22.112 65.2557 22.112ZM67.1177 17.492C67.0897 16.9787 66.8984 16.568 66.5437 16.26C66.1984 15.952 65.7784 15.798 65.2837 15.798C64.789 15.798 64.3737 15.952 64.0377 16.26C63.711 16.568 63.515 16.9787 63.4497 17.492H67.1177Z" fill="#37E4E5"/>
<rect x="1.5" y="1" width="80" height="34" rx="17" stroke="#37E4E5" stroke-width="2"/>
</svg>
