<svg width="48" height="48" viewBox="0 0 48 48" fill="none" xmlns="http://www.w3.org/2000/svg">
<path d="M24 0C10.75 0 0 10.75 0 24C0 37.25 10.75 48 24 48C37.25 48 48 37.25 48 24C48 10.75 37.25 0 24 0ZM17.38 32.48C12.69 32.45 8.92 28.62 8.95 23.94C8.98 19.28 12.77 15.51 17.44 15.51C22.14 15.53 25.94 19.35 25.92 24.05C25.89 28.74 22.06 32.51 17.38 32.48ZM30.99 32.1C28.65 32.1 26.75 28.5 26.75 24.06C26.75 19.62 28.65 16.02 30.99 16.02C33.33 16.02 35.23 19.62 35.23 24.06C35.23 28.5 33.33 32.1 30.99 32.1V32.1ZM37.55 31.26C36.73 31.26 36.06 28.03 36.06 24.05C36.06 20.07 36.73 16.84 37.55 16.84C38.37 16.84 39.04 20.07 39.04 24.05C39.04 28.03 38.37 31.26 37.55 31.26Z" fill="#00E8E7"/>
</svg>
