<svg width="18" height="18" viewBox="0 0 18 18" fill="none" xmlns="http://www.w3.org/2000/svg">
<path d="M9 15.75C7.20979 15.75 5.4929 15.0388 4.22703 13.773C2.96116 12.5071 2.25 10.7902 2.25 9C2.25 7.20979 2.96116 5.4929 4.22703 4.22703C5.4929 2.96116 7.20979 2.25 9 2.25C10.7902 2.25 12.5071 2.96116 13.773 4.22703C15.0388 5.4929 15.75 7.20979 15.75 9C15.75 10.7902 15.0388 12.5071 13.773 13.773C12.5071 15.0388 10.7902 15.75 9 15.75V15.75Z" stroke="#00E8E7" stroke-width="1.5" stroke-linecap="round" stroke-linejoin="round"/>
<path d="M9 9.93726V9.74976C9 9.13701 9.37875 8.80476 9.75825 8.54976C10.1287 8.30001 10.5 7.97451 10.5 7.37451C10.5 6.97669 10.342 6.59516 10.0607 6.31385C9.77936 6.03255 9.39782 5.87451 9 5.87451C8.60218 5.87451 8.22064 6.03255 7.93934 6.31385C7.65804 6.59516 7.5 6.97669 7.5 7.37451" stroke="#00E8E7" stroke-width="1.5" stroke-linecap="round" stroke-linejoin="round"/>
<path d="M8.99925 12C8.89575 12 8.81175 12.084 8.8125 12.1875C8.8125 12.291 8.8965 12.375 9 12.375C9.1035 12.375 9.1875 12.291 9.1875 12.1875C9.1875 12.084 9.1035 12 8.99925 12" stroke="#00E8E7" stroke-width="1.5" stroke-linecap="round" stroke-linejoin="round"/>
</svg>
