<svg width="40" height="40" viewBox="0 0 40 40" fill="none" xmlns="http://www.w3.org/2000/svg">
<path d="M0 19.2C0 12.4794 0 9.11905 1.30792 6.55211C2.4584 4.29417 4.29417 2.4584 6.55211 1.30792C9.11905 0 12.4794 0 19.2 0H20.8C27.5206 0 30.8809 0 33.4479 1.30792C35.7058 2.4584 37.5416 4.29417 38.6921 6.55211C40 9.11905 40 12.4794 40 19.2V20.8C40 27.5206 40 30.8809 38.6921 33.4479C37.5416 35.7058 35.7058 37.5416 33.4479 38.6921C30.8809 40 27.5206 40 20.8 40H19.2C12.4794 40 9.11905 40 6.55211 38.6921C4.29417 37.5416 2.4584 35.7058 1.30792 33.4479C0 30.8809 0 27.5206 0 20.8V19.2Z" fill="#EFEFEF"/>
<path d="M21.91 18.09C22.4166 18.5965 22.7012 19.2836 22.7012 20C22.7012 20.7164 22.4166 21.4034 21.91 21.91C21.4034 22.4165 20.7164 22.7011 20 22.7011C19.2836 22.7011 18.5966 22.4165 18.09 21.91C17.5834 21.4034 17.2989 20.7164 17.2989 20C17.2989 19.6453 17.3687 19.294 17.5045 18.9663C17.6402 18.6386 17.8392 18.3408 18.09 18.09C18.3408 17.8392 18.6386 17.6402 18.9663 17.5044C19.294 17.3687 19.6453 17.2988 20 17.2988C20.7164 17.2988 21.4034 17.5834 21.91 18.09" stroke="#33383F" stroke-width="2" stroke-linecap="round" stroke-linejoin="round"/>
<path d="M13.25 20C13.25 20.297 13.277 20.594 13.313 20.882L11.725 22.124C11.5547 22.2574 11.4382 22.4478 11.3971 22.6602C11.3559 22.8725 11.3928 23.0926 11.501 23.28L12.913 25.723C13.0211 25.9101 13.1931 26.0519 13.3974 26.1224C13.6016 26.193 13.8245 26.1875 14.025 26.107L15.447 25.536C15.5854 25.4824 15.7348 25.4634 15.8823 25.4807C16.0297 25.4979 16.1707 25.5509 16.293 25.635C16.513 25.781 16.741 25.915 16.977 26.035C17.247 26.172 17.443 26.417 17.486 26.717L17.703 28.23C17.766 28.672 18.145 29 18.591 29H21.408C21.6239 29 21.8326 28.9221 21.9957 28.7807C22.1588 28.6393 22.2654 28.4437 22.296 28.23L22.513 26.718C22.5366 26.5712 22.5956 26.4323 22.6848 26.3134C22.774 26.1944 22.8907 26.0989 23.025 26.035C23.26 25.917 23.487 25.784 23.706 25.639C23.8286 25.554 23.9702 25.5002 24.1183 25.4825C24.2665 25.4647 24.4167 25.4834 24.556 25.537L25.975 26.107C26.1756 26.1873 26.3983 26.1927 26.6025 26.1221C26.8067 26.0516 26.9787 25.9099 27.087 25.723L28.499 23.28C28.6072 23.0926 28.6441 22.8725 28.6029 22.6602C28.5618 22.4478 28.4453 22.2574 28.275 22.124L26.687 20.882C26.723 20.594 26.75 20.297 26.75 20C26.75 19.703 26.723 19.406 26.687 19.118L28.275 17.876C28.4453 17.7426 28.5618 17.5522 28.6029 17.3398C28.6441 17.1275 28.6072 16.9074 28.499 16.72L27.087 14.277C26.9789 14.0899 26.8069 13.9481 26.6026 13.8776C26.3984 13.807 26.1755 13.8125 25.975 13.893L24.556 14.463C24.4167 14.5163 24.2665 14.5349 24.1184 14.5172C23.9703 14.4994 23.8287 14.4458 23.706 14.361C23.4871 14.2156 23.2597 14.0833 23.025 13.965C22.8907 13.9011 22.774 13.8056 22.6848 13.6866C22.5956 13.5677 22.5366 13.4288 22.513 13.282L22.297 11.77C22.2664 11.5563 22.1598 11.3607 21.9967 11.2193C21.8336 11.0779 21.6249 11 21.409 11H18.592C18.3761 11 18.1674 11.0779 18.0043 11.2193C17.8412 11.3607 17.7346 11.5563 17.704 11.77L17.486 13.284C17.4623 13.4303 17.4037 13.5687 17.3151 13.6874C17.2265 13.8061 17.1105 13.9017 16.977 13.966C16.741 14.086 16.513 14.221 16.293 14.366C16.1703 14.4497 16.0291 14.5024 15.8816 14.5194C15.734 14.5365 15.5846 14.5175 15.446 14.464L14.025 13.893C13.8245 13.8125 13.6016 13.807 13.3974 13.8776C13.1931 13.9481 13.0211 14.0899 12.913 14.277L11.501 16.72C11.3928 16.9074 11.3559 17.1275 11.3971 17.3398C11.4382 17.5522 11.5547 17.7426 11.725 17.876L13.313 19.118C13.2738 19.4104 13.2527 19.705 13.25 20V20Z" stroke="#33383F" stroke-width="2" stroke-linecap="round" stroke-linejoin="round"/>
</svg>
