<svg width="785" height="541" viewBox="0 0 785 541" fill="none" xmlns="http://www.w3.org/2000/svg">
<path d="M291.359 185.736L291.251 186.052C291.251 186.052 291.259 186.06 291.267 186.069C291.5 186.16 291.583 185.62 291.359 185.736Z" fill="#0B0D20"/>
<path d="M236.373 356.83C234.777 345.862 234.843 335.278 236.489 324.942C237.371 319.363 238.718 313.817 238.693 308.171C238.66 299.117 235.101 290.228 235.932 281.215C240.505 285.838 241.503 293.571 242.318 300.838C250.134 304.829 258.723 307.465 266.722 311.248C274.721 315.023 282.562 320.427 286.079 328.543C284.907 324.086 284 319.155 284.549 314.383C285.089 309.685 286.969 305.27 288.823 300.929C290.328 297.412 291.833 293.903 293.338 290.386C294.918 286.694 296.506 282.994 298.485 279.502C308.13 262.49 327.62 251.556 347.159 252.18C344.69 250.059 341.505 248.23 338.213 246.609C332.01 246.467 324.211 248.987 316.287 248.812C300.214 248.455 286.195 237.246 270.231 235.35C262.773 234.469 255.081 235.7 248.28 238.876C239.524 242.967 232.565 249.993 224.957 255.946C212.726 265.517 198.458 272.484 183.391 276.243C181.171 275.395 178.893 274.605 176.723 273.582C180.215 272.617 182.942 271.877 185.678 271.137C194.674 268.693 203.995 266.082 211.054 260.004C213.873 257.576 216.235 254.674 218.812 251.997C228.823 241.612 242.094 234.81 255.896 230.611C241.595 225.522 228.258 217.931 215.062 210.331C206.165 205.201 197.185 199.979 189.752 192.895C182.319 185.811 176.448 176.59 175.342 166.379C179.234 171.684 182.842 177.479 187 182.867C191.157 188.255 195.955 193.311 201.875 196.662C199.447 188.854 199.746 180.731 202.349 173.414C204.361 173.347 205.982 173.887 207.438 174.719C204.702 180.173 204.594 186.617 204.536 192.862C204.511 195.39 204.494 197.992 205.392 200.362C221.83 210.714 239.707 219.611 258.457 225.955C268.792 229.447 279.419 232.183 289.347 236.706C293.845 238.751 298.21 241.171 302.966 242.501C310.499 244.605 318.498 243.832 326.281 243.05C336.142 242.052 346.004 241.063 355.832 239.807C393.29 235.026 430.274 226.487 466.028 214.339C478.808 209.999 491.438 205.201 503.727 199.638C536.296 184.896 566.421 164.774 592.504 140.329C597.875 139.614 604.353 138.55 609.965 135.989C615.586 133.428 620.45 129.47 624.948 125.246C636.065 114.811 645.37 102.455 652.329 88.8853C653.46 86.6736 654.541 84.4286 655.813 82.2917C656.703 80.795 657.692 79.3482 658.682 77.9098C661.816 73.345 664.943 68.7801 668.077 64.2236C669.915 66.7763 668.052 70.784 666.098 74.0018C663.629 78.0595 660.951 82.0007 658.083 85.7922C661.467 83.04 663.704 81.1359 665.94 79.2402C668.476 77.0866 671.129 74.8749 674.33 73.9686C669.848 81.3604 663.97 87.7545 657.06 92.7184C655.43 93.8908 653.726 94.9967 652.354 96.4684C650.816 98.1231 649.76 100.16 648.646 102.131C644.654 109.182 639.591 115.634 633.696 121.197C639.749 124.157 645.345 128.422 651.423 127.35C655.173 126.693 658.257 124.082 660.885 121.33C674.064 107.486 679.859 88.3947 685.239 70.0523C697.553 69.6781 709.369 72.6881 721.051 75.6731C663.512 57.0812 603.663 41.8153 543.389 28.495C520.132 23.3564 496.743 18.4923 473.012 16.5715C504.085 20.546 533.511 27.6136 562.072 37.2587C561.673 39.0464 560.858 40.4101 559.794 41.5575C553.499 53.1151 544.037 64.4232 534.226 75.3821C523.932 86.8815 513.198 98.0649 501.091 107.652C450.787 147.471 383.37 155.437 321.824 173.522C310.574 176.823 299.075 180.714 290.386 188.588L291.251 186.077C291.043 185.977 291.035 185.67 291.068 185.428C291.957 179.932 296.281 175.135 301.661 173.68C298.767 173.014 296.447 172.133 294.169 171.252C286.054 168.134 277.939 165.007 269.823 161.889C258.507 157.541 246.833 153.117 234.718 153.425C228.981 153.574 223.277 154.797 217.989 157.017C215.112 158.222 211.986 159.752 209.017 158.779C211.013 155.096 213.424 151.246 217.324 149.642C218.505 149.151 219.768 148.902 221.024 148.66C223.876 148.112 226.786 147.621 229.68 147.854C222.196 144.345 215.495 139.323 208.859 134.342C206.922 132.887 204.943 131.391 203.629 129.345C208.518 131.823 213.283 134.974 218.238 137.76C230.802 144.836 244.663 149.6 258.914 151.737C258.307 144.328 257.484 136.646 254.483 129.686C252.687 125.504 249.801 121.404 245.486 119.974C246.983 123.051 245.602 126.618 243.075 128.613C240.547 130.609 237.113 131.174 233.928 130.75C230.736 130.326 227.742 128.996 224.89 127.508C218.097 123.965 211.528 119.085 208.527 112.042C209.865 112.898 211.661 113.572 213.524 113.846C216.592 109.19 220.059 104.434 220.741 98.8797C221.016 96.6513 220.824 94.398 220.658 92.1613C220.234 86.3327 220.101 80.08 223.202 75.1326C214.696 58.7941 203.746 44.2265 190.716 31.8458C188.338 29.5842 185.827 27.3558 182.817 26.0504C181.587 25.5183 180.223 25.1441 178.909 25.4185C176.207 25.9673 174.777 28.8774 173.804 31.455C166.437 51.0281 162.812 71.9897 163.17 92.9014C160.55 96.3271 158.231 100.011 155.919 103.686C155.628 104.151 155.32 104.65 155.337 105.207C155.354 105.872 155.811 106.421 156.26 106.92C159.386 110.379 162.804 113.58 166.462 116.466C167.177 117.031 167.951 117.605 168.849 117.729C169.406 117.812 169.988 117.704 170.478 117.447C172.05 116.615 172.391 114.37 171.642 112.757C170.902 111.144 169.389 110.03 167.901 109.057C166.412 108.084 164.833 107.136 163.826 105.673C162.937 104.384 162.621 102.513 163.627 101.316C164.533 100.252 166.196 100.127 167.502 100.642C168.799 101.166 169.821 102.189 170.794 103.195C171.867 104.301 172.931 106.188 171.742 107.161C169.655 105.066 167.186 103.361 164.492 102.156C165.697 106.754 169.821 110.437 174.519 111.111C175.284 111.219 176.149 111.227 176.714 110.712C177.18 110.288 177.321 109.614 177.396 108.982C177.687 106.529 177.371 104.01 176.482 101.715C175.825 100.011 174.852 98.4224 174.32 96.668C173.314 93.3504 173.954 89.7501 174.968 86.4325C176.506 81.4103 178.893 76.6459 182.003 72.4054C180.398 69.5368 179.608 67.1754 178.835 64.8556C177.687 61.3966 176.515 57.7714 177.105 54.1794C183.682 69.6865 193.228 84.096 205.741 96.1275C188.945 109.589 176.357 128.214 169.755 149.076L169.796 148.943C141.194 139.722 35.9199 115.975 35.9199 115.975L169.007 151.546C179.358 153.5 189.602 156.002 199.838 158.513C218.446 163.07 237.055 167.635 255.422 172.54C249.012 172.133 242.593 171.734 236.182 171.327C234.735 171.235 232.715 171.701 232.848 173.139C232.914 173.854 233.554 174.353 234.136 174.769C235.142 175.484 236.157 176.207 237.163 176.922C237.687 177.297 238.277 177.887 238.019 178.469C237.82 178.918 237.246 179.043 236.756 179.076C232.681 179.35 228.715 177.887 224.865 176.532C206.423 170.021 187.332 165.34 167.967 162.596C118.843 145.434 69.1874 133.17 18.675 120.698C12.4971 119.176 6.31093 117.646 0 116.848C24.8197 122.943 49.4065 129.977 73.694 137.934C83.0731 141.002 92.419 144.212 101.906 146.931C123.392 153.092 145.725 156.767 166.188 165.772C167.094 169.963 169.497 174.021 171.227 178.17C172.665 181.62 173.663 185.246 174.827 188.796C180.822 207.039 191.34 223.394 201.759 239.525C199.721 238.469 197.959 237.271 196.321 235.924C195.248 235.043 194.217 234.087 193.377 232.964C192.388 231.642 191.706 230.129 190.958 228.657C188.887 224.55 186.343 220.683 183.399 217.149C184.63 219.519 184.988 221.814 185.337 224.076C185.611 225.897 185.894 227.717 186.168 229.547C186.659 232.781 187.149 236.132 186.31 239.292C185.137 234.935 184.123 230.736 183.108 226.528C180.697 239.084 178.361 251.98 176.033 264.868C175.584 267.337 175.143 269.915 175.883 272.31C152.211 259.63 126.368 251.589 100.717 243.632C94.4312 241.678 88.0204 239.707 81.4434 239.782C105.515 250.151 131.249 255.456 155.038 265.791C160.459 268.144 165.755 270.755 171.06 273.357C179.084 277.307 187.108 281.248 195.132 285.198C194.367 285.572 193.61 285.946 192.845 286.312C196.703 290.311 200.777 294.103 205.043 297.67C186.143 290.777 167.086 283.327 148.22 275.436C130.867 268.177 113.356 260.453 94.6723 258.274C102.347 260.777 109.057 263.238 115.759 265.699C122.668 268.235 129.569 270.772 136.479 273.308C149.65 278.147 162.895 283.011 175.126 289.879C178.219 310.25 184.031 330.339 189.835 350.352C191.473 356.015 193.194 361.843 196.869 366.45C194.99 366.018 193.71 365.411 192.679 364.513C190.899 362.958 189.952 360.679 189.062 358.484C188.147 356.223 187.233 353.961 186.318 351.699L186.06 351.716C186.393 351.533 185.536 351.733 185.536 351.733C185.536 351.733 175.883 354.227 170.312 355.466C169.439 355.666 168.508 355.857 167.668 355.533C166.254 354.992 165.755 353.312 165.082 351.965C164.408 350.61 162.762 349.313 161.523 350.178C161.024 350.527 160.775 351.134 160.592 351.716C159.528 355.034 159.528 358.692 160.592 362.01C160.991 363.257 161.54 364.504 161.44 365.801C161.332 367.248 160.434 368.504 160.076 369.909C159.744 371.223 159.885 372.603 160.101 373.942C160.7 377.617 161.798 381.209 163.377 384.584C163.677 385.216 164.126 385.94 164.824 385.948C165.681 385.965 166.121 384.959 166.346 384.127C167.452 379.97 168.549 375.821 169.655 371.663C174.794 378.739 180.489 385.99 188.322 390.247C196.163 394.504 206.797 394.961 213.341 388.9C215.12 387.253 216.501 385.241 217.789 383.196C223.859 373.592 228.291 362.966 230.852 351.891C233.114 353.504 234.901 355.042 236.39 356.838L236.373 356.83Z" fill="#0B0D20"/>
<path d="M290.544 327.229C290.785 327.844 291.093 328.484 291.658 328.817C292.506 329.324 293.596 328.983 294.485 328.551C296.689 327.462 298.842 325.757 301.287 326.04C297.271 324.111 293.138 322.082 290.236 318.698C289.338 321.533 289.513 324.543 290.544 327.22V327.229Z" fill="#0B0D20"/>
<path d="M331.636 348.473C338.055 363.964 348.232 378.099 361.843 387.894C368.695 392.824 376.319 396.599 384.16 399.734C431.629 418.7 487.272 414.626 531.199 440.767C533.868 428.004 537.335 418.159 540.811 408.315C542.615 403.193 544.453 398.021 547.355 393.423C550.257 388.833 554.372 384.8 559.511 383.029C552.111 381.608 544.81 378.681 537.676 375.654C494.365 357.279 453.015 334.039 415.707 305.369C409.953 300.946 404.224 296.356 397.664 293.255C392.151 290.652 385.856 288.956 381.907 284.316C379.795 281.838 378.573 278.737 376.91 275.935C371.555 266.922 361.985 261.401 353.121 256.487C337.373 254.025 321.043 261.043 310.075 272.601C299.1 284.158 293.072 299.74 291.242 315.929C300.331 322.032 309.818 328.293 320.644 329.399C319.413 319.28 318.257 308.57 322.431 299.266C322.431 316.17 325.233 332.991 331.652 348.481L331.636 348.473ZM353.346 287.933C357.104 289.837 361.353 290.469 365.361 291.766C374.232 294.626 381.957 300.871 386.621 308.936C377.966 299.856 366.525 295.549 355.225 296.057C354.052 296.107 352.822 296.198 351.774 295.674C350.993 295.283 350.411 294.593 349.87 293.92C345.363 288.266 342.013 281.689 340.084 274.721C343.834 279.726 347.708 285.081 353.354 287.941L353.346 287.933Z" fill="#0B0D20"/>
<path d="M573.846 446.305C575.151 445.025 576.465 443.719 577.404 442.148C578.394 440.485 578.901 438.589 579.383 436.718C584.214 417.735 586.725 397.763 596.345 381.25C591.107 382.273 585.869 383.295 580.63 384.318C576.016 385.216 571.027 386.081 568.225 383.67C558.38 388.592 549.633 396.291 545.035 406.294C543.455 409.728 542.382 413.37 541.318 417.004C539.007 424.886 536.695 432.769 534.384 440.651C536.246 441.507 538.641 442.921 541.027 444.334C543.255 445.648 545.484 446.97 547.571 448.5C552.302 451.984 556.193 456.516 559.461 461.396C564.267 455.726 569.056 451.019 573.846 446.313V446.305Z" fill="#0B0D20"/>
<path d="M573.089 304.172C593.386 311.93 613.882 319.172 634.062 326.148C629.023 337.015 623.485 347.658 617.465 358.018C613.283 365.219 608.544 372.611 601.443 376.494C592.363 400.283 585.221 424.811 581.013 449.373C575.517 455.485 569.689 461.297 563.228 467.674C566.038 469.204 567.685 472.189 569.264 474.966C571.626 479.123 574.162 483.189 577.238 486.848C579.932 490.041 583.025 492.901 586.418 495.329C588.563 496.859 590.958 498.264 593.86 498.347C593.452 490.756 596.737 483.381 601.21 477.236C605.683 471.091 611.337 465.92 616.517 460.357C626.362 449.789 634.585 437.716 641.503 424.836C637.171 439.969 627.426 452.882 617.59 465.163C612.593 471.399 607.463 477.652 603.987 484.844C600.503 492.036 598.774 500.401 600.935 508.101C603.621 517.646 611.728 524.622 620.159 529.885C578.452 520.057 303.79 455.127 226.429 432.162C226.429 432.162 333.024 475.182 620.7 530.226C628.391 534.957 636.772 538.824 645.711 540.079C654.691 541.343 664.319 539.755 671.636 534.409C681.489 527.208 685.672 514.694 688.682 502.862C693.338 484.553 696.539 465.87 698.244 447.053C699.765 430.216 700.156 412.963 705.245 397.464C710.699 381.175 714.291 364.263 714.524 345.871C737.997 352.248 761.644 357.96 785 362.766C717.334 335.751 643.965 326.256 573.073 304.172H573.089ZM663.795 413.428C659.513 433.966 649.178 452.641 641.287 472.081C633.405 491.521 627.9 513.231 633.812 533.361C625.456 523.924 624.225 510.595 626.504 498.497C628.782 486.391 634.195 475.141 639.325 463.941C647.972 445.058 656.029 425.609 658.989 405.055C662.515 380.56 658.632 355.507 651.83 331.71C654.799 330.829 656.794 330.871 658.748 331.045C664.095 358.235 669.441 386.297 663.787 413.428H663.795Z" fill="#0B0D20"/>
<path d="M714.54 320.012C714.333 316.927 714.466 313.834 714.382 310.749C714.033 297.005 709.535 283.659 703.565 271.279C700.796 265.55 697.603 259.846 692.772 255.697C687.941 251.556 681.148 249.211 675.07 251.107C667.587 253.443 663.296 261.201 660.627 268.568C655.655 282.271 653.643 297.03 654.732 311.564L650.367 310.333C650.5 310.4 650.109 310.267 649.702 310.125C649.702 310.125 649.71 310.117 649.71 310.109C648.429 302.85 649.56 295.383 651.215 288.199C652.87 280.982 655.065 273.823 658.657 267.337C649.086 278.945 642.958 293.429 640.638 308.521C609.458 300.131 577.654 293.895 545.592 289.48C600.994 303 655.065 316.378 709.136 329.765C731.444 335.286 753.753 340.807 776.195 345.763C768.844 343.293 762.309 340.591 754.959 338.121C741.746 333.681 728.468 329.233 714.748 326.805C715.023 324.601 714.682 322.315 714.532 320.012H714.54Z" fill="#0B0D20"/>
<path d="M223.119 98.2975C223.876 101.199 225.439 103.835 227.31 106.172C229.597 109.024 232.382 111.476 235.542 113.306C238.768 115.168 242.385 116.374 246.085 116.806C248.014 117.031 250.084 117.022 251.756 116.033C253.31 115.11 254.3 113.439 254.79 111.693C255.273 109.955 255.306 108.117 255.339 106.313C255.431 100.883 255.481 95.2709 253.394 90.2571C253.194 89.7832 252.978 89.2427 253.194 88.7771C253.302 88.536 253.518 88.353 253.618 88.1119C253.801 87.6629 253.56 87.1557 253.319 86.7316C252.454 85.2017 251.581 83.6718 250.716 82.1419C246.55 85.0687 240.339 85.2017 235.949 82.2666C236.107 83.6552 236.049 85.077 235.766 86.4489C235.716 86.6984 235.65 86.9645 235.467 87.1391C235.234 87.3636 234.868 87.3885 234.544 87.3968C233.155 87.4218 231.767 87.3719 230.378 87.2555C231.01 90.2322 231.642 93.2006 232.282 96.1773C231.442 96.3602 230.403 96.4766 229.888 95.7865C229.53 95.3042 229.597 94.5891 229.214 94.1152C228.665 93.4334 227.46 93.7161 226.969 94.4478C226.479 95.1795 226.512 96.1357 226.628 97.0004C226.969 99.578 227.909 102.122 229.588 104.101C228.017 103.785 226.753 102.546 226.038 101.116C225.323 99.6861 225.073 98.0647 224.882 96.4766C224.757 95.3957 224.658 94.2815 224.965 93.2338C225.273 92.1862 226.071 91.2216 227.144 91.0304C228.216 90.8392 228.732 92.1695 229.355 92.7931C228.466 90.4151 228.208 87.7959 228.607 85.2849C228.649 85.0354 228.707 84.761 228.915 84.6114C229.131 84.4534 229.422 84.5033 229.688 84.5532C231.284 84.8525 232.889 85.1602 234.486 85.4595C234.353 83.6302 234.569 81.7843 235.093 80.0382C235.118 80.0466 235.151 80.0632 235.176 80.0715C238.676 80.8947 242.277 81.2522 245.869 81.1275C247.199 81.0859 248.704 80.8697 249.444 79.7638C247.465 76.9036 244.746 74.4923 241.611 72.8958C238.019 71.0666 233.604 70.3515 229.971 72.0976C226.878 73.5776 224.782 76.6458 223.726 79.9135C222.67 83.1729 222.537 86.6568 222.479 90.0825C222.429 92.843 222.429 95.6368 223.119 98.3058V98.2975Z" fill="#0B0D20"/>
<path d="M222.288 102.721C220.483 107.61 217.665 112.125 214.031 115.717C216.16 117.397 218.288 119.084 220.425 120.764C221.656 121.737 222.895 122.71 224.308 123.383C225.597 123.999 227.002 124.339 228.399 124.606C231.334 125.163 234.411 125.387 237.287 124.572C240.164 123.757 242.825 121.762 243.549 118.694C234.485 117.114 226.329 110.986 222.296 102.713L222.288 102.721Z" fill="#0B0D20"/>
<path d="M685.555 52.35C687.135 47.6106 683.626 42.2309 678.912 40.6012C674.197 38.9715 668.859 40.41 664.668 43.1206C664.352 36.5852 660.419 30.3407 654.666 27.2227C648.912 24.1046 641.528 24.2294 635.882 27.5387C633.712 22.7327 631.509 17.8685 628.175 13.7943C624.84 9.72004 620.176 6.45233 614.938 5.9285C610.04 5.44624 605.109 7.43347 601.334 10.6014C600.536 11.2666 599.73 12.0149 598.715 12.2145C596.637 12.6302 594.949 10.6929 593.219 9.4706C589.619 6.91796 584.572 7.28381 580.614 9.22947C576.656 11.1751 573.53 14.4512 570.503 17.6524C570.304 17.8602 570.104 18.0764 569.905 18.2843C556.676 13.1707 542.457 10.4601 528.322 7.77438C523.766 6.90964 519.201 6.03659 514.644 5.17185C507.668 3.84148 500.659 2.51111 493.566 2.14526C577.529 24.853 661.891 47.9099 745.954 71.9812C727.245 63.6997 706.641 56.9398 685.563 52.3583L685.555 52.35Z" fill="#0B0D20"/>
<path d="M48.4087 209.633C48.4087 209.633 108.209 233.737 121.396 241.237C121.396 241.237 85.9251 216.002 48.4087 209.633V209.633Z" fill="white"/>
<path d="M331.037 0C331.037 0 450.18 33.1927 505.656 39.5618L331.037 0Z" fill="white"/>
<path d="M331.486 444.742C331.486 444.742 443.47 480.67 563.236 507.494C563.236 507.494 427.439 465.654 331.486 444.742V444.742Z" fill="#0B0D20"/>
<path d="M463.367 244.197C463.367 244.197 532.08 273.756 625.505 289.671L463.367 244.197Z" fill="white"/>
</svg>
