<svg width="1100" height="590" viewBox="0 0 1100 590" fill="none" xmlns="http://www.w3.org/2000/svg">
<path d="M379.141 57.2553L349.866 0.0531125L31.0083 0V114.068L350.097 114.015L379.141 57.2553Z" fill="#00E8E7"/>
<path d="M365.118 114.015H623.093L653.137 57.2553L622.863 0.0531006H364.888L395.162 57.2553L365.118 114.015Z" fill="#00E8E7"/>
<path d="M638.875 475.038L669.149 532.24L639.114 589H1043.65V475.038H638.875Z" fill="#141416"/>
<path d="M365.118 589H623.093L653.137 532.24L622.863 475.038H364.888L395.162 532.24L365.118 589Z" fill="#141416"/>
<path d="M639.114 114.015H897.088L927.124 57.2553L896.85 0.0531006H638.875L669.149 57.2553L639.114 114.015Z" fill="#00E8E7"/>
<path d="M935.139 0.0531006H912.871L943.145 57.2553L913.101 114.015H935.13C966.987 114.015 992.9 141.722 992.9 175.785C992.9 209.848 966.987 237.555 935.13 237.555H751.522L722.018 293.296L752.832 351.516H935.13C1025.77 351.516 1099.5 272.688 1099.5 175.794C1099.5 78.8986 1025.77 0.0531006 935.139 0.0531006Z" fill="#141416"/>
<path d="M164.87 237.546H187.138L156.864 294.748L186.908 351.507H164.879C133.021 351.507 107.109 379.214 107.109 413.277C107.109 447.34 133.021 475.047 164.879 475.047H348.486L377.991 530.789L347.177 589.009H164.87C74.2429 589 0.504395 510.163 0.504395 413.268C0.504395 316.374 74.2429 237.546 164.87 237.546Z" fill="#141416"/>
<path d="M734.262 237.546H476.288L446.244 294.305L476.518 351.507H734.492L704.218 294.305L734.262 237.546Z" fill="#141416"/>
<path d="M458.833 237.546H200.859L170.815 294.305L201.089 351.507H459.063L428.789 294.305L458.833 237.546Z" fill="#141416"/>
</svg>
