<svg width="157" height="40" viewBox="0 0 157 40" fill="none" xmlns="http://www.w3.org/2000/svg">
<path d="M20.9595 24C24.1095 24 26.3495 21.326 26.3495 18.624C26.3495 17.35 25.9295 16.3 25.0755 15.474C24.2215 14.648 23.1295 14.242 21.7855 14.242H18.3415L16.3535 24H20.9595ZM20.1055 16.216H21.5755C22.3455 16.216 22.9755 16.468 23.4375 16.958C23.9135 17.448 24.1515 18.078 24.1515 18.848C24.1515 19.674 23.8435 20.416 23.2275 21.074C22.6255 21.718 21.8835 22.04 21.0015 22.04H18.9155L20.1055 16.216ZM27.1234 19.674C27.1234 21.004 27.5854 22.082 28.5234 22.936C29.4614 23.776 30.6514 24.196 32.0934 24.196C33.7454 24.196 35.1314 23.636 36.2374 22.516C37.3434 21.396 37.9034 20.108 37.9034 18.652C37.9034 17.322 37.4414 16.23 36.5034 15.376C35.5654 14.522 34.3754 14.088 32.9334 14.088C31.8834 14.088 30.9034 14.354 29.9934 14.872C29.0974 15.39 28.3974 16.09 27.8794 16.944C27.3754 17.798 27.1234 18.708 27.1234 19.674ZM29.2654 19.506C29.2654 18.596 29.6154 17.784 30.3154 17.084C31.0154 16.384 31.8414 16.034 32.8074 16.034C33.6894 16.034 34.3894 16.3 34.9354 16.818C35.4814 17.336 35.7614 18.008 35.7614 18.834C35.7614 19.716 35.4114 20.514 34.7254 21.214C34.0394 21.9 33.1994 22.25 32.2194 22.25C31.3374 22.25 30.6234 21.998 30.0774 21.494C29.5314 20.976 29.2654 20.318 29.2654 19.506ZM44.6022 18.47L46.2122 24.42L51.9662 14.242H49.6422L46.8422 19.142L45.3862 14.172L41.6062 19.282L40.8502 14.242H38.7502L40.2202 24.392L44.6022 18.47ZM53.3178 24L54.4518 18.358L59.7718 24.378L61.8438 14.242H59.7018L58.5398 19.898L53.2478 13.864L51.1758 24H53.3178ZM67.7218 24L68.1278 22.04H64.3198L65.9158 14.242H63.7458L61.7578 24H67.7218ZM68.9867 19.674C68.9867 21.004 69.4487 22.082 70.3867 22.936C71.3247 23.776 72.5147 24.196 73.9567 24.196C75.6087 24.196 76.9947 23.636 78.1007 22.516C79.2067 21.396 79.7667 20.108 79.7667 18.652C79.7667 17.322 79.3047 16.23 78.3667 15.376C77.4287 14.522 76.2387 14.088 74.7967 14.088C73.7467 14.088 72.7667 14.354 71.8567 14.872C70.9607 15.39 70.2607 16.09 69.7427 16.944C69.2387 17.798 68.9867 18.708 68.9867 19.674ZM71.1287 19.506C71.1287 18.596 71.4787 17.784 72.1787 17.084C72.8787 16.384 73.7047 16.034 74.6707 16.034C75.5527 16.034 76.2527 16.3 76.7987 16.818C77.3447 17.336 77.6247 18.008 77.6247 18.834C77.6247 19.716 77.2747 20.514 76.5887 21.214C75.9027 21.9 75.0627 22.25 74.0827 22.25C73.2007 22.25 72.4867 21.998 71.9407 21.494C71.3947 20.976 71.1287 20.318 71.1287 19.506ZM82.1746 22.446H86.3746L86.7946 24H88.9366L85.9546 13.682L78.7726 24H81.1106L82.1746 22.446ZM85.2126 18.022L85.9126 20.612H83.4066L85.2126 18.022ZM94.6099 24C97.7599 24 99.9999 21.326 99.9999 18.624C99.9999 17.35 99.5799 16.3 98.7259 15.474C97.8719 14.648 96.7799 14.242 95.4359 14.242H91.9919L90.0039 24H94.6099ZM93.7559 16.216H95.2259C95.9959 16.216 96.6259 16.468 97.0879 16.958C97.5639 17.448 97.8019 18.078 97.8019 18.848C97.8019 19.674 97.4939 20.416 96.8779 21.074C96.2759 21.718 95.5339 22.04 94.6519 22.04H92.5659L93.7559 16.216ZM107.636 24L108.77 18.358L114.09 24.378L116.162 14.242H114.02L112.858 19.898L107.566 13.864L105.494 24H107.636ZM116.51 19.674C116.51 21.004 116.972 22.082 117.91 22.936C118.848 23.776 120.038 24.196 121.48 24.196C123.132 24.196 124.518 23.636 125.624 22.516C126.73 21.396 127.29 20.108 127.29 18.652C127.29 17.322 126.828 16.23 125.89 15.376C124.952 14.522 123.762 14.088 122.32 14.088C121.27 14.088 120.29 14.354 119.38 14.872C118.484 15.39 117.784 16.09 117.266 16.944C116.762 17.798 116.51 18.708 116.51 19.674ZM118.652 19.506C118.652 18.596 119.002 17.784 119.702 17.084C120.402 16.384 121.228 16.034 122.194 16.034C123.076 16.034 123.776 16.3 124.322 16.818C124.868 17.336 125.148 18.008 125.148 18.834C125.148 19.716 124.798 20.514 124.112 21.214C123.426 21.9 122.586 22.25 121.606 22.25C120.724 22.25 120.01 21.998 119.464 21.494C118.918 20.976 118.652 20.318 118.652 19.506ZM133.989 18.47L135.599 24.42L141.353 14.242H139.029L136.229 19.142L134.773 14.172L130.993 19.282L130.237 14.242H128.137L129.607 24.392L133.989 18.47Z" fill="#0B0D20"/>
<path d="M20 2H137V-2H20V2ZM137 38H20V42H137V38ZM20 38C10.0589 38 2 29.9411 2 20H-2C-2 32.1503 7.84974 42 20 42V38ZM155 20C155 29.9411 146.941 38 137 38V42C149.15 42 159 32.1503 159 20H155ZM137 2C146.941 2 155 10.0589 155 20H159C159 7.84974 149.15 -2 137 -2V2ZM20 -2C7.84974 -2 -2 7.84974 -2 20H2C2 10.0589 10.0589 2 20 2V-2Z" fill="#0B0D20"/>
</svg>
