<svg width="496" height="542" viewBox="0 0 496 542" fill="none" xmlns="http://www.w3.org/2000/svg">
<path d="M81.9246 140.665C79.4127 151.488 76.7968 162.571 74.2328 173.272C73.6611 175.61 73.1068 177.931 72.5524 180.216C68.9317 182.537 54.1544 192.338 41.1789 205.101C21.6202 224.34 11.2952 244.168 11.2952 262.437C11.2952 302.577 51.989 312.638 60.4603 314.301C60.5123 325.176 60.7895 337.003 61.4478 348.19C61.4478 348.19 45.3886 367.758 49.8062 398.79C54.2411 429.821 96.3381 423.154 96.3381 423.154C106.698 431.57 118.235 438.463 129.513 442.497C152.485 450.74 237.112 480.162 247.229 517.635L247.974 518.951L248.719 517.635C258.836 480.162 343.463 450.758 366.435 442.497C377.713 438.463 389.25 431.57 399.61 423.154C399.61 423.154 441.707 429.821 446.142 398.79C450.559 367.758 434.5 348.19 434.5 348.19C435.176 336.986 435.436 325.176 435.488 314.301C443.959 312.638 484.67 302.577 484.67 262.437C484.67 244.185 474.328 224.357 454.786 205.101C441.828 192.338 427.034 182.537 423.413 180.216C422.859 177.931 422.304 175.61 421.733 173.272C419.169 162.588 416.553 151.488 414.041 140.682C428.212 135.626 447.874 126.032 447.874 107.382C447.874 101.91 447.285 97.1302 446.332 92.9395C442.192 74.8434 431.139 68.263 431.139 68.263L418.302 8.19085C417.8 5.80113 416.483 3.74042 414.699 2.28581C412.897 0.831192 410.628 -0.017334 408.185 -0.017334C401.55 -0.017334 396.63 6.13015 398.068 12.6066L411.425 72.1073C411.425 72.1073 403.335 79.6575 409.814 89.3895C416.276 99.1043 414.491 107.018 414.491 107.018C411.598 107.018 408.982 107.261 406.591 107.711C402.971 90.9827 400.372 77.6834 399.922 71.9515C398.12 48.9201 379.41 27.3433 358.518 17.9922C344.485 11.7062 299.391 7.35964 271.309 5.19504C255.77 4.00017 240.161 4.00017 224.621 5.19504C196.539 7.35964 151.445 11.6889 137.413 17.9922C116.538 27.3433 97.8106 48.9201 96.0089 71.9515C95.5585 77.6834 92.9773 90.9827 89.3392 107.711C86.9485 107.278 84.3326 107.018 81.4396 107.018C81.4396 107.018 79.6379 99.1043 86.117 89.3895C92.5961 79.6748 84.5059 72.1073 84.5059 72.1073L97.8972 12.624C99.3524 6.14746 94.4151 -1.71363e-05 87.7801 -1.71363e-05C85.3374 -1.71363e-05 83.068 0.848509 81.2663 2.30312C79.482 3.75774 78.1653 5.81844 77.663 8.20817L64.826 68.2803C64.826 68.2803 53.7906 74.8607 49.6329 92.9568C48.6801 97.1302 48.0911 101.927 48.0911 107.399C48.0911 126.049 67.771 135.626 81.9246 140.682V140.665ZM61.136 271.961C61.136 271.961 61.0147 274.749 60.8761 279.511C57.8444 278.334 45.4059 272.446 43.5176 254.696C45.2673 248.376 49.8754 238.28 61.6903 224.669C61.2919 224.998 48.8707 235.63 43.5522 244.739C44.3145 237.189 46.7225 228.063 51.5905 217.101C51.0015 217.967 20.3036 263.32 60.7202 285.936C60.6162 290.507 60.5296 295.997 60.4777 302.058V306.508C60.4777 307.755 60.4777 309.002 60.4777 310.283C58.6587 309.989 48.1604 308.067 37.8007 301.867C22.8675 292.914 15.2797 279.65 15.2797 262.454C15.2797 224.859 61.6384 192.234 71.2011 185.914C67.5112 201.187 64.133 214.902 61.7077 224.703C59.3689 234.176 57.9137 239.977 57.9137 239.977C57.9137 239.977 51.4346 268.03 61.1533 271.996L61.136 271.961ZM52.4047 385.958C54.2237 367.134 58.5027 358.684 61.8982 354.909C63.1975 372.26 65.5882 387.291 69.7806 393.906C73.4186 399.656 77.9055 405.353 82.9987 410.756C82.9987 410.756 67.4938 408.314 64.2023 401.318C64.4622 401.959 68.7585 412.228 85.9091 413.751C86.8273 414.669 87.7455 415.57 88.6983 416.453C88.6983 416.453 49.1652 419.535 52.4047 385.958ZM73.3666 352.9L74.2675 293.815L80.4694 304.066V349.662C80.4694 379.343 91.0023 390.149 91.0023 390.149L92.6135 402.547C74.2675 391.222 73.3666 352.9 73.3666 352.9ZM92.9946 357.801C87.3643 348.276 90.4999 335.981 100.045 330.353C102.072 329.159 104.22 328.379 106.386 327.964C105.624 328.293 104.844 328.656 104.117 329.089C95.0561 334.44 92.0418 346.146 97.4122 355.203C102.783 364.26 114.476 367.256 123.537 361.887C124.282 361.455 124.957 360.952 125.633 360.433C124.212 362.13 122.497 363.654 120.47 364.849C110.942 370.477 98.6422 367.342 93.0119 357.818L92.9946 357.801ZM406.384 293.815C406.384 305.244 397.115 314.491 385.699 314.491C383.273 314.491 380.969 314.058 378.804 313.279C379.67 313.4 380.536 313.487 381.42 313.487C392.282 313.487 401.1 304.673 401.1 293.815C401.1 289.849 399.922 286.178 397.912 283.078C392.23 282.732 388.99 281.71 388.99 281.71C390.792 280.81 392.819 280.1 394.967 279.546C391.433 276.204 386.686 274.143 381.437 274.143C380.554 274.143 379.687 274.212 378.821 274.333C380.987 273.572 383.291 273.139 385.716 273.139C391.104 273.139 396.007 275.217 399.679 278.593C412.343 276.654 426.791 278.801 426.791 278.801C417.627 281.953 409.658 283.027 403.439 283.182C405.31 286.299 406.401 289.919 406.401 293.815H406.384ZM379.895 281.918C384.971 282.126 388.973 286.334 388.973 291.425C388.973 296.516 384.711 300.932 379.462 300.932H379.306C366.608 300.724 344.329 300.465 330.609 300.794C324.788 300.949 318.967 300.257 313.337 298.733C305.697 296.672 295.424 293.451 289.655 289.728C287.386 288.256 288.287 284.758 290.989 284.602C307.967 283.667 358.518 281.018 379.895 281.936V281.918ZM376.794 307.945H345.386C345.386 307.945 336.447 304.88 335.373 303.807H372.082L376.812 307.945H376.794ZM373.468 327.496C375.46 328.379 377.314 329.228 379.029 330.024C383.343 332.016 386.773 333.713 389.32 335.012C392.386 336.588 393.754 340.189 392.507 343.393L392.473 343.514C391.087 347.099 386.981 348.779 383.464 347.22C379.965 345.679 375.564 343.982 370.627 342.216C368.877 341.575 367.076 340.951 365.205 340.293C344.191 333.09 316.888 325.28 307.845 322.734C337.989 331.479 355.521 341.54 365.222 348.917C367.613 350.718 369.536 352.381 371.043 353.801C374.716 357.229 376.032 359.377 376.032 359.377C374.837 358.597 373.607 357.835 372.377 357.091C370.575 356.017 368.756 354.943 366.868 353.922C334.697 336.155 290.314 325.176 247.974 318.388C181.017 307.651 119.24 307.391 119.24 307.391C126.17 300.482 200.576 304.066 200.576 304.066C192.226 300.43 138.539 298.837 116.555 298.317C111.496 298.196 107.599 293.832 108.084 288.793C108.499 284.395 112.155 281.018 116.555 280.897C166.188 279.684 210.312 283.892 247.974 290.507C306.702 300.811 349.717 316.968 373.468 327.479V327.496ZM363.559 393.664H359.089C353.684 380.711 321.115 376.486 321.115 376.486L312.835 354.372H343.151C357.045 358.597 373.745 368.451 380.328 377.888C381.316 379.308 381.784 380.919 381.784 382.495C381.784 385.577 380.034 388.555 376.933 389.889C373.728 391.257 370.038 390.374 367.699 387.793C360.579 379.897 346.859 373.853 340.31 371.291C351.224 376.693 363.542 393.681 363.542 393.681L363.559 393.664ZM126.655 387.776C124.316 390.356 120.626 391.257 117.421 389.871C114.32 388.538 112.571 385.56 112.571 382.477C112.571 380.901 113.038 379.291 114.026 377.871C120.592 368.416 137.309 358.58 151.203 354.355H181.52L173.239 376.468C173.239 376.468 140.67 380.711 135.265 393.647H130.813C130.813 393.647 143.13 376.641 154.044 371.256C147.513 373.819 133.775 379.862 126.655 387.759V387.776ZM119.154 346.701C118.132 347.185 117.04 347.445 115.931 347.445C114.909 347.445 113.887 347.22 112.934 346.805C107.287 344.328 106.923 336.466 112.293 333.471L132.147 322.422C141.467 317.227 151.948 314.353 162.619 314.214C189.904 313.833 203.902 319.253 209.48 322.197C210.624 322.803 210.416 324.518 209.134 324.812C173.62 333.453 117.785 358.978 116.902 359.377C122.584 343.185 191.671 322.145 191.671 322.145C171.385 322.145 130.622 341.142 119.154 346.683V346.701ZM345.3 398.513C345.3 398.513 347.465 406.063 330.73 402.565C313.995 399.067 269.698 393.664 247.991 393.664C226.285 393.664 181.97 399.067 165.235 402.565C148.5 406.08 150.666 398.513 150.666 398.513C170.276 398.513 183.061 388.902 183.824 388.296C176.219 393.387 151.878 390.962 151.878 390.962C153.645 386.651 180.151 383.135 180.151 383.135L193.508 345.904H173.88C173.88 345.904 198.878 336.536 247.991 338.025C297.087 336.536 322.103 345.904 322.103 345.904H302.458L315.814 383.135C315.814 383.135 342.337 386.651 344.087 390.962C344.087 390.962 319.747 393.387 312.142 388.296C312.904 388.902 325.689 398.513 345.3 398.513ZM298.196 414.964C298.196 418.392 295.424 421.18 291.994 421.18C288.564 421.18 285.775 418.392 285.775 414.964C285.775 411.535 288.547 408.764 291.994 408.764C295.441 408.764 298.196 411.535 298.196 414.964ZM276.437 411.518C276.437 414.946 273.665 417.734 270.235 417.734C266.805 417.734 264.016 414.946 264.016 411.518C264.016 408.089 266.805 405.318 270.235 405.318C273.665 405.318 276.437 408.089 276.437 411.518ZM254.193 408.764C254.193 412.193 251.421 414.964 247.974 414.964C244.527 414.964 241.755 412.193 241.755 408.764C241.755 405.335 244.527 402.547 247.974 402.547C251.421 402.547 254.193 405.335 254.193 408.764ZM231.932 411.518C231.932 414.946 229.143 417.734 225.713 417.734C222.283 417.734 219.511 414.946 219.511 411.518C219.511 408.089 222.283 405.318 225.713 405.318C229.143 405.318 231.932 408.089 231.932 411.518ZM210.173 414.964C210.173 418.392 207.402 421.18 203.954 421.18C200.507 421.18 197.752 418.392 197.752 414.964C197.752 411.535 200.524 408.764 203.954 408.764C207.384 408.764 210.173 411.535 210.173 414.964ZM247.974 456.784C254.037 445.995 351.501 407.691 351.501 407.691L356.907 412.816C356.907 412.816 249.724 454.637 247.974 463.537C246.224 454.637 139.041 412.816 139.041 412.816L144.447 407.691C144.447 407.691 241.911 445.995 247.974 456.784ZM116.001 274.16C105.139 274.16 96.3208 282.957 96.3208 293.832C96.3208 304.707 105.121 313.504 116.001 313.504C116.884 313.504 117.768 313.418 118.617 313.296C116.468 314.076 114.147 314.509 111.704 314.509C100.288 314.509 91.0197 305.244 91.0197 293.832C91.0197 282.42 100.288 273.156 111.704 273.156C114.13 273.156 116.451 273.589 118.617 274.351C117.75 274.23 116.884 274.16 116.001 274.16ZM99.2312 316.483V323.219L92.6135 329.297V311.755L99.2312 316.483ZM98.0185 392.33C98.0185 385.023 101.812 378.564 107.616 374.633C105.866 377.715 104.827 381.3 104.827 385.109C104.827 396.608 113.922 405.942 125.113 405.942C133.065 405.942 139.942 401.214 143.268 394.374C142.194 405.387 132.493 413.994 120.695 413.994C108.17 413.994 98.0185 404.296 98.0185 392.33ZM296.446 458.931C267.307 467.572 247.974 494.015 247.974 494.015C247.974 494.015 228.641 467.572 199.502 458.931C170.346 450.29 112.311 419.535 112.311 419.535H126.36C126.36 419.535 172.788 443.277 197.076 449.476C221.365 455.693 247.974 479.711 247.974 479.711C247.974 479.711 274.566 455.693 298.872 449.476C323.16 443.277 369.588 419.535 369.588 419.535H383.637C383.637 419.535 325.602 450.29 296.446 458.931ZM376.76 413.994C364.962 413.994 355.261 405.387 354.187 394.374C357.513 401.214 364.373 405.942 372.325 405.942C383.533 405.942 392.611 396.608 392.611 385.109C392.611 381.282 391.589 377.715 389.839 374.633C395.643 378.564 399.419 385.023 399.419 392.33C399.419 404.296 389.268 413.994 376.76 413.994ZM387.708 367.1C384.036 367.1 380.623 365.853 377.799 363.688C379.272 364.156 380.831 364.381 382.442 364.381C392.195 364.381 400.095 355.515 400.095 344.553C400.095 337.713 397.011 331.687 392.334 328.12C399.835 330.388 405.379 338.094 405.379 347.255C405.379 358.199 397.479 367.083 387.726 367.083L387.708 367.1ZM404.946 390.131C404.946 390.131 415.479 379.343 415.479 349.644V304.049L421.681 293.798L422.581 352.883C422.581 352.883 421.681 391.205 403.335 402.53L404.946 390.131ZM443.561 385.958C446.8 419.553 407.267 416.453 407.267 416.453C408.203 415.57 409.138 414.652 410.056 413.751C427.19 412.245 431.503 401.959 431.763 401.318C428.489 408.314 412.967 410.756 412.967 410.756C418.06 405.353 422.547 399.656 426.185 393.906C430.36 387.291 432.751 372.26 434.067 354.909C437.48 358.701 441.742 367.152 443.561 385.958ZM480.72 262.419C480.72 279.615 473.15 292.88 458.199 301.833C447.857 308.032 437.341 309.954 435.522 310.249C435.522 308.984 435.522 307.72 435.522 306.474V302.023C435.47 295.962 435.366 290.473 435.28 285.901C475.696 263.285 444.981 217.933 444.409 217.067C449.277 228.028 451.686 237.154 452.448 244.704C447.112 235.596 434.691 224.963 434.31 224.634C446.125 238.245 450.715 248.341 452.482 254.662C450.594 272.411 438.156 278.282 435.124 279.477C434.985 274.714 434.864 271.926 434.864 271.926C444.583 267.978 438.104 239.908 438.104 239.908C438.104 239.908 436.648 234.106 434.31 224.634C431.884 214.833 428.506 201.118 424.816 185.844C434.379 192.165 480.738 224.79 480.738 262.385L480.72 262.419ZM402.849 11.4984C402.243 8.48524 404.287 5.55869 407.319 5.09114C407.596 5.0565 407.873 5.03919 408.133 5.03919C410.611 5.03919 412.811 6.71892 413.4 9.17791L427.727 69.7003C428.471 72.8346 426.341 75.917 423.136 76.298C423.136 69.2327 407.96 15.8449 406.782 11.7235L421.022 76.5578C418.216 76.9041 415.617 75.0339 415.063 72.2632L402.849 11.4984ZM68.2561 69.683L82.5829 9.1606C83.1719 6.7016 85.3721 5.02187 87.8494 5.02187C88.1092 5.02187 88.3864 5.02187 88.6636 5.07382C91.7126 5.54137 93.7568 8.46792 93.1332 11.4811L80.9198 72.2459C80.3655 75.0166 77.7669 76.8868 74.9604 76.5405L89.2007 11.7235C88.0226 15.8449 72.8469 69.2327 72.8469 76.298C69.642 75.8997 67.5112 72.8173 68.2561 69.7003V69.683ZM52.1449 92.9568C54.0159 84.5928 58.1043 79.2246 60.7202 76.4712C61.9502 75.1897 64.0291 75.1724 65.2764 76.4365C65.9 77.06 66.2119 77.8912 66.2119 78.7051C66.2119 79.3631 66.0213 80.0211 65.6055 80.558C61.9329 85.6318 53.6521 98.8272 56.8223 110.966C56.8223 110.966 63.3015 84.6967 69.7806 83.4499C76.2424 82.1857 79.482 82.913 82.0112 77.5102C82.0112 77.5102 85.0602 79.848 80.556 89.5627C76.5023 98.325 63.5267 119.798 84.6098 128.959C86.9139 129.963 89.6164 130.811 92.7694 131.469C92.5442 131.262 88.7156 127.954 85.6666 124.318C83.2412 121.426 81.301 118.326 82.0112 116.369C82.8948 113.928 83.9862 111.694 88.4557 111.832C92.215 111.953 98.3823 113.72 108.811 118.447C108.811 118.447 105.78 113.979 98.6941 110.62C98.6941 100.091 108.811 71.2415 108.811 71.2415C108.811 71.2415 107.321 51.9505 124.732 34.5471C124.974 34.3047 125.252 34.0622 125.529 33.8198C125.615 33.7505 125.702 33.6813 125.789 33.612C125.997 33.4388 126.222 33.2656 126.464 33.0925C126.551 33.0232 126.638 32.9539 126.724 32.8847C127.053 32.6596 127.382 32.4171 127.729 32.192C127.764 32.1747 127.781 32.1574 127.816 32.1401C128.145 31.9323 128.491 31.7245 128.838 31.5166C128.959 31.4474 129.063 31.3954 129.184 31.3262C129.479 31.153 129.791 30.9971 130.102 30.824L130.449 30.6508C130.865 30.443 131.315 30.2352 131.748 30.0101C131.817 29.9754 131.887 29.9581 131.956 29.9235C132.354 29.7503 132.753 29.5598 133.169 29.3867C133.307 29.3174 133.463 29.2655 133.602 29.1962C133.983 29.0403 134.364 28.8845 134.745 28.7286C134.884 28.6767 135.005 28.6247 135.144 28.5728C135.663 28.365 136.183 28.1745 136.703 27.984C136.807 27.9494 136.911 27.9147 137.015 27.8801C137.465 27.7243 137.915 27.5684 138.366 27.4126C138.539 27.3606 138.712 27.2913 138.886 27.2394C139.319 27.1008 139.769 26.945 140.237 26.8065C140.375 26.7545 140.514 26.7199 140.653 26.6852C141.242 26.4948 141.848 26.3216 142.454 26.1484C142.593 26.0965 142.731 26.0618 142.87 26.0272C143.355 25.8887 143.858 25.7501 144.36 25.6116C144.55 25.5597 144.758 25.5077 144.949 25.4557C145.469 25.3172 145.971 25.1787 146.508 25.0401C146.647 25.0055 146.785 24.9709 146.907 24.9362C147.565 24.7631 148.24 24.6072 148.899 24.4341C149.072 24.3994 149.228 24.3475 149.384 24.3128C149.904 24.1916 150.441 24.0704 150.978 23.9319C151.186 23.8799 151.393 23.828 151.619 23.7933C152.208 23.6548 152.779 23.5336 153.368 23.395C153.49 23.3604 153.611 23.3431 153.749 23.3085C154.442 23.1526 155.17 22.9968 155.898 22.8582C156.088 22.8063 156.296 22.7716 156.487 22.737C157.041 22.6158 157.595 22.5119 158.167 22.3907C158.392 22.3387 158.617 22.3041 158.843 22.2694C159.484 22.1482 160.142 22.0097 160.8 21.8885C160.904 21.8885 160.991 21.8538 161.095 21.8365C161.857 21.698 162.602 21.5595 163.364 21.4209C163.572 21.3863 163.78 21.3517 164.005 21.2997C164.594 21.1958 165.166 21.0919 165.755 20.988C165.98 20.9534 166.223 20.9187 166.448 20.8668C167.175 20.7456 167.903 20.6243 168.631 20.5031C168.683 20.5031 168.752 20.5031 168.804 20.4685C169.601 20.3473 170.38 20.2261 171.177 20.0875C171.402 20.0529 171.628 20.0183 171.853 19.9836C172.459 19.8797 173.066 19.7931 173.655 19.7066C173.88 19.6719 174.105 19.6373 174.33 19.6027C175.127 19.4814 175.924 19.3775 176.738 19.2563C176.756 19.2563 176.79 19.2563 176.79 19.2563C177.57 19.1351 178.367 19.0312 179.146 18.9273C179.389 18.8927 179.631 18.858 179.857 18.8234C180.463 18.7368 181.069 18.6502 181.676 18.581C181.901 18.5463 182.143 18.529 182.368 18.4944C183.183 18.3905 183.98 18.2866 184.794 18.1827C184.863 18.1827 184.915 18.1827 184.984 18.148C185.729 18.0615 186.474 17.9749 187.219 17.871L187.947 17.7844C188.57 17.7151 189.177 17.6459 189.783 17.5593C189.991 17.542 190.216 17.5073 190.424 17.49C191.238 17.4034 192.035 17.2995 192.849 17.2129C192.971 17.2129 193.075 17.1956 193.196 17.1783C193.889 17.109 194.582 17.0224 195.257 16.9532C195.5 16.9185 195.725 16.9012 195.968 16.8666C196.591 16.8146 197.215 16.7454 197.821 16.6761C198.012 16.6761 198.22 16.6415 198.41 16.6242C199.207 16.5376 199.987 16.451 200.784 16.3817L201.217 16.3298C201.875 16.2605 202.516 16.2086 203.174 16.1393C203.4 16.122 203.642 16.0873 203.867 16.07C204.508 16.0181 205.132 15.9488 205.738 15.8969C205.894 15.8969 206.05 15.8622 206.206 15.8449C206.986 15.7756 207.765 15.7064 208.528 15.6371C208.666 15.6371 208.805 15.6025 208.943 15.6025C209.567 15.5505 210.191 15.4812 210.797 15.4293C211.022 15.4293 211.23 15.3947 211.438 15.3773C212.062 15.3254 212.685 15.2734 213.292 15.2215C213.413 15.2215 213.534 15.2042 213.655 15.1869C214.4 15.1176 215.128 15.0656 215.856 14.9964C216.011 14.9964 216.185 14.9791 216.341 14.9617C216.895 14.9098 217.449 14.8752 218.021 14.8232C218.229 14.8232 218.437 14.7886 218.645 14.7713C219.234 14.7193 219.823 14.6674 220.394 14.6327C220.498 14.6327 220.62 14.6327 220.724 14.6154C221.417 14.5635 222.075 14.5115 222.75 14.4596C222.906 14.4596 223.08 14.4422 223.236 14.4249C223.755 14.3903 224.258 14.3557 224.76 14.3037C224.933 14.3037 225.124 14.2864 225.297 14.2691C225.886 14.2171 226.458 14.1825 227.029 14.1478C227.081 14.1478 227.151 14.1478 227.203 14.1478C227.826 14.0959 228.433 14.0613 229.039 14.0266C229.212 14.0266 229.368 14.0093 229.524 13.992C229.767 13.992 230.026 13.9574 230.269 13.94C230.286 13.94 230.321 13.94 230.338 13.94C240.993 13.2474 247.974 12.953 247.974 12.953C247.974 12.953 254.956 13.2301 265.627 13.94C265.644 13.94 265.662 13.94 265.679 13.94C265.904 13.94 266.164 13.9747 266.407 13.992C266.58 13.992 266.736 14.0093 266.909 14.0266C267.498 14.0613 268.104 14.0959 268.728 14.1478C268.797 14.1478 268.867 14.1478 268.936 14.1478C269.49 14.1825 270.062 14.2344 270.634 14.2691C270.807 14.2691 270.997 14.2864 271.188 14.3037C271.69 14.3383 272.193 14.373 272.712 14.4249C272.886 14.4249 273.042 14.4422 273.198 14.4596C273.873 14.5115 274.532 14.5635 275.224 14.6154C275.346 14.6154 275.45 14.6154 275.571 14.65C276.143 14.6847 276.714 14.7366 277.303 14.7713C277.529 14.7886 277.736 14.8059 277.944 14.8232C278.499 14.8752 279.07 14.9098 279.625 14.9617C279.781 14.9617 279.937 14.9964 280.092 14.9964C280.82 15.0483 281.548 15.1176 282.293 15.1695C282.431 15.1695 282.552 15.1869 282.691 15.2042C283.297 15.2561 283.921 15.3081 284.545 15.36C284.753 15.36 284.961 15.3947 285.168 15.412C285.792 15.4639 286.398 15.5332 287.022 15.5851C287.178 15.5851 287.317 15.6198 287.472 15.6371C288.235 15.7064 288.997 15.7756 289.777 15.8449C289.932 15.8449 290.106 15.8795 290.262 15.8969C290.885 15.9488 291.492 16.0181 292.115 16.07C292.34 16.1047 292.583 16.122 292.826 16.1393C293.467 16.1912 294.108 16.2605 294.748 16.3298L295.199 16.3817C295.978 16.451 296.775 16.5376 297.555 16.6242C297.763 16.6415 297.953 16.6761 298.161 16.6761C298.768 16.7454 299.391 16.8146 300.015 16.8839C300.24 16.9012 300.483 16.9359 300.708 16.9532C301.401 17.0224 302.094 17.109 302.787 17.1783C302.908 17.1783 303.029 17.2129 303.133 17.2129C303.947 17.2995 304.744 17.4034 305.541 17.49C305.766 17.5073 305.974 17.542 306.182 17.5593C306.789 17.6285 307.395 17.6978 308.001 17.7844C308.244 17.819 308.504 17.8363 308.746 17.871C309.491 17.9576 310.236 18.0441 310.964 18.148C311.033 18.148 311.102 18.1654 311.172 18.1827C311.986 18.2866 312.783 18.3905 313.597 18.4944L314.29 18.581C314.879 18.6675 315.485 18.7541 316.092 18.8234C316.334 18.858 316.577 18.8753 316.802 18.9273C317.581 19.0312 318.361 19.1351 319.158 19.2563C319.175 19.2563 319.21 19.2563 319.227 19.2563C320.024 19.3775 320.821 19.4814 321.618 19.6027C321.843 19.6373 322.068 19.6719 322.293 19.7066C322.9 19.7931 323.489 19.8797 324.095 19.9836C324.32 20.0183 324.546 20.0529 324.771 20.0875C325.568 20.2087 326.347 20.33 327.144 20.4512C327.196 20.4512 327.265 20.4685 327.317 20.4858C328.045 20.607 328.773 20.7283 329.483 20.8495C329.708 20.8841 329.951 20.9187 330.176 20.9707C330.765 21.0746 331.337 21.1612 331.926 21.2651C332.133 21.2997 332.341 21.3343 332.567 21.3863C333.329 21.5248 334.074 21.6634 334.836 21.8019C334.94 21.8019 335.044 21.8365 335.148 21.8538C335.789 21.9751 336.447 22.0963 337.088 22.2348C337.313 22.2694 337.556 22.3214 337.781 22.356C338.335 22.4773 338.89 22.5812 339.444 22.7024C339.635 22.737 339.825 22.7716 340.033 22.8236C340.743 22.9621 341.471 23.118 342.181 23.2738C342.32 23.3085 342.441 23.3258 342.58 23.3604C343.169 23.4816 343.74 23.6202 344.312 23.7587C344.52 23.8106 344.728 23.8626 344.953 23.8972C345.49 24.0185 346.027 24.1397 346.547 24.2782C346.72 24.3128 346.876 24.3648 347.049 24.3994C347.725 24.5726 348.383 24.7284 349.042 24.9016C349.18 24.9362 349.319 24.9709 349.44 25.0055C349.96 25.144 350.479 25.2826 350.999 25.4211C351.19 25.4731 351.398 25.525 351.588 25.577C352.091 25.7155 352.593 25.854 353.078 25.9926C353.199 26.0272 353.355 26.0618 353.476 26.1138C354.083 26.287 354.689 26.4601 355.278 26.6506C355.417 26.7026 355.555 26.7372 355.694 26.7718C356.144 26.9104 356.595 27.0662 357.028 27.2048C357.201 27.2567 357.374 27.326 357.548 27.3779C358.015 27.5338 358.466 27.6896 358.899 27.8455C359.003 27.8801 359.107 27.9147 359.211 27.9494C359.748 28.1399 360.267 28.3477 360.787 28.5381C360.908 28.5901 361.047 28.642 361.186 28.694C361.567 28.8499 361.948 29.0057 362.329 29.1616C362.468 29.2135 362.623 29.2828 362.762 29.352C363.178 29.5252 363.576 29.6984 363.975 29.8889C364.027 29.9235 364.113 29.9408 364.183 29.9754C364.633 30.1832 365.066 30.3911 365.482 30.6162C365.603 30.6681 365.707 30.7374 365.828 30.7893C366.14 30.9625 366.452 31.1184 366.747 31.2915C366.868 31.3608 366.972 31.4127 367.093 31.482C367.439 31.6898 367.786 31.8976 368.115 32.1054C368.15 32.1227 368.167 32.1401 368.202 32.1574C368.548 32.3825 368.895 32.6076 369.207 32.85C369.293 32.9193 369.38 32.9886 369.466 33.0578C369.709 33.231 369.934 33.4042 370.142 33.5774C370.229 33.6466 370.315 33.7159 370.402 33.7852C370.679 34.0276 370.956 34.27 371.199 34.5125C388.609 51.9159 387.119 71.2069 387.119 71.2069C387.119 71.2069 397.219 100.057 397.237 110.585C390.151 113.945 387.119 118.413 387.119 118.413C397.548 113.685 403.716 111.919 407.475 111.798C411.945 111.659 413.053 113.893 413.919 116.335C414.612 118.291 412.689 121.391 410.264 124.283C407.215 127.92 403.387 131.227 403.161 131.435C406.314 130.777 409.017 129.928 411.321 128.924C432.404 119.763 419.428 98.2904 415.375 89.5281C410.87 79.8133 413.919 77.4756 413.919 77.4756C416.449 82.8784 419.688 82.1511 426.15 83.4152C432.629 84.6794 439.108 110.932 439.108 110.932C442.261 98.7753 433.998 85.5798 430.325 80.5233C429.927 79.9692 429.719 79.3111 429.719 78.6704C429.719 77.8565 430.031 77.0253 430.654 76.4019C431.919 75.1378 433.98 75.1378 435.211 76.4365C437.826 79.1726 441.915 84.5582 443.786 92.9222C444.6 96.5587 444.999 100.767 444.687 105.563C443.249 127.331 427.051 131.816 416.622 135.054C415.357 135.452 414.162 135.903 413.019 136.387C405.933 139.453 401.29 144.059 400.095 145.323C400.736 144.925 402.364 144.388 404.668 143.695L410.212 173.238L421.109 231.284C421.109 231.284 434.067 265.467 408.151 256.116C382.251 246.765 329.587 224.651 247.939 224.651C166.292 224.651 113.627 246.765 87.7281 256.116C61.8116 265.467 74.7699 231.284 74.7699 231.284L85.6666 173.238L91.2102 143.695C93.497 144.405 95.1427 144.925 95.7837 145.323C94.6057 144.042 89.9629 139.435 82.8601 136.387C81.7167 135.885 80.5214 135.452 79.2567 135.054C68.8278 131.816 52.6299 127.331 51.1921 105.563C50.8802 100.767 51.2787 96.5587 52.0929 92.9222L52.1449 92.9568Z" fill="#00E8E7"/>
<path d="M415.063 72.246C415.617 75.0167 418.216 76.8869 421.022 76.5405L406.782 11.7063C407.96 15.8277 423.136 69.2155 423.136 76.2808C426.341 75.8825 428.472 72.8001 427.727 69.6831L413.4 9.1607C412.811 6.70171 410.611 5.02197 408.133 5.02197C407.873 5.02197 407.596 5.02197 407.319 5.07392C404.27 5.54148 402.226 8.46803 402.849 11.4812L415.063 72.246Z" fill="white"/>
<path d="M72.8469 76.2808C72.8469 69.2155 88.0226 15.8277 89.2006 11.7063L74.9604 76.5406C77.7669 76.8869 80.3655 75.0167 80.9198 72.246L93.1332 11.4985C93.7395 8.48536 91.7126 5.55881 88.6636 5.09126C88.3864 5.05662 88.1092 5.03931 87.8494 5.03931C85.3721 5.03931 83.1719 6.71904 82.5829 9.17803L68.2561 69.7004C67.5111 72.8348 69.642 75.9172 72.8469 76.2981V76.2808Z" fill="white"/>
<path d="M79.3087 135.089C80.5734 135.487 81.7687 135.937 82.9121 136.422C89.9976 139.487 94.6404 144.094 95.8357 145.358C95.1947 144.959 93.5663 144.423 91.2622 143.73L85.7186 173.273L74.8219 231.319C74.8219 231.319 61.8636 265.502 87.7801 256.151C113.679 246.8 166.361 224.686 247.991 224.686C329.621 224.686 382.286 246.8 408.203 256.151C434.119 265.502 421.161 231.319 421.161 231.319L410.264 173.273L404.721 143.73C402.434 144.44 400.788 144.959 400.147 145.358C401.325 144.076 405.968 139.47 413.071 136.422C414.214 135.92 415.409 135.487 416.674 135.089C427.103 131.851 443.301 127.366 444.739 105.598C445.051 100.802 444.652 96.5935 443.838 92.957C441.967 84.593 437.878 79.2247 435.263 76.4714C434.033 75.1899 431.954 75.1726 430.706 76.4367C430.083 77.0601 429.771 77.8913 429.771 78.7052C429.771 79.3633 429.961 80.0213 430.377 80.5581C434.05 85.632 442.331 98.8274 439.16 110.967C439.16 110.967 432.681 84.6969 426.202 83.45C419.74 82.1859 416.501 82.9132 413.971 77.5104C413.971 77.5104 410.922 79.8481 415.427 89.5629C419.48 98.3252 432.456 119.798 411.373 128.959C409.069 129.963 406.366 130.812 403.213 131.47C403.439 131.262 407.267 127.954 410.316 124.318C412.742 121.426 414.682 118.326 413.971 116.369C413.088 113.928 411.997 111.694 407.527 111.832C403.768 111.954 397.6 113.72 387.171 118.447C387.171 118.447 390.203 113.98 397.289 110.62C397.289 100.092 387.171 71.2417 387.171 71.2417C387.171 71.2417 388.661 51.9507 371.251 34.5473C371.008 34.3048 370.731 34.0624 370.454 33.82C370.367 33.7507 370.281 33.6814 370.194 33.6122C369.986 33.439 369.761 33.2658 369.518 33.0927C369.432 33.0234 369.345 32.9541 369.259 32.8848C368.929 32.6597 368.6 32.4173 368.254 32.1922C368.219 32.1749 368.202 32.1575 368.167 32.1402C367.838 31.9324 367.491 31.7246 367.145 31.5168C367.024 31.4476 366.92 31.3956 366.799 31.3263C366.504 31.1532 366.192 30.9973 365.88 30.8241C365.759 30.7722 365.655 30.7029 365.534 30.651C365.118 30.4432 364.668 30.2354 364.235 30.0103C364.165 29.9756 364.096 29.9583 364.027 29.9237C363.628 29.7505 363.23 29.56 362.814 29.3868C362.675 29.3176 362.52 29.2656 362.381 29.1964C362 29.0405 361.619 28.8847 361.238 28.7288C361.099 28.6769 360.978 28.6249 360.839 28.573C360.319 28.3652 359.8 28.1747 359.263 27.9842C359.159 27.9495 359.055 27.9149 358.951 27.8803C358.5 27.7244 358.05 27.5686 357.6 27.4127C357.426 27.3608 357.253 27.2915 357.08 27.2396C356.647 27.101 356.196 26.9452 355.746 26.8066C355.607 26.7547 355.469 26.7201 355.33 26.6854C354.741 26.4949 354.152 26.3218 353.528 26.1486C353.39 26.0966 353.251 26.062 353.13 26.0274C352.645 25.8888 352.143 25.7503 351.64 25.6118C351.45 25.5598 351.242 25.5079 351.051 25.4559C350.531 25.3174 350.029 25.1789 349.492 25.0403C349.353 25.0057 349.215 24.9711 349.094 24.9364C348.435 24.7632 347.777 24.6074 347.101 24.4342C346.928 24.3996 346.772 24.3476 346.599 24.313C346.079 24.1918 345.542 24.0706 345.005 23.932C344.797 23.8801 344.589 23.8281 344.364 23.7935C343.792 23.655 343.203 23.5338 342.632 23.3952C342.493 23.3779 342.372 23.3433 342.233 23.3086C341.523 23.1528 340.813 22.9969 340.085 22.8584C339.895 22.8064 339.704 22.7718 339.496 22.7372C338.942 22.616 338.387 22.5121 337.833 22.3908C337.608 22.3389 337.383 22.3043 337.14 22.2696C336.499 22.1484 335.858 22.0272 335.2 21.8887C335.096 21.8887 334.992 21.854 334.888 21.8367C334.126 21.6982 333.381 21.5596 332.619 21.4211C332.393 21.3865 332.185 21.3518 331.978 21.2999C331.389 21.196 330.817 21.0921 330.228 21.0055C330.003 20.9535 329.76 20.9189 329.535 20.8843C328.825 20.7631 328.097 20.6418 327.369 20.5206C327.317 20.5206 327.248 20.5206 327.196 20.486C326.417 20.3648 325.62 20.2436 324.823 20.1223C324.598 20.0877 324.372 20.0531 324.147 20.0184C323.541 19.9145 322.952 19.8279 322.345 19.7414C322.12 19.7067 321.895 19.6721 321.67 19.6375C320.873 19.5162 320.076 19.4123 319.279 19.2911C319.245 19.2911 319.227 19.2911 319.21 19.2911C318.43 19.1699 317.651 19.066 316.854 18.9621C316.629 18.9275 316.386 18.8928 316.144 18.8582C315.537 18.7716 314.931 18.685 314.342 18.6158L313.649 18.5292C312.835 18.4253 312.038 18.3214 311.224 18.2175C311.154 18.2175 311.085 18.2175 311.016 18.1828C310.271 18.0963 309.543 18.0097 308.798 17.9058C308.556 17.8711 308.313 17.8538 308.053 17.8192C307.447 17.7499 306.841 17.6807 306.234 17.5941C306.026 17.5768 305.801 17.5421 305.593 17.5248C304.779 17.4382 303.982 17.3343 303.185 17.2477C303.064 17.2477 302.96 17.2304 302.839 17.2131C302.146 17.1438 301.453 17.0573 300.76 16.988C300.535 16.9534 300.292 16.936 300.067 16.9187C299.443 16.8495 298.837 16.7802 298.213 16.7109C298.005 16.7109 297.815 16.6763 297.607 16.659C296.827 16.5724 296.03 16.4858 295.251 16.4165L294.801 16.3646C294.16 16.2953 293.519 16.2434 292.878 16.1741C292.652 16.1568 292.41 16.1221 292.167 16.1048C291.544 16.0529 290.937 15.9836 290.314 15.9317C290.158 15.9317 289.984 15.897 289.829 15.8797C289.049 15.8104 288.287 15.7412 287.524 15.6719C287.369 15.6719 287.23 15.6373 287.074 15.62C286.45 15.568 285.827 15.5161 285.22 15.4468C285.013 15.4468 284.805 15.4122 284.597 15.3948C283.973 15.3429 283.367 15.2909 282.743 15.239C282.605 15.239 282.483 15.2217 282.345 15.2043C281.6 15.1524 280.872 15.0831 280.145 15.0312C279.989 15.0312 279.833 15.0139 279.677 14.9965C279.105 14.9446 278.551 14.91 277.996 14.858C277.788 14.858 277.581 14.8234 277.355 14.8061C276.766 14.7541 276.195 14.7195 275.623 14.6848C275.502 14.6848 275.398 14.6675 275.276 14.6502C274.584 14.5983 273.925 14.5463 273.25 14.4944C273.076 14.4944 272.92 14.477 272.765 14.4597C272.245 14.4251 271.742 14.3905 271.24 14.3385C271.049 14.3385 270.876 14.3212 270.686 14.3039C270.114 14.2692 269.542 14.2173 268.988 14.1827C268.919 14.1827 268.849 14.1827 268.78 14.1827C268.156 14.1307 267.567 14.0961 266.961 14.0614C266.788 14.0614 266.615 14.0441 266.459 14.0268C266.216 14.0268 265.974 13.9922 265.731 13.9749C265.714 13.9749 265.696 13.9749 265.679 13.9749C255.008 13.2822 248.026 12.9878 248.026 12.9878C248.026 12.9878 241.045 13.2649 230.39 13.9749C230.373 13.9749 230.338 13.9749 230.321 13.9749C230.078 13.9749 229.836 14.0095 229.576 14.0268C229.42 14.0268 229.264 14.0441 229.091 14.0614C228.502 14.0961 227.878 14.1307 227.255 14.1827C227.203 14.1827 227.133 14.1827 227.081 14.1827C226.51 14.2173 225.938 14.2519 225.349 14.3039C225.176 14.3039 225.003 14.3212 224.812 14.3385C224.31 14.3731 223.79 14.4078 223.288 14.4597C223.114 14.4597 222.958 14.477 222.802 14.4944C222.127 14.5463 221.469 14.5983 220.776 14.6502C220.654 14.6502 220.55 14.6502 220.446 14.6675C219.857 14.7195 219.286 14.7541 218.697 14.8061C218.489 14.8061 218.281 14.8407 218.073 14.858C217.519 14.91 216.964 14.9446 216.393 14.9965C216.219 14.9965 216.063 15.0139 215.908 15.0312C215.18 15.0831 214.452 15.1524 213.707 15.2217C213.586 15.2217 213.465 15.2217 213.344 15.2563C212.737 15.3083 212.114 15.3602 211.49 15.4122C211.282 15.4122 211.057 15.4468 210.849 15.4641C210.225 15.5161 209.619 15.5853 208.995 15.6373C208.857 15.6373 208.718 15.6546 208.58 15.6719C207.817 15.7412 207.038 15.8104 206.258 15.8797C206.102 15.8797 205.946 15.9143 205.79 15.9317C205.167 15.9836 204.543 16.0529 203.919 16.1048C203.694 16.1221 203.452 16.1568 203.226 16.1741C202.585 16.226 201.927 16.2953 201.269 16.3646L200.836 16.4165C200.056 16.4858 199.259 16.5724 198.462 16.659C198.272 16.6763 198.064 16.7109 197.873 16.7109C197.267 16.7802 196.643 16.8495 196.02 16.9014C195.777 16.936 195.552 16.9534 195.309 16.988C194.616 17.0573 193.924 17.1438 193.248 17.2131C193.127 17.2131 193.005 17.2477 192.901 17.2477C192.087 17.3343 191.29 17.4382 190.476 17.5248C190.268 17.5421 190.043 17.5768 189.835 17.5941C189.229 17.6633 188.622 17.7326 187.999 17.8192L187.271 17.9058C186.526 17.9924 185.781 18.0789 185.036 18.1828C184.967 18.1828 184.915 18.2002 184.846 18.2175C184.032 18.3214 183.217 18.4253 182.42 18.5292C182.195 18.5638 181.953 18.5811 181.728 18.6158C181.121 18.7024 180.515 18.7889 179.909 18.8582C179.683 18.8928 179.441 18.9102 179.198 18.9621C178.419 19.066 177.622 19.1699 176.842 19.2911C176.842 19.2911 176.808 19.2911 176.79 19.2911C175.976 19.4123 175.179 19.5162 174.382 19.6375C174.157 19.6721 173.932 19.7067 173.707 19.7414C173.1 19.8279 172.494 19.9145 171.905 20.0184C171.68 20.0531 171.454 20.0877 171.229 20.1223C170.432 20.2436 169.653 20.3648 168.856 20.5033C168.804 20.5033 168.752 20.5206 168.683 20.5379C167.955 20.6592 167.227 20.7804 166.5 20.9016C166.275 20.9362 166.049 20.9709 165.807 21.0228C165.218 21.1267 164.646 21.2306 164.057 21.3345C163.849 21.3691 163.641 21.4038 163.416 21.4557C162.654 21.5943 161.892 21.7328 161.147 21.8713C161.043 21.8713 160.956 21.906 160.852 21.9233C160.194 22.0445 159.536 22.1657 158.895 22.3043C158.669 22.3389 158.444 22.3908 158.219 22.4255C157.665 22.5467 157.11 22.6506 156.539 22.7718C156.348 22.8064 156.157 22.8411 155.95 22.893C155.222 23.0316 154.512 23.1874 153.801 23.3433C153.663 23.3779 153.542 23.3952 153.42 23.4299C152.831 23.5511 152.26 23.6896 151.671 23.8281C151.463 23.8801 151.255 23.932 151.03 23.9667C150.493 24.0879 149.956 24.2091 149.436 24.3476C149.28 24.3823 149.107 24.4342 148.951 24.4689C148.275 24.642 147.617 24.7979 146.959 24.9711C146.82 25.0057 146.681 25.0403 146.56 25.075C146.04 25.2135 145.521 25.352 145.001 25.4906C144.81 25.5425 144.602 25.5945 144.412 25.6464C143.909 25.7849 143.424 25.9235 142.922 26.062C142.783 26.0966 142.645 26.1313 142.506 26.1832C141.9 26.3564 141.294 26.5296 140.705 26.7201C140.566 26.772 140.427 26.8066 140.289 26.8413C139.821 26.9798 139.371 27.1357 138.938 27.2742C138.764 27.3261 138.591 27.3954 138.418 27.4474C137.95 27.6032 137.5 27.7591 137.067 27.9149C136.963 27.9496 136.859 27.9842 136.755 28.0188C136.218 28.2093 135.698 28.4171 135.196 28.6076C135.057 28.6595 134.936 28.7115 134.797 28.7634C134.416 28.9193 134.035 29.0751 133.654 29.231C133.515 29.2829 133.359 29.3522 133.221 29.4215C132.805 29.5946 132.406 29.7678 132.008 29.9583C131.939 29.9929 131.869 30.0103 131.8 30.0449C131.35 30.2527 130.917 30.4605 130.501 30.6856L130.154 30.8588C129.843 31.0319 129.531 31.1878 129.236 31.361C129.115 31.4302 129.011 31.4822 128.89 31.5515C128.543 31.7593 128.197 31.9671 127.868 32.1749C127.833 32.1922 127.816 32.2095 127.781 32.2268C127.434 32.4519 127.088 32.677 126.776 32.9195C126.69 32.9888 126.603 33.058 126.516 33.1273C126.274 33.3005 126.049 33.4736 125.841 33.6468C125.754 33.7161 125.667 33.7853 125.581 33.8546C125.304 34.097 125.026 34.3395 124.784 34.5819C107.373 51.9853 108.863 71.2763 108.863 71.2763C108.863 71.2763 98.7635 100.126 98.7461 110.655C105.832 114.014 108.863 118.482 108.863 118.482C98.4343 113.755 92.267 111.988 88.5077 111.867C84.0382 111.728 82.9294 113.962 82.0632 116.404C81.3703 118.361 83.2932 121.461 85.7186 124.352C88.7676 127.989 92.5962 131.296 92.8214 131.504C89.6684 130.846 86.9486 129.998 84.6618 128.993C63.5787 119.833 76.5542 98.3599 80.608 89.5975C85.1122 79.8828 82.0632 77.545 82.0632 77.545C79.534 82.9479 76.2944 82.2205 69.8326 83.4847C63.3535 84.7488 56.8743 111.001 56.8743 111.001C53.7214 98.8447 61.9849 85.6493 65.6575 80.5928C66.056 80.0386 66.2639 79.3806 66.2639 78.7399C66.2639 77.926 65.952 77.0948 65.3284 76.4714C64.0637 75.2072 62.0022 75.2072 60.7722 76.506C58.1563 79.242 54.0678 84.6276 52.1969 92.9916C51.3826 96.6282 50.9842 100.836 51.296 105.633C52.7339 127.4 68.9317 131.885 79.3607 135.124L79.3087 135.089Z" fill="white"/>
<path d="M462.738 197.048C451.911 186.399 439.975 177.74 433.392 173.272H421.75C422.322 175.61 422.876 177.931 423.43 180.217C427.051 182.537 441.846 192.338 454.804 205.101C474.362 224.34 484.688 244.168 484.688 262.437C484.688 302.577 443.994 312.638 435.505 314.301C435.453 325.176 435.176 337.003 434.518 348.19C434.518 348.19 450.577 367.758 446.159 398.79C441.724 429.822 399.627 423.155 399.627 423.155C389.268 431.571 377.73 438.463 366.452 442.497C343.481 450.74 258.853 480.162 248.736 517.635L247.991 518.951L247.246 517.635C237.129 480.162 152.502 450.758 129.531 442.497C118.253 438.463 106.715 431.571 96.3554 423.155C96.3554 423.155 54.2584 429.822 49.8235 398.79C45.4059 367.758 61.4651 348.19 61.4651 348.19C60.7895 336.986 60.5296 325.176 60.4777 314.301C52.0063 312.638 11.3125 302.577 11.3125 262.437C11.3125 244.185 21.6375 224.357 41.1962 205.101C54.1718 192.338 68.949 182.537 72.5697 180.217C73.1241 177.931 73.6785 175.61 74.2502 173.272H62.6085C56.0254 177.74 44.1066 186.381 33.2792 197.048C11.5031 218.452 0 241.068 0 262.437C0 283.806 9.09504 300.24 26.2977 312.102C34.3359 317.643 42.7727 321.037 49.2518 323.063C49.3731 330.925 49.6156 338.25 49.9621 344.934C44.8169 352.987 34.7171 372.901 38.6323 400.383C40.1394 410.894 45.2153 419.622 53.3056 425.596C66.4717 435.311 84.1941 435.501 92.9773 434.878C103.631 442.982 114.857 449.251 125.702 453.13L127.608 453.805C140.081 458.273 166.049 467.572 189.887 480.11C216.583 494.154 233.075 508.509 236.332 520.562L236.696 521.947L248.026 542L259.269 521.913L259.633 520.562C262.89 508.509 279.382 494.154 306.078 480.11C329.933 467.572 355.884 458.273 368.358 453.805L370.263 453.13C381.108 449.251 392.351 442.982 403.005 434.878C411.789 435.519 429.528 435.311 442.677 425.596C450.785 419.622 455.861 410.912 457.35 400.383C461.266 372.901 451.148 352.987 446.021 344.934C446.367 338.25 446.61 330.925 446.731 323.063C453.227 321.037 461.647 317.643 469.702 312.102C486.905 300.257 496 283.079 496 262.437C496 241.795 484.497 218.469 462.738 197.048V197.048Z" fill="white"/>
<path d="M435.505 306.508C435.505 307.755 435.505 309.002 435.505 310.283C437.324 309.989 447.822 308.067 458.182 301.867C473.115 292.915 480.703 279.65 480.703 262.454C480.703 224.859 434.344 192.234 424.782 185.914C428.472 201.187 431.85 214.902 434.275 224.704C436.614 234.176 438.069 239.977 438.069 239.977C438.069 239.977 444.548 268.03 434.829 271.996C434.829 271.996 434.951 274.784 435.089 279.546C438.121 278.368 450.559 272.481 452.448 254.731C450.698 248.41 446.09 238.315 434.275 224.704C434.673 225.033 447.095 235.665 452.413 244.774C451.651 237.224 449.243 228.098 444.375 217.136C444.964 218.002 475.662 263.355 435.245 285.971C435.349 290.542 435.436 296.032 435.488 302.093V306.543L435.505 306.508Z" fill="white"/>
<path d="M443.578 385.975C441.759 367.152 437.497 358.701 434.084 354.926C432.785 372.278 430.394 387.309 426.202 393.924C422.564 399.673 418.077 405.37 412.984 410.773C412.984 410.773 428.489 408.331 431.78 401.335C431.521 401.976 427.224 412.245 410.074 413.769C409.155 414.687 408.237 415.587 407.284 416.47C407.284 416.47 446.817 419.553 443.578 385.975Z" fill="white"/>
<path d="M422.599 352.917L421.698 293.832L415.496 304.084V349.679C415.496 379.36 404.963 390.166 404.963 390.166L403.352 402.565C421.698 391.24 422.599 352.917 422.599 352.917V352.917Z" fill="white"/>
<path d="M405.379 347.289C405.379 338.129 399.852 330.423 392.334 328.154C397.029 331.722 400.095 337.748 400.095 344.588C400.095 355.55 392.195 364.416 382.442 364.416C380.831 364.416 379.289 364.191 377.799 363.723C380.623 365.87 384.036 367.135 387.708 367.135C397.462 367.135 405.361 358.251 405.361 347.307L405.379 347.289Z" fill="white"/>
<path d="M399.437 392.348C399.437 385.04 395.66 378.581 389.857 374.65C391.606 377.733 392.628 381.317 392.628 385.127C392.628 396.625 383.551 405.959 372.342 405.959C364.39 405.959 357.53 401.231 354.204 394.391C355.278 405.405 364.98 414.011 376.777 414.011C389.302 414.011 399.437 404.314 399.437 392.348V392.348Z" fill="white"/>
<path d="M399.697 278.611C396.024 275.234 391.121 273.156 385.734 273.156C383.308 273.156 381.004 273.589 378.839 274.351C379.705 274.23 380.571 274.16 381.455 274.16C386.704 274.16 391.45 276.221 394.984 279.563C392.836 280.117 390.809 280.827 389.008 281.728C389.008 281.728 392.247 282.75 397.93 283.096C399.956 286.178 401.117 289.867 401.117 293.832C401.117 304.69 392.317 313.504 381.437 313.504C380.554 313.504 379.687 313.418 378.821 313.296C380.987 314.076 383.291 314.509 385.716 314.509C397.133 314.509 406.401 305.244 406.401 293.832C406.401 289.936 405.309 286.299 403.439 283.2C409.658 283.044 417.627 281.97 426.791 278.819C426.791 278.819 412.343 276.671 399.679 278.611H399.697Z" fill="white"/>
<path d="M379.497 300.932C384.746 300.932 389.008 296.69 389.008 291.425C389.008 286.161 385.006 282.143 379.93 281.918C358.552 281.001 308.001 283.65 291.024 284.585C288.339 284.741 287.421 288.239 289.69 289.711C295.459 293.434 305.732 296.672 313.372 298.716C319.002 300.222 324.805 300.915 330.644 300.776C344.364 300.447 366.643 300.707 379.341 300.915H379.497V300.932Z" fill="white"/>
<path d="M247.991 494.032C247.991 494.032 267.307 467.59 296.464 458.949C325.62 450.307 383.655 419.553 383.655 419.553H369.605C369.605 419.553 323.177 443.294 298.889 449.494C274.601 455.71 247.991 479.729 247.991 479.729C247.991 479.729 221.382 455.71 197.094 449.494C172.806 443.294 126.378 419.553 126.378 419.553H112.328C112.328 419.553 170.363 450.307 199.519 458.949C228.658 467.59 247.991 494.032 247.991 494.032V494.032Z" fill="white"/>
<path d="M367.734 387.776C370.073 390.356 373.763 391.257 376.968 389.872C380.069 388.538 381.818 385.56 381.818 382.477C381.818 380.901 381.351 379.291 380.363 377.871C373.797 368.416 357.08 358.58 343.186 354.355H312.869L321.15 376.468C321.15 376.468 353.719 380.711 359.124 393.647H363.594C363.594 393.647 351.276 376.642 340.362 371.256C346.893 373.819 360.631 379.862 367.751 387.759L367.734 387.776Z" fill="white"/>
<path d="M345.404 307.946H376.812L372.082 303.807H335.373C336.447 304.881 345.386 307.946 345.386 307.946H345.404Z" fill="white"/>
<path d="M116.59 280.914C112.172 281.035 108.534 284.412 108.118 288.811C107.651 293.85 111.531 298.231 116.59 298.335C138.574 298.854 192.278 300.447 200.611 304.084C200.611 304.084 126.204 300.482 119.275 307.409C119.275 307.409 181.052 307.669 248.009 318.405C290.331 325.193 334.732 336.172 366.902 353.939C368.791 354.961 370.61 356.035 372.411 357.108C373.641 357.87 374.871 358.615 376.067 359.394C376.067 359.394 374.733 357.247 371.077 353.818C369.57 352.398 367.647 350.736 365.257 348.935C355.555 341.558 338.024 331.497 307.88 322.752C316.94 325.297 344.225 333.107 365.239 340.311C367.11 340.952 368.929 341.592 370.662 342.233C375.599 343.999 380.017 345.696 383.499 347.238C387.033 348.796 391.121 347.116 392.507 343.532L392.542 343.411C393.772 340.207 392.403 336.605 389.354 335.029C386.808 333.73 383.377 332.033 379.064 330.042C377.349 329.228 375.495 328.397 373.503 327.514C349.752 317.002 306.737 300.846 248.009 290.542C210.347 283.927 166.223 279.719 116.59 280.931V280.914Z" fill="white"/>
<path d="M247.991 463.538C249.741 454.637 356.924 412.816 356.924 412.816L351.519 407.691C351.519 407.691 254.055 445.996 247.991 456.784C241.928 445.996 144.464 407.691 144.464 407.691L139.059 412.816C139.059 412.816 246.242 454.637 247.991 463.538V463.538Z" fill="white"/>
<path d="M344.104 390.963C342.337 386.651 315.832 383.135 315.832 383.135L302.475 345.904H322.12C322.12 345.904 297.105 336.536 248.009 338.025C198.895 336.536 173.897 345.904 173.897 345.904H193.525L180.168 383.135C180.168 383.135 153.645 386.651 151.896 390.963C151.896 390.963 176.236 393.387 183.841 388.296C183.079 388.902 170.294 398.513 150.683 398.513C150.683 398.513 148.518 406.063 165.252 402.565C181.987 399.067 226.284 393.664 248.009 393.664C269.733 393.664 314.03 399.067 330.747 402.565C347.482 406.08 345.317 398.513 345.317 398.513C325.706 398.513 312.921 388.902 312.159 388.296C319.764 393.387 344.104 390.963 344.104 390.963Z" fill="white"/>
<path d="M285.792 414.964C285.792 418.393 288.564 421.181 292.011 421.181C295.459 421.181 298.213 418.393 298.213 414.964C298.213 411.535 295.441 408.764 292.011 408.764C288.581 408.764 285.792 411.535 285.792 414.964Z" fill="white"/>
<path d="M264.033 411.518C264.033 414.947 266.822 417.735 270.253 417.735C273.683 417.735 276.454 414.947 276.454 411.518C276.454 408.089 273.683 405.318 270.253 405.318C266.822 405.318 264.033 408.089 264.033 411.518Z" fill="white"/>
<path d="M241.772 408.764C241.772 412.193 244.544 414.964 247.991 414.964C251.439 414.964 254.211 412.193 254.211 408.764C254.211 405.336 251.439 402.548 247.991 402.548C244.544 402.548 241.772 405.336 241.772 408.764Z" fill="white"/>
<path d="M219.528 411.518C219.528 414.947 222.3 417.735 225.73 417.735C229.16 417.735 231.949 414.947 231.949 411.518C231.949 408.089 229.16 405.318 225.73 405.318C222.3 405.318 219.528 408.089 219.528 411.518V411.518Z" fill="white"/>
<path d="M116.936 359.377C117.802 358.978 173.655 333.436 209.169 324.812C210.433 324.5 210.658 322.803 209.515 322.197C203.937 319.236 189.939 313.833 162.654 314.214C151.982 314.37 141.519 317.227 132.181 322.422L112.328 333.471C106.94 336.466 107.304 344.328 112.969 346.805C113.922 347.22 114.944 347.445 115.966 347.445C117.075 347.445 118.166 347.203 119.188 346.701C130.657 341.159 171.42 322.163 191.706 322.163C191.706 322.163 122.636 343.185 116.936 359.394V359.377Z" fill="white"/>
<path d="M197.787 414.964C197.787 418.393 200.559 421.181 203.989 421.181C207.419 421.181 210.208 418.393 210.208 414.964C210.208 411.535 207.436 408.764 203.989 408.764C200.541 408.764 197.787 411.535 197.787 414.964Z" fill="white"/>
<path d="M130.83 393.664H135.282C140.687 380.711 173.256 376.486 173.256 376.486L181.537 354.372H151.22C137.326 358.597 120.609 368.451 114.043 377.888C113.056 379.308 112.588 380.919 112.588 382.495C112.588 385.577 114.338 388.556 117.439 389.889C120.644 391.257 124.333 390.374 126.672 387.794C133.792 379.897 147.513 373.854 154.061 371.291C143.147 376.693 130.83 393.681 130.83 393.681V393.664Z" fill="white"/>
<path d="M120.713 414.011C132.51 414.011 142.194 405.405 143.286 394.391C139.977 401.231 133.099 405.959 125.13 405.959C113.939 405.959 104.844 396.625 104.844 385.127C104.844 381.3 105.866 377.733 107.633 374.65C101.83 378.581 98.0358 385.04 98.0358 392.348C98.0358 404.314 108.188 414.011 120.713 414.011V414.011Z" fill="white"/>
<path d="M120.488 364.849C122.514 363.654 124.212 362.147 125.65 360.433C124.992 360.952 124.316 361.455 123.554 361.888C114.494 367.256 102.8 364.26 97.4295 355.203C92.0764 346.147 95.0735 334.44 104.134 329.089C104.879 328.657 105.641 328.276 106.403 327.964C104.22 328.379 102.072 329.176 100.063 330.354C90.5346 335.982 87.3817 348.277 93.0119 357.801C98.6422 367.325 110.942 370.477 120.47 364.831L120.488 364.849Z" fill="white"/>
<path d="M91.0543 293.832C91.0543 305.261 100.323 314.509 111.739 314.509C114.164 314.509 116.486 314.076 118.651 313.296C117.785 313.418 116.919 313.504 116.035 313.504C105.173 313.504 96.3554 304.69 96.3554 293.832C96.3554 282.975 105.156 274.16 116.035 274.16C116.919 274.16 117.802 274.23 118.651 274.351C116.503 273.589 114.182 273.156 111.739 273.156C100.323 273.156 91.0543 282.421 91.0543 293.832Z" fill="white"/>
<path d="M92.6308 329.297L99.2485 323.236V316.483L92.6308 311.773V329.297Z" fill="white"/>
<path d="M91.0197 390.149C91.0197 390.149 80.4868 379.36 80.4868 349.662V304.067L74.2848 293.815L73.384 352.9C73.384 352.9 74.2848 391.222 92.6308 402.547L91.0197 390.149V390.149Z" fill="white"/>
<path d="M88.7156 416.47C87.7801 415.587 86.8446 414.669 85.9264 413.769C68.7931 412.262 64.4794 401.976 64.2196 401.335C67.4938 408.331 83.016 410.773 83.016 410.773C77.9228 405.37 73.4359 399.673 69.7979 393.924C65.6228 387.309 63.2321 372.278 61.9155 354.926C58.5027 358.719 54.241 367.169 52.422 385.975C49.1825 419.57 88.7156 416.47 88.7156 416.47Z" fill="white"/>
<path d="M61.7077 224.686C64.133 214.885 67.5112 201.17 71.2011 185.896C61.6384 192.217 15.2797 224.842 15.2797 262.437C15.2797 279.633 22.8502 292.897 37.8007 301.85C48.1431 308.05 58.6587 309.972 60.4777 310.266C60.4777 309.002 60.4777 307.738 60.4777 306.491V302.041C60.5296 295.98 60.6336 290.49 60.7202 285.919C20.3036 263.303 51.0188 217.95 51.5905 217.084C46.7225 228.046 44.3145 237.172 43.5522 244.722C48.888 235.613 61.3092 224.981 61.6903 224.652C49.8755 238.263 45.2846 248.358 43.5176 254.679C45.4059 272.429 57.8444 278.299 60.8761 279.494C61.0147 274.732 61.136 271.944 61.136 271.944C51.4173 267.996 57.8964 239.925 57.8964 239.925C57.8964 239.925 59.3516 234.124 61.6903 224.652L61.7077 224.686Z" fill="white"/>
<path d="M200.563 89.0667C200.503 75.8967 184.513 74.2083 197.098 57.2262C199.325 54.0894 199.573 50.2847 198.193 46.9229C196.528 52.8812 192.77 58.0066 189.058 62.9519C187.378 65.1807 185.615 67.6195 185.593 70.4186C185.593 78.1105 197.345 81.2322 196.813 89.0742C196.813 89.0742 198.995 87.003 200.563 89.0742V89.0667Z" fill="#0B0D20"/>
<path d="M227.27 87.7309C226.64 83.1683 216.958 72.7449 215.12 81.3148C212.653 92.1434 199.61 97.9967 198.14 109.238C197.383 101.051 205.955 94.0345 204.838 85.8848C203.983 79.6488 197.563 74.6285 198.5 68.415C198.5 68.37 198.515 68.3324 198.53 68.2949C201.575 58.7946 213.988 53.4515 213.913 41.7224C213.913 40.9645 212.885 40.7169 212.548 41.3997C208.49 49.6394 200.533 55.5452 195.47 63.2146C194.15 65.2182 193.663 67.6721 194.165 70.0134C196.198 79.5213 209.578 87.7009 195.905 103.4C198.553 98.7471 199.888 94.965 200.36 91.7982C200.353 91.7907 198.725 89.8171 195.928 91.7982C193.423 99.0323 188.735 110.191 183.793 113.831C183.778 113.846 183.755 113.853 183.74 113.868C182.48 114.671 180.928 115.279 180.283 116.6C180.23 116.705 180.208 116.817 180.208 116.93C180.253 129.312 205.55 114.559 209.008 109.643C209.03 109.613 209.053 109.576 209.068 109.546C212.233 103.115 211.438 102.889 218.63 100.773C218.66 100.766 218.69 100.758 218.713 100.743C222.395 99.1974 227.285 91.8657 227.278 87.836C227.278 87.7984 227.278 87.7684 227.278 87.7309H227.27ZM202.243 107.189C205.588 96.5559 215.63 94.6048 219.035 81.8551C220.633 93.6067 206.743 98.0942 202.243 107.189Z" fill="#0B0D20"/>
<path d="M213.38 79.5737L206.518 86.8528C206.638 87.971 205.693 93.8768 205.693 93.8768C214.903 86.4026 213.388 79.5812 213.388 79.5812L213.38 79.5737Z" fill="#0B0D20"/>
<path d="M211.003 64.0476C211.003 64.0476 223.483 52.3785 217.55 44.2739C217.55 44.2739 213.358 53.3916 208.805 57.9466L211.003 64.0476Z" fill="#0B0D20"/>
<path d="M211.64 65.5033L213.335 69.6532C213.335 69.6532 221.51 62.3366 219.508 54.4946C219.508 54.4946 213.658 64.2501 211.633 65.4958L211.64 65.5033Z" fill="#0B0D20"/>
<path d="M215.735 74.8687C215.735 74.8687 218.428 71.1991 217.85 66.5615L214.025 71.1316L215.728 74.8687H215.735Z" fill="#0B0D20"/>
<path d="M208.303 62.5391L207.718 59.1997L201.365 66.2912C200.113 67.687 199.648 69.6156 200.113 71.4241L200.668 73.5703L206.758 67.4544C208.04 66.1636 208.618 64.3251 208.303 62.5316V62.5391Z" fill="#0B0D20"/>
<path d="M208.085 75.3489C211.19 72.2421 212.803 70.231 212.803 70.231C212.803 70.231 211.64 68.0998 209.195 68.4825C208.363 68.6101 207.598 69.0228 206.99 69.6157L201.485 74.9437C201.485 74.9437 204.988 78.4557 208.093 75.3489H208.085Z" fill="#0B0D20"/>
<path d="M213.748 73.3677C213.68 72.9024 213.56 72.4297 213.38 71.9419L208.55 76.7746C208.55 76.7746 205.835 79.7238 206.66 84.9993L211.895 79.2435C213.343 77.6526 214.055 75.4989 213.74 73.3752L213.748 73.3677Z" fill="#0B0D20"/>
<path d="M234.245 71.9719C236.188 73.8555 238.625 74.7935 241.535 74.7935C243.77 74.7935 244.738 74.1481 244.738 73.3227C244.738 72.5872 243.65 72.0845 240.448 70.9138C237.418 69.7657 235.888 67.8521 235.888 65.1806C235.888 63.3871 236.623 61.8562 238.123 60.5955C239.623 59.3273 241.535 58.7119 243.853 58.7119C246.943 58.7119 249.32 59.4773 250.993 60.9782L249.905 66.1861C248.263 64.4226 245.818 63.6872 243.965 63.6872C242.113 63.6872 241.318 64.19 241.318 64.8654C241.318 65.3382 241.73 65.7809 242.465 66.1561L243.553 66.6289C243.875 66.779 244.318 66.9215 244.843 67.1317L246.05 67.5744C248.9 68.7226 250.31 70.5461 250.31 73.045C250.31 74.9886 249.545 76.602 248.015 77.9002C246.485 79.1685 244.37 79.8138 241.633 79.8138C237.838 79.8138 235.018 78.9583 233.105 77.2549L234.223 71.9869L234.245 71.9719Z" fill="#0B0D20"/>
<path d="M253.558 79.4986L256.7 64.0549H251.173L252.2 58.9971H268.723L267.695 64.0549H262.288L259.145 79.4986H253.558Z" fill="#0B0D20"/>
<path d="M265.49 79.4986L269.668 58.9971H284.78L283.753 64.0249H274.228L273.643 66.8465H282.523L281.615 71.4316H272.735L272.09 74.5459H281.848L280.85 79.4836H265.505L265.49 79.4986Z" fill="#0B0D20"/>
<path d="M282.807 79.4986L286.985 58.9971H295.595C297.62 58.9971 299.27 59.6124 300.53 60.8506C301.82 62.0588 302.473 63.6122 302.473 65.5258C302.473 67.6419 301.678 69.5255 300.095 71.1464C298.535 72.7673 296.6 73.5553 294.305 73.5553H289.603L288.395 79.4986H282.807ZM290.63 68.4974H294.478C295.798 68.4974 296.885 67.2592 296.885 65.9685C296.885 64.8804 296.06 64.0549 294.883 64.0549H291.53L290.623 68.4974H290.63Z" fill="#0B0D20"/>
<path d="M233.57 104.06L237.748 83.5583H252.56L251.533 88.5862H242.3L241.655 91.7605H250.033L249.065 96.4957H240.688L239.158 104.052H233.57V104.06Z" fill="#0B0D20"/>
<path d="M252.268 104.06H246.388L262.175 82.1777L269.083 104.06H263.675L262.91 101.381H254.15L252.268 104.06ZM257.03 97.0586H261.823L260.443 92.1734L257.03 97.0586Z" fill="#0B0D20"/>
<path d="M269.848 104.06L274.025 83.5583H282.725C284.698 83.5583 286.28 84.1437 287.518 85.3519C288.785 86.53 289.4 88.0309 289.4 89.8844C289.4 91.3553 288.988 92.736 288.133 94.0643C287.278 95.355 286.16 96.3306 284.78 96.9759L288.133 104.067H282.05L279.17 97.6813H276.733L275.443 104.067H269.855L269.848 104.06ZM277.64 93.2088H281.195C282.605 93.2088 283.723 91.9406 283.723 90.6198C283.723 89.4417 282.898 88.6162 281.638 88.6162H278.578L277.64 93.2013V93.2088Z" fill="#0B0D20"/>
<path d="M288.95 104.06L293.27 82.7629L301.858 94.1168L315.793 82.5002L311.413 104.06H306.208L308.06 94.9423L300.92 101.058L296.098 94.4695L294.155 104.06H288.95Z" fill="#0B0D20"/>
</svg>
