<svg width="375" height="519" viewBox="0 0 375 519" fill="none" xmlns="http://www.w3.org/2000/svg">
<g clip-path="url(#clip0_0_1399)">
<rect width="375" height="519" fill="#37E4E5"/>
<path d="M0 383L375 520H0V383Z" fill="#FCFCFD"/>
<path d="M31.0205 181.144C39.3405 188.568 51.6285 192.28 68.1405 192.28C80.0445 192.28 89.2605 189.464 95.9165 183.96C102.573 178.328 105.901 171.288 105.901 162.84C105.901 151.96 99.7565 144.024 87.3405 139.032L82.0925 137.112C79.7885 136.216 77.8685 135.576 76.4605 134.936L71.7245 132.888C68.5245 131.224 66.7325 129.304 66.7325 127.256C66.7325 124.312 70.5725 122.136 78.2525 122.136C86.3165 122.136 96.9405 125.336 104.109 133.016L108.845 110.36C101.549 103.832 91.1805 100.504 77.7405 100.504C67.6285 100.504 59.3085 103.192 52.7805 108.696C46.2525 114.2 43.0525 120.856 43.0525 128.664C43.0525 140.312 49.7085 148.632 62.8925 153.624C76.8445 158.744 81.5805 160.92 81.5805 164.12C81.5805 167.704 77.3565 170.52 67.6285 170.52C54.9565 170.52 44.3325 166.424 35.8845 158.232L31.0205 181.144ZM146.889 191L160.585 123.8H184.137L188.617 101.784H116.681L112.2 123.8H136.265L122.569 191H146.889ZM243.947 191L248.299 169.496H205.803L208.619 155.928H247.275L251.243 135.96H212.587L215.147 123.672H256.619L261.099 101.784H195.307L177.131 191H243.947ZM279.421 191L284.669 165.144H305.149C315.133 165.144 323.581 161.688 330.365 154.648C337.277 147.608 340.733 139.416 340.733 130.2C340.733 121.88 337.917 115.096 332.285 109.848C326.781 104.472 319.613 101.784 310.781 101.784H273.277L255.101 191H279.421ZM293.117 123.8H307.709C312.829 123.8 316.413 127.384 316.413 132.12C316.413 137.752 311.677 143.128 305.917 143.128H289.149L293.117 123.8ZM29.5105 299L36.1665 266.104H72.6465L76.8705 245.496H40.3905L43.2065 231.672H83.3985L87.8785 209.784H23.3665L5.1905 299H29.5105ZM97.2785 287.352H135.423L138.751 299H162.303L132.223 203.768L63.4865 299H89.0865L97.2785 287.352ZM124.671 247.288L130.687 268.536H109.823L124.671 247.288ZM192.451 299L198.083 271.224H208.707L221.251 299H247.747L233.155 268.152C239.171 265.336 244.035 261.112 247.747 255.48C251.459 249.72 253.251 243.704 253.251 237.304C253.251 229.24 250.563 222.712 245.059 217.592C239.683 212.344 232.771 209.784 224.195 209.784H186.307L168.131 299H192.451ZM206.147 231.8H219.459C224.963 231.8 228.547 235.384 228.547 240.504C228.547 246.264 223.683 251.768 217.539 251.768H202.051L206.147 231.8ZM276.507 299L284.955 257.272L305.947 285.944L337.051 259.32L328.987 299H351.643L370.715 205.176L310.043 255.736L272.667 206.328L253.851 299H276.507Z" fill="white" fill-opacity="0.44"/>
<path d="M139.184 176.727L139.132 176.878C139.132 176.878 139.136 176.882 139.14 176.886C139.251 176.93 139.291 176.672 139.184 176.727Z" fill="#0B0D20"/>
<path d="M112.917 258.46C112.154 253.22 112.186 248.164 112.973 243.227C113.394 240.562 114.037 237.912 114.025 235.215C114.009 230.89 112.309 226.644 112.706 222.338C114.891 224.546 115.368 228.24 115.757 231.712C119.491 233.618 123.594 234.878 127.415 236.685C131.236 238.488 134.982 241.07 136.662 244.947C136.102 242.818 135.669 240.462 135.931 238.182C136.189 235.938 137.087 233.829 137.973 231.756C138.691 230.075 139.41 228.399 140.129 226.719C140.884 224.955 141.643 223.188 142.588 221.52C147.196 213.393 156.506 208.17 165.84 208.468C164.661 207.455 163.139 206.581 161.566 205.806C158.603 205.739 154.878 206.942 151.092 206.859C143.414 206.688 136.717 201.334 129.091 200.428C125.528 200.007 121.854 200.595 118.605 202.112C114.422 204.067 111.098 207.423 107.463 210.267C101.621 214.839 94.8045 218.167 87.6072 219.963C86.5466 219.557 85.4583 219.18 84.4216 218.692C86.0899 218.231 87.3927 217.877 88.6995 217.524C92.9972 216.356 97.4499 215.109 100.822 212.205C102.169 211.045 103.297 209.659 104.528 208.38C109.31 203.419 115.65 200.17 122.243 198.164C115.411 195.733 109.04 192.107 102.737 188.476C98.4866 186.026 94.1968 183.531 90.6458 180.147C87.0948 176.763 84.2905 172.358 83.7622 167.48C85.6212 170.014 87.345 172.783 89.331 175.357C91.317 177.931 93.6089 180.346 96.437 181.946C95.2772 178.217 95.4202 174.336 96.6634 170.84C97.6246 170.809 98.3992 171.067 99.0943 171.464C97.7875 174.07 97.7359 177.148 97.708 180.131C97.6961 181.339 97.6882 182.582 98.1172 183.714C105.97 188.659 114.51 192.909 123.467 195.94C128.404 197.608 133.48 198.915 138.223 201.076C140.372 202.053 142.457 203.209 144.729 203.844C148.328 204.849 152.149 204.48 155.867 204.106C160.577 203.63 165.288 203.157 169.983 202.557C187.877 200.273 205.545 196.194 222.625 190.391C228.73 188.317 234.763 186.026 240.634 183.368C256.192 176.326 270.583 166.714 283.043 155.036C285.609 154.694 288.703 154.186 291.384 152.962C294.069 151.739 296.393 149.848 298.542 147.83C303.853 142.846 308.297 136.943 311.622 130.461C312.162 129.404 312.678 128.332 313.286 127.311C313.711 126.596 314.184 125.905 314.657 125.218C316.154 123.037 317.647 120.856 319.145 118.68C320.023 119.899 319.133 121.814 318.2 123.351C317.02 125.289 315.741 127.172 314.371 128.983C315.987 127.668 317.056 126.759 318.124 125.853C319.336 124.824 320.603 123.768 322.132 123.335C319.991 126.866 317.183 129.921 313.882 132.292C313.103 132.852 312.289 133.38 311.634 134.083C310.899 134.874 310.395 135.847 309.862 136.788C307.956 140.157 305.537 143.239 302.721 145.896C305.612 147.31 308.285 149.348 311.189 148.835C312.98 148.522 314.454 147.274 315.709 145.96C322.005 139.346 324.773 130.226 327.343 121.464C333.226 121.285 338.87 122.723 344.451 124.149C316.964 115.268 288.374 107.975 259.58 101.612C248.471 99.1572 237.297 96.8336 225.961 95.916C240.805 97.8146 254.862 101.191 268.505 105.798C268.315 106.652 267.926 107.304 267.417 107.852C264.41 113.373 259.89 118.775 255.203 124.01C250.286 129.504 245.158 134.846 239.375 139.426C215.344 158.448 183.139 162.253 153.738 170.892C148.363 172.469 142.87 174.328 138.719 178.089L139.132 176.89C139.033 176.842 139.029 176.695 139.045 176.58C139.47 173.955 141.535 171.663 144.105 170.968C142.723 170.65 141.615 170.229 140.527 169.808C136.65 168.318 132.773 166.825 128.896 165.335C123.491 163.258 117.914 161.145 112.127 161.292C109.386 161.363 106.661 161.947 104.135 163.008C102.76 163.584 101.267 164.314 99.849 163.85C100.802 162.09 101.954 160.251 103.817 159.484C104.381 159.25 104.985 159.131 105.585 159.016C106.947 158.754 108.337 158.519 109.719 158.63C106.145 156.954 102.943 154.555 99.7735 152.176C98.848 151.481 97.9027 150.766 97.2751 149.789C99.6107 150.972 101.887 152.478 104.254 153.808C110.256 157.189 116.877 159.465 123.685 160.485C123.395 156.946 123.002 153.276 121.568 149.952C120.71 147.954 119.332 145.995 117.27 145.312C117.985 146.782 117.326 148.486 116.118 149.439C114.911 150.392 113.27 150.663 111.749 150.46C110.224 150.257 108.794 149.622 107.432 148.911C104.186 147.219 101.049 144.887 99.6146 141.523C100.254 141.932 101.112 142.254 102.002 142.385C103.468 140.16 105.124 137.888 105.45 135.235C105.581 134.171 105.489 133.094 105.41 132.026C105.207 129.241 105.144 126.254 106.625 123.891C102.562 116.086 97.3307 109.127 91.1065 103.213C89.9705 102.132 88.771 101.068 87.3331 100.444C86.7452 100.19 86.0938 100.011 85.4662 100.142C84.1753 100.404 83.4921 101.795 83.0274 103.026C79.5082 112.376 77.7764 122.39 77.9472 132.379C76.696 134.016 75.5878 135.775 74.4836 137.531C74.3446 137.753 74.1976 137.992 74.2055 138.258C74.2135 138.576 74.4319 138.838 74.6464 139.076C76.1399 140.728 77.7724 142.258 79.5201 143.636C79.8617 143.906 80.2311 144.18 80.6601 144.24C80.9262 144.279 81.2043 144.228 81.4386 144.105C82.1893 143.708 82.3522 142.635 81.9947 141.864C81.6412 141.094 80.9183 140.562 80.2073 140.097C79.4963 139.632 78.7416 139.179 78.261 138.48C77.836 137.865 77.685 136.971 78.1656 136.399C78.5986 135.891 79.393 135.831 80.0166 136.077C80.6363 136.327 81.1248 136.816 81.5895 137.297C82.1019 137.825 82.6104 138.727 82.0424 139.191C81.0454 138.19 79.8657 137.376 78.5787 136.8C79.1547 138.997 81.1248 140.756 83.369 141.078C83.7344 141.13 84.1475 141.134 84.4176 140.887C84.6401 140.685 84.7076 140.363 84.7433 140.061C84.8824 138.889 84.7314 137.686 84.3064 136.59C83.9926 135.775 83.5279 135.017 83.2737 134.179C82.7931 132.594 83.0989 130.874 83.5835 129.289C84.3183 126.89 85.4583 124.614 86.9438 122.588C86.1772 121.218 85.7999 120.09 85.4305 118.982C84.8824 117.329 84.3223 115.597 84.6043 113.882C87.7462 121.289 92.3061 128.173 98.284 133.92C90.2605 140.351 84.2468 149.249 81.093 159.214L81.1129 159.151C67.4491 154.746 17.1592 143.402 17.1592 143.402L80.7355 160.394C85.6807 161.327 90.5743 162.523 95.4639 163.723C104.353 165.899 113.243 168.08 122.017 170.423C118.954 170.229 115.888 170.038 112.826 169.843C112.134 169.8 111.169 170.022 111.233 170.709C111.265 171.051 111.57 171.289 111.848 171.488C112.329 171.83 112.814 172.175 113.294 172.517C113.545 172.695 113.827 172.977 113.703 173.255C113.608 173.47 113.334 173.53 113.1 173.545C111.153 173.677 109.259 172.977 107.42 172.33C98.6097 169.22 89.4899 166.984 80.239 165.673C56.7723 157.475 33.0513 151.616 8.92119 145.658C5.96997 144.931 3.01477 144.2 0 143.819C11.8565 146.73 23.6018 150.091 35.2041 153.892C39.6846 155.357 44.1492 156.891 48.6812 158.19C58.945 161.133 69.6139 162.888 79.389 167.19C79.822 169.192 80.9699 171.13 81.7961 173.112C82.4832 174.761 82.9599 176.493 83.516 178.189C86.3798 186.903 91.4044 194.716 96.3814 202.422C95.4082 201.918 94.5662 201.346 93.7837 200.702C93.2713 200.281 92.7788 199.824 92.3776 199.288C91.9049 198.657 91.5792 197.934 91.2217 197.231C90.2327 195.268 89.0172 193.421 87.6111 191.733C88.199 192.865 88.3698 193.962 88.5366 195.042C88.6677 195.912 88.8027 196.782 88.9338 197.656C89.1682 199.201 89.4025 200.802 89.0014 202.311C88.4413 200.23 87.9567 198.224 87.4721 196.214C86.3202 202.212 85.2041 208.372 84.0919 214.529C83.8774 215.709 83.6669 216.94 84.0204 218.084C72.712 212.026 60.367 208.186 48.1132 204.384C45.1104 203.451 42.048 202.51 38.9061 202.545C50.4051 207.498 62.6985 210.033 74.0625 214.97C76.6523 216.094 79.1825 217.341 81.7166 218.584C85.5497 220.471 89.3827 222.354 93.2157 224.24C92.8503 224.419 92.4888 224.598 92.1234 224.773C93.9664 226.683 95.9127 228.495 97.9503 230.199C88.9219 226.906 79.818 223.347 70.8055 219.577C62.5158 216.11 54.1507 212.42 45.2256 211.379C48.8918 212.575 52.0972 213.75 55.2987 214.926C58.5994 216.138 61.8962 217.349 65.197 218.56C71.4887 220.872 77.8161 223.196 83.659 226.477C85.1366 236.208 87.913 245.805 90.6855 255.365C91.468 258.07 92.2902 260.855 94.0458 263.055C93.1482 262.849 92.5365 262.559 92.0439 262.13C91.1939 261.387 90.7411 260.299 90.3161 259.25C89.8792 258.17 89.4423 257.089 89.0053 256.009L88.8822 256.017C89.0411 255.929 88.632 256.025 88.632 256.025C88.632 256.025 84.0204 257.216 81.3592 257.808C80.9421 257.903 80.4972 257.995 80.0961 257.84C79.4208 257.582 79.1825 256.779 78.8607 256.136C78.539 255.488 77.7526 254.869 77.1607 255.282C76.9224 255.449 76.8032 255.739 76.7159 256.017C76.2074 257.602 76.2074 259.349 76.7159 260.934C76.9065 261.53 77.1687 262.126 77.121 262.745C77.0694 263.437 76.6404 264.036 76.4696 264.708C76.3107 265.335 76.3782 265.995 76.4815 266.634C76.7675 268.39 77.2918 270.106 78.0465 271.718C78.1895 272.02 78.404 272.366 78.7376 272.37C79.1467 272.378 79.3573 271.897 79.4645 271.5C79.9928 269.514 80.5171 267.532 81.0454 265.546C83.5001 268.926 86.2209 272.389 89.9626 274.423C93.7082 276.457 98.7885 276.675 101.914 273.78C102.764 272.993 103.424 272.032 104.039 271.055C106.939 266.467 109.056 261.391 110.28 256.1C111.36 256.871 112.214 257.606 112.925 258.464L112.917 258.46Z" fill="#0B0D20"/>
<path d="M138.795 244.319C138.91 244.613 139.057 244.919 139.327 245.078C139.732 245.32 140.252 245.157 140.677 244.951C141.73 244.43 142.759 243.616 143.926 243.751C142.008 242.829 140.034 241.86 138.648 240.244C138.219 241.598 138.302 243.036 138.795 244.315V244.319Z" fill="#0B0D20"/>
<path d="M158.425 254.468C161.491 261.868 166.353 268.62 172.855 273.299C176.128 275.655 179.77 277.458 183.516 278.955C206.192 288.016 232.773 286.069 253.757 298.557C255.032 292.46 256.689 287.757 258.349 283.055C259.211 280.608 260.089 278.137 261.475 275.941C262.861 273.748 264.828 271.822 267.282 270.976C263.747 270.296 260.26 268.898 256.852 267.452C236.161 258.674 216.408 247.572 198.586 233.877C195.837 231.764 193.101 229.571 189.967 228.09C187.333 226.846 184.326 226.036 182.44 223.82C181.431 222.636 180.847 221.154 180.052 219.816C177.494 215.51 172.923 212.873 168.688 210.525C161.165 209.349 153.364 212.702 148.125 218.223C142.882 223.744 140.002 231.188 139.129 238.921C143.47 241.837 148.002 244.828 153.174 245.356C152.586 240.522 152.034 235.406 154.028 230.961C154.028 239.036 155.366 247.072 158.433 254.472L158.425 254.468ZM168.796 225.547C170.591 226.457 172.621 226.759 174.535 227.379C178.773 228.745 182.463 231.728 184.692 235.581C180.557 231.243 175.091 229.186 169.693 229.428C169.133 229.452 168.545 229.496 168.045 229.245C167.672 229.059 167.394 228.729 167.135 228.407C164.983 225.706 163.382 222.564 162.46 219.236C164.252 221.627 166.103 224.185 168.8 225.551L168.796 225.547Z" fill="#0B0D20"/>
<path d="M274.13 301.203C274.754 300.591 275.381 299.968 275.83 299.217C276.303 298.423 276.545 297.517 276.775 296.623C279.083 287.555 280.283 278.014 284.878 270.126C282.376 270.614 279.874 271.103 277.371 271.591C275.167 272.02 272.783 272.433 271.445 271.282C266.742 273.633 262.563 277.311 260.367 282.09C259.612 283.73 259.1 285.47 258.591 287.205C257.487 290.971 256.383 294.736 255.279 298.502C256.168 298.911 257.312 299.586 258.452 300.262C259.517 300.889 260.581 301.521 261.578 302.252C263.838 303.916 265.697 306.081 267.258 308.412C269.554 305.703 271.842 303.455 274.13 301.207V301.203Z" fill="#0B0D20"/>
<path d="M273.768 233.305C283.464 237.011 293.255 240.47 302.895 243.803C300.488 248.994 297.843 254.078 294.967 259.028C292.969 262.467 290.705 265.998 287.313 267.853C282.975 279.217 279.563 290.935 277.554 302.668C274.928 305.588 272.144 308.364 269.057 311.411C270.4 312.142 271.186 313.568 271.941 314.894C273.069 316.88 274.281 318.823 275.75 320.57C277.037 322.096 278.515 323.462 280.135 324.622C281.16 325.353 282.304 326.024 283.69 326.064C283.496 322.437 285.065 318.914 287.202 315.979C289.339 313.043 292.04 310.573 294.514 307.915C299.217 302.867 303.145 297.1 306.45 290.947C304.381 298.176 299.726 304.345 295.027 310.211C292.639 313.19 290.189 316.177 288.528 319.613C286.864 323.049 286.038 327.045 287.071 330.723C288.354 335.283 292.226 338.615 296.254 341.13C276.33 336.435 145.122 305.417 108.166 294.446C108.166 294.446 159.088 314.998 296.512 341.292C300.186 343.552 304.19 345.399 308.46 345.999C312.75 346.603 317.349 345.844 320.845 343.29C325.552 339.851 327.55 333.873 328.988 328.22C331.212 319.474 332.741 310.549 333.555 301.56C334.282 293.517 334.469 285.275 336.9 277.871C339.505 270.09 341.221 262.011 341.333 253.224C352.546 256.271 363.842 259 375 261.296C342.675 248.39 307.626 243.854 273.76 233.305H273.768ZM317.099 285.497C315.054 295.308 310.116 304.229 306.347 313.516C302.581 322.803 299.952 333.174 302.776 342.79C298.784 338.282 298.196 331.914 299.285 326.135C300.373 320.352 302.959 314.978 305.41 309.627C309.54 300.607 313.389 291.316 314.803 281.497C316.488 269.796 314.633 257.828 311.383 246.46C312.801 246.039 313.755 246.059 314.688 246.142C317.242 259.131 319.796 272.536 317.095 285.497H317.099Z" fill="#0B0D20"/>
<path d="M341.341 240.871C341.242 239.397 341.305 237.92 341.265 236.446C341.099 229.88 338.95 223.505 336.098 217.591C334.775 214.854 333.25 212.129 330.942 210.147C328.634 208.169 325.389 207.049 322.486 207.955C318.911 209.071 316.861 212.777 315.586 216.296C313.211 222.842 312.25 229.892 312.77 236.836L310.685 236.248C310.748 236.279 310.562 236.216 310.367 236.148C310.367 236.148 310.371 236.144 310.371 236.14C309.759 232.673 310.299 229.106 311.09 225.674C311.88 222.226 312.929 218.806 314.645 215.708C310.073 221.253 307.146 228.173 306.037 235.382C291.142 231.374 275.949 228.395 260.633 226.286C287.099 232.744 312.929 239.135 338.759 245.53C349.416 248.168 360.073 250.805 370.794 253.172C367.282 251.993 364.16 250.702 360.649 249.522C354.337 247.401 347.994 245.276 341.44 244.116C341.571 243.064 341.408 241.971 341.337 240.871H341.341Z" fill="#0B0D20"/>
<path d="M106.585 134.958C106.946 136.344 107.693 137.603 108.587 138.719C109.679 140.082 111.01 141.253 112.519 142.127C114.06 143.017 115.788 143.593 117.556 143.8C118.477 143.907 119.466 143.903 120.265 143.43C121.007 142.989 121.48 142.191 121.714 141.357C121.945 140.527 121.961 139.649 121.977 138.787C122.02 136.193 122.044 133.512 121.047 131.117C120.952 130.89 120.849 130.632 120.952 130.41C121.003 130.295 121.107 130.207 121.154 130.092C121.242 129.878 121.127 129.635 121.011 129.433C120.598 128.702 120.181 127.971 119.768 127.24C117.778 128.638 114.811 128.702 112.714 127.3C112.789 127.963 112.761 128.642 112.626 129.298C112.603 129.417 112.571 129.544 112.483 129.627C112.372 129.735 112.197 129.746 112.043 129.75C111.379 129.762 110.716 129.739 110.053 129.683C110.354 131.105 110.656 132.523 110.962 133.945C110.561 134.032 110.064 134.088 109.818 133.758C109.647 133.528 109.679 133.186 109.496 132.96C109.234 132.634 108.658 132.769 108.424 133.119C108.19 133.468 108.206 133.925 108.261 134.338C108.424 135.569 108.873 136.785 109.675 137.73C108.924 137.579 108.321 136.987 107.979 136.304C107.638 135.621 107.518 134.847 107.427 134.088C107.367 133.572 107.32 133.039 107.467 132.539C107.614 132.038 107.995 131.578 108.507 131.486C109.02 131.395 109.266 132.03 109.564 132.328C109.139 131.192 109.016 129.941 109.206 128.742C109.226 128.622 109.254 128.491 109.353 128.42C109.457 128.344 109.596 128.368 109.723 128.392C110.485 128.535 111.252 128.682 112.015 128.825C111.951 127.951 112.054 127.069 112.305 126.235C112.317 126.239 112.332 126.247 112.344 126.251C114.017 126.644 115.737 126.815 117.452 126.756C118.088 126.736 118.807 126.632 119.16 126.104C118.215 124.738 116.916 123.586 115.419 122.823C113.703 121.949 111.594 121.608 109.858 122.442C108.38 123.149 107.379 124.615 106.875 126.176C106.37 127.733 106.307 129.397 106.279 131.033C106.255 132.352 106.255 133.687 106.585 134.962V134.958Z" fill="#0B0D20"/>
<path d="M106.188 137.072C105.326 139.407 103.98 141.564 102.244 143.28C103.261 144.082 104.278 144.889 105.299 145.691C105.886 146.156 106.478 146.62 107.154 146.942C107.769 147.236 108.44 147.399 109.108 147.526C110.51 147.792 111.98 147.899 113.354 147.51C114.728 147.121 115.999 146.168 116.345 144.702C112.015 143.947 108.119 141.02 106.192 137.068L106.188 137.072Z" fill="#0B0D20"/>
<path d="M327.494 113.008C328.249 110.744 326.573 108.174 324.321 107.396C322.068 106.617 319.518 107.304 317.516 108.599C317.365 105.477 315.487 102.494 312.738 101.005C309.989 99.515 306.462 99.5746 303.765 101.155C302.729 98.8597 301.676 96.536 300.083 94.5897C298.49 92.6434 296.262 91.0824 293.76 90.8322C291.42 90.6018 289.065 91.5511 287.261 93.0645C286.88 93.3822 286.495 93.7397 286.01 93.835C285.017 94.0336 284.211 93.1082 283.385 92.5243C281.665 91.3048 279.254 91.4796 277.363 92.4091C275.472 93.3385 273.979 94.9035 272.533 96.4327C272.438 96.532 272.342 96.6353 272.247 96.7346C265.928 94.2918 259.135 92.9969 252.383 91.714C250.206 91.3009 248.026 90.8838 245.849 90.4707C242.516 89.8352 239.168 89.1997 235.78 89.0249C275.89 99.8725 316.19 110.887 356.347 122.386C347.41 118.43 337.567 115.201 327.498 113.012L327.494 113.008Z" fill="#0B0D20"/>
<path d="M23.1251 188.143C23.1251 188.143 51.692 199.658 57.9916 203.24C57.9916 203.24 41.0469 191.185 23.1251 188.143Z" fill="white"/>
<path d="M158.138 88C158.138 88 215.053 103.856 241.555 106.899L158.138 88Z" fill="white"/>
<path d="M158.353 300.456C158.353 300.456 211.848 317.619 269.061 330.433C269.061 330.433 204.19 310.446 158.353 300.456Z" fill="#0B0D20"/>
<path d="M221.353 204.654C221.353 204.654 254.178 218.775 298.808 226.377L221.353 204.654Z" fill="white"/>
</g>
<defs>
<clipPath id="clip0_0_1399">
<rect width="375" height="519" fill="white"/>
</clipPath>
</defs>
</svg>
