<svg width="1440" height="880" viewBox="0 0 1440 880" fill="none" xmlns="http://www.w3.org/2000/svg">
<rect width="1440" height="880" fill="#37E4E5"/>
<path d="M407.041 258.288C423.681 273.136 448.257 280.56 481.281 280.56C505.089 280.56 523.521 274.928 536.833 263.92C550.145 252.656 556.801 238.576 556.801 221.68C556.801 199.92 544.513 184.048 519.681 174.064L509.185 170.224C504.577 168.432 500.737 167.152 497.921 165.872L488.449 161.776C482.049 158.448 478.465 154.608 478.465 150.512C478.465 144.624 486.145 140.272 501.505 140.272C517.633 140.272 538.881 146.672 553.217 162.032L562.689 116.72C548.097 103.664 527.361 97.008 500.481 97.008C480.257 97.008 463.617 102.384 450.561 113.392C437.505 124.4 431.105 137.712 431.105 153.328C431.105 176.624 444.417 193.264 470.785 203.248C498.689 213.488 508.161 217.84 508.161 224.24C508.161 231.408 499.713 237.04 480.257 237.04C454.913 237.04 433.665 228.848 416.769 212.464L407.041 258.288ZM638.777 278L666.169 143.6H713.273L722.233 99.568H578.361L569.401 143.6H617.529L590.137 278H638.777ZM832.893 278L841.597 234.992H756.605L762.237 207.856H839.549L847.485 167.92H770.173L775.293 143.344H858.237L867.197 99.568H735.613L699.261 278H832.893ZM903.841 278L914.337 226.288H955.297C975.265 226.288 992.161 219.376 1005.73 205.296C1019.55 191.216 1026.47 174.832 1026.47 156.4C1026.47 139.76 1020.83 126.192 1009.57 115.696C998.561 104.944 984.225 99.568 966.561 99.568H891.553L855.201 278H903.841ZM931.233 143.6H960.417C970.657 143.6 977.825 150.768 977.825 160.24C977.825 171.504 968.353 182.256 956.833 182.256H923.297L931.233 143.6ZM404.021 494L417.333 428.208H490.293L498.741 386.992H425.781L431.413 359.344H511.797L520.757 315.568H391.733L355.381 494H404.021ZM539.557 470.704H615.845L622.501 494H669.605L609.445 303.536L471.973 494H523.173L539.557 470.704ZM594.341 390.576L606.373 433.072H564.645L594.341 390.576ZM729.901 494L741.165 438.448H762.413L787.501 494H840.493L811.309 432.304C823.341 426.672 833.069 418.224 840.493 406.96C847.917 395.44 851.501 383.408 851.501 370.608C851.501 354.48 846.125 341.424 835.117 331.184C824.365 320.688 810.541 315.568 793.389 315.568H717.613L681.261 494H729.901ZM757.293 359.6H783.917C794.925 359.6 802.093 366.768 802.093 377.008C802.093 388.528 792.365 399.536 780.077 399.536H749.101L757.293 359.6ZM898.013 494L914.909 410.544L956.893 467.888L1019.1 414.64L1002.97 494H1048.29L1086.43 306.352L965.085 407.472L890.333 308.656L852.701 494H898.013Z" fill="white" fill-opacity="0.44"/>
<path d="M619.359 234.736L619.251 235.052C619.251 235.052 619.259 235.06 619.267 235.069C619.5 235.16 619.583 234.62 619.359 234.736Z" fill="#0B0D20"/>
<path d="M564.373 405.83C562.777 394.862 562.843 384.278 564.489 373.942C565.371 368.363 566.718 362.817 566.693 357.171C566.66 348.117 563.101 339.228 563.932 330.215C568.505 334.838 569.503 342.571 570.318 349.838C578.134 353.829 586.723 356.465 594.722 360.248C602.721 364.023 610.562 369.427 614.079 377.543C612.907 373.086 612 368.155 612.549 363.383C613.089 358.685 614.969 354.27 616.823 349.929C618.328 346.412 619.833 342.903 621.338 339.386C622.918 335.694 624.506 331.994 626.485 328.502C636.13 311.49 655.62 300.556 675.159 301.18C672.69 299.059 669.505 297.23 666.213 295.609C660.01 295.467 652.211 297.987 644.287 297.812C628.214 297.455 614.195 286.246 598.231 284.35C590.773 283.469 583.081 284.7 576.28 287.876C567.524 291.967 560.565 298.993 552.957 304.946C540.726 314.517 526.458 321.484 511.391 325.243C509.171 324.395 506.893 323.605 504.723 322.582C508.215 321.617 510.942 320.877 513.678 320.137C522.674 317.693 531.995 315.082 539.054 309.004C541.873 306.576 544.235 303.674 546.812 300.997C556.823 290.612 570.094 283.81 583.896 279.611C569.595 274.522 556.258 266.931 543.062 259.331C534.165 254.201 525.185 248.979 517.752 241.895C510.319 234.811 504.448 225.59 503.342 215.379C507.234 220.684 510.842 226.479 515 231.867C519.157 237.255 523.955 242.311 529.875 245.662C527.447 237.854 527.746 229.731 530.349 222.414C532.361 222.347 533.982 222.887 535.438 223.719C532.702 229.173 532.594 235.617 532.536 241.862C532.511 244.39 532.494 246.992 533.392 249.362C549.83 259.714 567.707 268.611 586.457 274.955C596.792 278.447 607.419 281.183 617.347 285.706C621.845 287.751 626.21 290.171 630.966 291.501C638.499 293.605 646.498 292.832 654.281 292.05C664.142 291.052 674.004 290.063 683.832 288.807C721.29 284.026 758.274 275.487 794.028 263.339C806.808 258.999 819.438 254.201 831.727 248.638C864.296 233.896 894.421 213.774 920.504 189.329C925.875 188.614 932.353 187.55 937.965 184.989C943.586 182.428 948.45 178.47 952.948 174.246C964.065 163.811 973.37 151.455 980.329 137.885C981.46 135.674 982.541 133.429 983.813 131.292C984.703 129.795 985.692 128.348 986.682 126.91C989.816 122.345 992.943 117.78 996.077 113.224C997.915 115.776 996.052 119.784 994.098 123.002C991.629 127.059 988.951 131.001 986.083 134.792C989.467 132.04 991.704 130.136 993.94 128.24C996.476 126.087 999.129 123.875 1002.33 122.969C997.848 130.36 991.97 136.755 985.06 141.718C983.43 142.891 981.726 143.997 980.354 145.468C978.816 147.123 977.76 149.16 976.646 151.131C972.654 158.182 967.591 164.634 961.696 170.197C967.749 173.157 973.345 177.422 979.423 176.35C983.173 175.693 986.257 173.082 988.885 170.33C1002.06 156.486 1007.86 137.395 1013.24 119.052C1025.55 118.678 1037.37 121.688 1049.05 124.673C991.512 106.081 931.663 90.8153 871.389 77.495C848.132 72.3564 824.743 67.4923 801.012 65.5715C832.085 69.546 861.511 76.6136 890.072 86.2587C889.673 88.0464 888.858 89.4101 887.794 90.5575C881.499 102.115 872.037 113.423 862.226 124.382C851.932 135.881 841.198 147.065 829.091 156.652C778.787 196.471 711.37 204.437 649.824 222.522C638.574 225.823 627.075 229.714 618.386 237.588L619.251 235.077C619.043 234.977 619.035 234.67 619.068 234.428C619.957 228.932 624.281 224.135 629.661 222.68C626.767 222.014 624.447 221.133 622.169 220.252C614.054 217.134 605.939 214.007 597.823 210.889C586.507 206.541 574.833 202.117 562.718 202.425C556.981 202.574 551.277 203.797 545.989 206.017C543.112 207.222 539.986 208.752 537.017 207.779C539.013 204.096 541.424 200.246 545.324 198.642C546.505 198.151 547.768 197.902 549.024 197.66C551.876 197.112 554.786 196.621 557.68 196.854C550.196 193.345 543.495 188.323 536.859 183.342C534.922 181.887 532.943 180.391 531.629 178.345C536.518 180.823 541.283 183.974 546.238 186.76C558.802 193.836 572.663 198.6 586.914 200.737C586.307 193.328 585.484 185.646 582.483 178.686C580.687 174.504 577.801 170.404 573.486 168.974C574.983 172.051 573.602 175.618 571.075 177.613C568.547 179.609 565.113 180.174 561.928 179.75C558.736 179.326 555.742 177.996 552.89 176.508C546.097 172.965 539.528 168.085 536.527 161.042C537.865 161.898 539.661 162.572 541.524 162.846C544.592 158.19 548.059 153.434 548.741 147.88C549.016 145.651 548.824 143.398 548.658 141.161C548.234 135.333 548.101 129.08 551.202 124.133C542.696 107.794 531.746 93.2265 518.716 80.8458C516.338 78.5842 513.827 76.3558 510.817 75.0504C509.587 74.5183 508.223 74.1441 506.909 74.4185C504.207 74.9673 502.777 77.8774 501.804 80.455C494.437 100.028 490.812 120.99 491.17 141.901C488.55 145.327 486.231 149.011 483.919 152.686C483.628 153.151 483.32 153.65 483.337 154.207C483.354 154.872 483.811 155.421 484.26 155.92C487.386 159.379 490.804 162.58 494.462 165.466C495.177 166.031 495.951 166.605 496.849 166.729C497.406 166.812 497.988 166.704 498.478 166.447C500.05 165.615 500.391 163.37 499.642 161.757C498.902 160.144 497.389 159.03 495.901 158.057C494.412 157.084 492.833 156.136 491.826 154.673C490.937 153.384 490.621 151.513 491.627 150.316C492.533 149.252 494.196 149.127 495.502 149.642C496.799 150.166 497.821 151.189 498.794 152.195C499.867 153.301 500.931 155.188 499.742 156.161C497.655 154.066 495.186 152.361 492.492 151.156C493.697 155.754 497.821 159.437 502.519 160.111C503.284 160.219 504.149 160.227 504.714 159.712C505.18 159.288 505.321 158.614 505.396 157.982C505.687 155.529 505.371 153.01 504.482 150.715C503.825 149.011 502.852 147.422 502.32 145.668C501.314 142.35 501.954 138.75 502.968 135.432C504.506 130.41 506.893 125.646 510.003 121.405C508.398 118.537 507.608 116.175 506.835 113.856C505.687 110.397 504.515 106.771 505.105 103.179C511.682 118.686 521.228 133.096 533.741 145.128C516.945 158.589 504.357 177.214 497.755 198.076L497.796 197.943C469.194 188.722 363.92 164.975 363.92 164.975L497.007 200.546C507.358 202.5 517.602 205.002 527.838 207.513C546.446 212.07 565.055 216.635 583.422 221.54C577.012 221.133 570.593 220.734 564.182 220.327C562.735 220.235 560.715 220.701 560.848 222.139C560.914 222.854 561.554 223.353 562.136 223.769C563.142 224.484 564.157 225.207 565.163 225.922C565.687 226.297 566.277 226.887 566.019 227.469C565.82 227.918 565.246 228.043 564.756 228.076C560.681 228.35 556.715 226.887 552.865 225.532C534.423 219.021 515.332 214.34 495.967 211.596C446.843 194.434 397.187 182.17 346.675 169.698C340.497 168.176 334.311 166.646 328 165.848C352.82 171.943 377.407 178.977 401.694 186.934C411.073 190.002 420.419 193.212 429.906 195.931C451.392 202.092 473.725 205.767 494.188 214.772C495.094 218.963 497.497 223.021 499.227 227.17C500.665 230.62 501.663 234.246 502.827 237.796C508.822 256.039 519.34 272.394 529.759 288.525C527.721 287.469 525.959 286.271 524.321 284.924C523.248 284.043 522.217 283.087 521.377 281.964C520.388 280.642 519.706 279.129 518.958 277.657C516.887 273.55 514.343 269.683 511.399 266.149C512.63 268.519 512.988 270.814 513.337 273.076C513.611 274.897 513.894 276.717 514.168 278.547C514.659 281.781 515.149 285.132 514.31 288.292C513.137 283.935 512.123 279.736 511.108 275.528C508.697 288.084 506.361 300.98 504.033 313.868C503.584 316.337 503.143 318.915 503.883 321.31C480.211 308.63 454.368 300.589 428.717 292.632C422.431 290.678 416.02 288.707 409.443 288.782C433.515 299.151 459.249 304.456 483.038 314.791C488.459 317.144 493.755 319.755 499.06 322.357C507.084 326.307 515.108 330.248 523.132 334.198C522.367 334.572 521.61 334.946 520.845 335.312C524.703 339.311 528.777 343.103 533.043 346.67C514.143 339.777 495.086 332.327 476.22 324.436C458.867 317.177 441.356 309.453 422.672 307.274C430.347 309.777 437.057 312.238 443.759 314.699C450.668 317.235 457.569 319.772 464.479 322.308C477.65 327.147 490.895 332.011 503.126 338.879C506.219 359.25 512.031 379.339 517.835 399.352C519.473 405.015 521.194 410.843 524.869 415.45C522.99 415.018 521.71 414.411 520.679 413.513C518.899 411.958 517.952 409.679 517.062 407.484C516.147 405.223 515.233 402.961 514.318 400.699L514.06 400.716C514.393 400.533 513.536 400.733 513.536 400.733C513.536 400.733 503.883 403.227 498.312 404.466C497.439 404.666 496.508 404.857 495.668 404.533C494.254 403.992 493.755 402.312 493.082 400.965C492.408 399.61 490.762 398.313 489.523 399.178C489.024 399.527 488.775 400.134 488.592 400.716C487.528 404.034 487.528 407.692 488.592 411.01C488.991 412.257 489.54 413.504 489.44 414.801C489.332 416.248 488.434 417.504 488.076 418.909C487.744 420.223 487.885 421.603 488.101 422.942C488.7 426.617 489.798 430.209 491.377 433.584C491.677 434.216 492.126 434.94 492.824 434.948C493.681 434.965 494.121 433.959 494.346 433.127C495.452 428.97 496.549 424.821 497.655 420.663C502.794 427.739 508.489 434.99 516.322 439.247C524.163 443.504 534.797 443.961 541.341 437.9C543.12 436.253 544.501 434.241 545.789 432.196C551.859 422.592 556.291 411.966 558.852 400.891C561.114 402.504 562.901 404.042 564.39 405.838L564.373 405.83Z" fill="#0B0D20"/>
<path d="M618.544 376.229C618.785 376.844 619.093 377.484 619.658 377.817C620.506 378.324 621.596 377.983 622.485 377.551C624.689 376.462 626.842 374.757 629.287 375.04C625.271 373.111 621.138 371.082 618.236 367.698C617.338 370.533 617.513 373.543 618.544 376.22V376.229Z" fill="#0B0D20"/>
<path d="M659.636 397.473C666.055 412.964 676.232 427.099 689.843 436.894C696.695 441.824 704.319 445.599 712.16 448.734C759.629 467.7 815.272 463.626 859.199 489.767C861.868 477.004 865.335 467.159 868.811 457.315C870.615 452.193 872.453 447.021 875.355 442.423C878.257 437.833 882.372 433.8 887.511 432.029C880.111 430.608 872.81 427.681 865.676 424.654C822.365 406.279 781.015 383.039 743.707 354.369C737.953 349.946 732.224 345.356 725.664 342.255C720.151 339.652 713.856 337.956 709.907 333.316C707.795 330.838 706.573 327.737 704.91 324.935C699.555 315.922 689.985 310.401 681.121 305.487C665.373 303.025 649.043 310.043 638.075 321.601C627.1 333.158 621.072 348.74 619.242 364.929C628.331 371.032 637.818 377.293 648.644 378.399C647.413 368.28 646.257 357.57 650.431 348.266C650.431 365.17 653.233 381.991 659.652 397.481L659.636 397.473ZM681.346 336.933C685.104 338.837 689.353 339.469 693.361 340.766C702.232 343.626 709.957 349.871 714.621 357.936C705.966 348.856 694.525 344.549 683.225 345.057C682.052 345.107 680.822 345.198 679.774 344.674C678.993 344.283 678.411 343.593 677.87 342.92C673.363 337.266 670.013 330.689 668.084 323.721C671.834 328.726 675.708 334.081 681.354 336.941L681.346 336.933Z" fill="#0B0D20"/>
<path d="M901.846 495.305C903.151 494.025 904.465 492.719 905.404 491.148C906.394 489.485 906.901 487.589 907.383 485.718C912.214 466.735 914.725 446.763 924.345 430.25C919.107 431.273 913.869 432.295 908.63 433.318C904.016 434.216 899.027 435.081 896.225 432.67C886.38 437.592 877.633 445.291 873.035 455.294C871.455 458.728 870.382 462.37 869.318 466.004C867.007 473.886 864.695 481.769 862.384 489.651C864.246 490.507 866.641 491.921 869.027 493.334C871.255 494.648 873.484 495.97 875.571 497.5C880.302 500.984 884.193 505.516 887.461 510.396C892.267 504.726 897.056 500.019 901.846 495.313V495.305Z" fill="#0B0D20"/>
<path d="M901.089 353.172C921.386 360.93 941.882 368.172 962.062 375.148C957.023 386.015 951.485 396.658 945.465 407.018C941.283 414.219 936.544 421.611 929.443 425.494C920.363 449.283 913.221 473.811 909.013 498.373C903.517 504.485 897.689 510.297 891.228 516.674C894.038 518.204 895.685 521.189 897.264 523.966C899.626 528.123 902.162 532.189 905.238 535.848C907.932 539.041 911.025 541.901 914.418 544.329C916.563 545.859 918.958 547.264 921.86 547.347C921.452 539.756 924.737 532.381 929.21 526.236C933.683 520.091 939.337 514.92 944.517 509.357C954.362 498.789 962.585 486.716 969.503 473.836C965.171 488.969 955.426 501.882 945.59 514.163C940.593 520.399 935.463 526.652 931.987 533.844C928.503 541.036 926.774 549.401 928.935 557.101C931.621 566.646 939.728 573.622 948.159 578.885C906.452 569.057 631.79 504.127 554.429 481.162C554.429 481.162 661.024 524.182 948.7 579.226C956.391 583.957 964.772 587.824 973.711 589.079C982.691 590.343 992.319 588.755 999.636 583.409C1009.49 576.208 1013.67 563.694 1016.68 551.862C1021.34 533.553 1024.54 514.87 1026.24 496.053C1027.77 479.216 1028.16 461.963 1033.24 446.464C1038.7 430.175 1042.29 413.263 1042.52 394.871C1066 401.248 1089.64 406.96 1113 411.766C1045.33 384.751 971.965 375.256 901.073 353.172H901.089ZM991.795 462.428C987.513 482.966 977.178 501.641 969.287 521.081C961.405 540.521 955.9 562.231 961.812 582.361C953.456 572.924 952.225 559.595 954.504 547.497C956.782 535.391 962.195 524.141 967.325 512.941C975.972 494.058 984.029 474.609 986.989 454.055C990.515 429.56 986.632 404.507 979.83 380.71C982.799 379.829 984.794 379.871 986.748 380.045C992.095 407.235 997.441 435.297 991.787 462.428H991.795Z" fill="#0B0D20"/>
<path d="M1042.54 369.012C1042.33 365.927 1042.47 362.834 1042.38 359.749C1042.03 346.005 1037.53 332.659 1031.56 320.279C1028.8 314.55 1025.6 308.846 1020.77 304.697C1015.94 300.556 1009.15 298.211 1003.07 300.107C995.587 302.443 991.296 310.201 988.627 317.568C983.655 331.271 981.643 346.03 982.732 360.564L978.367 359.333C978.5 359.4 978.109 359.267 977.702 359.125C977.702 359.125 977.71 359.117 977.71 359.109C976.429 351.85 977.56 344.383 979.215 337.199C980.87 329.982 983.065 322.823 986.657 316.337C977.086 327.945 970.958 342.429 968.638 357.521C937.458 349.131 905.654 342.895 873.592 338.48C928.994 352 983.065 365.378 1037.14 378.765C1059.44 384.286 1081.75 389.807 1104.19 394.763C1096.84 392.293 1090.31 389.591 1082.96 387.121C1069.75 382.681 1056.47 378.233 1042.75 375.805C1043.02 373.601 1042.68 371.315 1042.53 369.012H1042.54Z" fill="#0B0D20"/>
<path d="M551.119 147.298C551.876 150.199 553.439 152.835 555.31 155.172C557.597 158.024 560.382 160.476 563.542 162.306C566.768 164.168 570.385 165.374 574.085 165.806C576.014 166.031 578.084 166.022 579.756 165.033C581.31 164.11 582.3 162.439 582.79 160.693C583.273 158.955 583.306 157.117 583.339 155.313C583.431 149.883 583.481 144.271 581.394 139.257C581.194 138.783 580.978 138.243 581.194 137.777C581.302 137.536 581.518 137.353 581.618 137.112C581.801 136.663 581.56 136.156 581.319 135.732C580.454 134.202 579.581 132.672 578.716 131.142C574.55 134.069 568.339 134.202 563.949 131.267C564.107 132.655 564.049 134.077 563.766 135.449C563.716 135.698 563.65 135.964 563.467 136.139C563.234 136.364 562.868 136.389 562.544 136.397C561.155 136.422 559.767 136.372 558.378 136.255C559.01 139.232 559.642 142.201 560.282 145.177C559.442 145.36 558.403 145.477 557.888 144.786C557.53 144.304 557.597 143.589 557.214 143.115C556.665 142.433 555.46 142.716 554.969 143.448C554.479 144.179 554.512 145.136 554.628 146C554.969 148.578 555.909 151.122 557.588 153.101C556.017 152.785 554.753 151.546 554.038 150.116C553.323 148.686 553.073 147.065 552.882 145.477C552.757 144.396 552.658 143.281 552.965 142.234C553.273 141.186 554.071 140.222 555.144 140.03C556.216 139.839 556.732 141.17 557.355 141.793C556.466 139.415 556.208 136.796 556.607 134.285C556.649 134.035 556.707 133.761 556.915 133.611C557.131 133.453 557.422 133.503 557.688 133.553C559.284 133.853 560.889 134.16 562.486 134.459C562.353 132.63 562.569 130.784 563.093 129.038C563.118 129.047 563.151 129.063 563.176 129.071C566.676 129.895 570.277 130.252 573.869 130.127C575.199 130.086 576.704 129.87 577.444 128.764C575.465 125.904 572.746 123.492 569.611 121.896C566.019 120.067 561.604 119.351 557.971 121.098C554.878 122.578 552.782 125.646 551.726 128.914C550.67 132.173 550.537 135.657 550.479 139.083C550.429 141.843 550.429 144.637 551.119 147.306V147.298Z" fill="#0B0D20"/>
<path d="M550.288 151.721C548.483 156.61 545.665 161.125 542.031 164.717C544.16 166.397 546.288 168.084 548.425 169.764C549.656 170.737 550.895 171.71 552.308 172.383C553.597 172.999 555.002 173.339 556.399 173.606C559.334 174.163 562.411 174.387 565.287 173.572C568.164 172.757 570.825 170.762 571.549 167.694C562.485 166.114 554.329 159.986 550.296 151.713L550.288 151.721Z" fill="#0B0D20"/>
<path d="M1013.56 101.35C1015.13 96.6106 1011.63 91.2309 1006.91 89.6012C1002.2 87.9715 996.859 89.41 992.668 92.1206C992.352 85.5852 988.419 79.3407 982.666 76.2227C976.912 73.1046 969.528 73.2294 963.882 76.5387C961.712 71.7327 959.509 66.8685 956.175 62.7943C952.84 58.72 948.176 55.4523 942.938 54.9285C938.04 54.4462 933.109 56.4335 929.334 59.6014C928.536 60.2666 927.73 61.0149 926.715 61.2145C924.637 61.6302 922.949 59.6929 921.219 58.4706C917.619 55.918 912.572 56.2838 908.614 58.2295C904.656 60.1751 901.53 63.4512 898.503 66.6524C898.304 66.8602 898.104 67.0764 897.905 67.2843C884.676 62.1707 870.457 59.4601 856.322 56.7744C851.766 55.9096 847.201 55.0366 842.644 54.1718C835.668 52.8415 828.659 51.5111 821.566 51.1453C905.529 73.853 989.891 96.9099 1073.95 120.981C1055.25 112.7 1034.64 105.94 1013.56 101.358L1013.56 101.35Z" fill="#0B0D20"/>
<path d="M376.409 258.633C376.409 258.633 436.209 282.737 449.396 290.237C449.396 290.237 413.925 265.002 376.409 258.633V258.633Z" fill="white"/>
<path d="M659.037 49C659.037 49 778.18 82.1927 833.656 88.5618L659.037 49Z" fill="white"/>
<path d="M659.486 493.742C659.486 493.742 771.47 529.67 891.236 556.494C891.236 556.494 755.439 514.654 659.486 493.742V493.742Z" fill="#0B0D20"/>
<path d="M791.367 293.197C791.367 293.197 860.08 322.756 953.505 338.671L791.367 293.197Z" fill="white"/>
<path d="M0 589L1440 880H0V589Z" fill="#FCFCFD"/>
</svg>
