<svg width="20" height="20" viewBox="0 0 20 20" fill="none" xmlns="http://www.w3.org/2000/svg">
<path fill-rule="evenodd" clip-rule="evenodd" d="M13.3334 3.33341H6.66675C4.8258 3.33341 3.33341 4.8258 3.33341 6.66675V13.3334C3.33341 15.1743 4.8258 16.6667 6.66675 16.6667H13.3334C15.1743 16.6667 16.6667 15.1743 16.6667 13.3334V6.66675C16.6667 4.8258 15.1743 3.33341 13.3334 3.33341ZM6.66675 1.66675C3.90532 1.66675 1.66675 3.90532 1.66675 6.66675V13.3334C1.66675 16.0948 3.90532 18.3334 6.66675 18.3334H13.3334C16.0948 18.3334 18.3334 16.0948 18.3334 13.3334V6.66675C18.3334 3.90532 16.0948 1.66675 13.3334 1.66675H6.66675Z" fill="#0B0D20"/>
<path d="M14.1666 6.66667C14.6268 6.66667 14.9999 6.29357 14.9999 5.83333C14.9999 5.3731 14.6268 5 14.1666 5C13.7063 5 13.3333 5.3731 13.3333 5.83333C13.3333 6.29357 13.7063 6.66667 14.1666 6.66667Z" fill="#0B0D20"/>
<path fill-rule="evenodd" clip-rule="evenodd" d="M14.1666 9.99992C14.1666 12.3011 12.3011 14.1666 9.99992 14.1666C7.69874 14.1666 5.83325 12.3011 5.83325 9.99992C5.83325 7.69874 7.69874 5.83325 9.99992 5.83325C12.3011 5.83325 14.1666 7.69874 14.1666 9.99992ZM12.4999 9.99992C12.4999 11.3807 11.3807 12.4999 9.99992 12.4999C8.61917 12.4999 7.49992 11.3807 7.49992 9.99992C7.49992 8.61917 8.61917 7.49992 9.99992 7.49992C11.3807 7.49992 12.4999 8.61917 12.4999 9.99992Z" fill="#0B0D20"/>
</svg>
