<svg width="20" height="20" viewBox="0 0 20 20" fill="none" xmlns="http://www.w3.org/2000/svg">
<path fill-rule="evenodd" clip-rule="evenodd" d="M10.0001 16.6667C13.682 16.6667 16.6667 13.682 16.6667 10.0001C16.6667 6.31818 13.682 3.33341 10.0001 3.33341C6.31818 3.33341 3.33341 6.31818 3.33341 10.0001C3.33341 13.682 6.31818 16.6667 10.0001 16.6667ZM10.0001 18.3334C14.6024 18.3334 18.3334 14.6024 18.3334 10.0001C18.3334 5.39771 14.6024 1.66675 10.0001 1.66675C5.39771 1.66675 1.66675 5.39771 1.66675 10.0001C1.66675 14.6024 5.39771 18.3334 10.0001 18.3334Z" fill="#0B0D20"/>
<path d="M10.0001 8.33325C10.0001 7.87302 10.3732 7.49992 10.8334 7.49992H11.6667C12.127 7.49992 12.5001 7.12683 12.5001 6.66659C12.5001 6.20635 12.127 5.83325 11.6667 5.83325H10.8334C9.45266 5.83325 8.33341 6.95254 8.33341 8.33325V9.99992H7.50008C7.03985 9.99992 6.66675 10.373 6.66675 10.8333C6.66675 11.2935 7.03984 11.6666 7.50008 11.6666H8.33341V16.6666C8.33341 17.1268 8.7065 17.4999 9.16675 17.4999C9.627 17.4999 10.0001 17.1268 10.0001 16.6666V11.6666H11.6667C12.127 11.6666 12.5001 11.2935 12.5001 10.8333C12.5001 10.373 12.127 9.99992 11.6667 9.99992H10.0001V8.33325Z" fill="#0B0D20"/>
</svg>
