<svg width="778" height="220" viewBox="0 0 778 220" fill="none" xmlns="http://www.w3.org/2000/svg">
<path d="M682.058 207.762C682.075 205.036 679.616 202.553 676.932 202.578C674.264 202.603 671.814 205.145 671.965 207.879C672.048 209.435 672.575 210.622 673.453 211.45H680.419C681.414 210.505 682.058 209.175 682.066 207.762H682.058Z" fill="#141416"/>
<path d="M110.985 207.696C110.927 205.103 108.301 202.645 105.575 202.862C102.481 203.113 100.549 204.869 100.624 208.055C100.658 209.569 101.16 210.673 101.954 211.45H109.246C110.35 210.472 111.019 209.109 110.985 207.696Z" fill="#141416"/>
<path d="M98.4428 198.84C100.032 196.808 101.604 195.897 104.296 196.658C111.964 198.823 119.883 199.718 127.76 200.73C130.177 201.039 131.047 201.976 130.955 204.309C130.863 206.692 130.904 209.075 130.921 211.459H133.112C133.12 209.117 133.137 206.767 133.087 204.426C133.045 202.285 134.09 201.499 136.106 201.725C146.851 202.954 157.646 203.097 168.442 203.481C178.986 203.857 189.489 203.122 200.009 202.821C218.012 202.302 235.364 204.351 251.419 211.459H264.966C255.19 205.547 244.629 201.616 233.39 199.267C219.969 196.465 206.431 195.972 192.717 196.825C176.143 197.862 159.528 197.435 142.954 196.014C133.137 195.178 123.362 194.049 113.662 192.284C112.215 192.017 110.768 191.741 108.327 191.273C128.898 187.025 148.181 183.044 167.463 179.064C170.767 178.378 174.237 178.144 177.331 176.94C183.928 174.373 189.748 176.095 195.945 178.587C213.146 185.494 230.907 190.57 249.328 193.079C252.665 193.53 256.077 193.405 259.413 193.865C262.716 194.316 263.703 193.029 263.695 189.876C263.678 183.646 263.92 183.638 270.092 185.269C281.171 188.195 289.107 195.035 294.952 204.66C296.432 207.094 296.215 209.017 294.634 211.3C294.592 211.358 294.551 211.408 294.509 211.467H301.7C302.344 209.853 302.904 208.264 304.46 208.172C306.107 208.072 307.888 210.029 309.628 211.467H314.862C312.429 209.778 310.012 208.047 307.662 206.232C305.672 204.694 305.296 203.322 306.45 201.14C308.281 197.661 310.447 194.442 312.713 191.239C314.486 188.739 316.008 188.764 318.299 190.612C328.216 198.606 338.753 205.555 349.891 211.467H356.664C353.445 209.878 350.259 208.214 347.098 206.458C337.875 201.34 329.17 195.428 320.858 188.939C317.814 186.565 317.948 185.695 321.401 184.023C327.815 180.92 334.07 182.124 340.174 184.809C352.4 190.185 364.525 195.805 376.775 201.14C386.584 205.404 396.535 209.184 406.845 211.467H444.893C446.272 211.166 447.652 210.848 449.032 210.514C451.181 209.995 452.519 210.121 453.456 211.467H457.193C457.118 211.116 457.051 210.756 456.984 210.405C456.65 208.515 458.866 208.473 460.237 208.122C475.941 204.158 491.654 200.22 507.366 196.281C530.537 190.47 553.692 184.549 576.897 178.872C601.03 172.968 625.28 167.625 649.848 163.828C653.034 163.335 656.312 163.418 659.548 163.234C667.308 163.385 674.934 164.062 682.025 167.624C689.526 171.396 691.792 175.702 690.789 183.981C690.546 185.971 689.894 186.322 688.238 185.277C670.552 174.08 651.202 174.306 631.802 178.144C583.996 187.602 536.316 197.636 488.576 207.436C483.024 208.574 477.505 209.987 471.902 210.723C470.832 210.865 470.054 211.107 469.494 211.459H483.852C495.642 209.042 507.433 206.659 519.215 204.242C557.171 196.465 595.101 188.597 633.09 180.987C639.546 179.691 646.227 179.532 651.662 178.964C664.314 179.741 675.728 180.636 685.805 187.242C689.317 189.542 691.182 192.1 690.655 196.507C690.061 201.516 689.534 206.517 688.547 211.45H698.105C698.666 208.373 699.151 205.287 699.753 202.218V169.004C697.662 159.254 695.722 149.47 693.464 139.762C689.609 123.222 686.273 106.531 681.055 90.342C677.66 79.8058 672.467 70.273 663.888 62.8725C650.684 51.4834 634.068 53.0805 624.36 66.786C618.582 74.9307 612.695 83.0085 607.109 91.2786C602.903 97.5083 597.334 101.806 590.167 103.663C576.914 107.091 563.885 105.235 552.011 99.0553C538.021 91.7719 524.692 83.2092 511.029 75.2819C508.62 73.8854 507.859 72.8151 509.574 69.997C513.805 63.0481 512.877 50.8395 507.692 45.5881C494.689 32.4345 481.979 18.9799 468.131 6.67089C461.04 0.365865 453.121 -0.662673 444.433 3.07518C438.579 5.59217 433.119 8.80322 427.75 12.1982C411.394 22.5505 396.618 35.0184 381.148 46.5664C375.211 51.0067 369.634 56.1745 362.894 59.2517C355.652 62.5548 349.515 66.7525 345.342 73.5676C344.339 75.2066 342.959 76.1097 341.102 76.2937C334.07 77.0128 328.701 80.7256 324.42 86.0021C322.58 88.2682 320.557 89.5643 317.739 89.9908C310.623 91.0779 304.819 94.5231 300.229 100.042C297.745 103.027 294.684 105.001 290.888 106.121C284.466 108.019 279.156 111.557 275.903 117.653C275.385 118.623 274.724 119.459 273.67 119.91C267.85 122.394 262.858 125.973 259.028 131.074C258.426 131.877 257.515 132.119 256.637 132.479C252.046 134.394 248.258 137.37 245.39 141.434C244.119 143.241 242.538 144.604 240.649 145.749C227.01 153.994 212.477 159.89 196.823 163.117C167.739 169.113 138.715 175.385 109.615 181.305C96.9376 183.88 89.4284 192.05 85.7658 203.556C84.938 206.157 84.1937 208.783 83.5081 211.425H93.4339C94.3537 206.977 95.4742 202.595 98.426 198.815L98.4428 198.84ZM354.114 169.347C353.763 173.227 353.988 177.157 354.055 181.071C354.089 183.136 353.487 183.772 351.438 182.852C348.118 181.355 344.706 180.067 341.37 178.621C329.596 173.545 319.202 175.627 310.322 184.775C308.239 186.924 307.345 186.983 305.814 184.223C301.491 176.421 294.626 171.229 286.983 166.947C285.821 166.295 284.642 165.676 282.676 164.606C289.642 162.992 295.863 162.381 302.001 162.164C317.764 161.612 333.56 161.052 349.255 163.644C352.776 164.229 354.457 165.501 354.114 169.355V169.347ZM401.218 203.473C398.391 202.578 395.607 201.784 392.872 200.805C381.542 196.766 370.646 191.707 359.775 186.606C357.342 185.461 355.795 180.209 357.074 177.935C357.609 176.99 358.429 177.099 359.173 177.325C374.718 181.949 389.619 187.727 400.323 200.814C400.808 201.407 401.477 202.001 401.218 203.481V203.473ZM421.471 206.977C416.888 207.286 412.473 206.216 408.058 205.17C406.745 204.861 406.009 203.941 405.374 202.879C398.425 191.289 387.387 184.884 375.487 179.733C370.42 177.542 365.077 176.003 359.859 174.164C357.317 173.269 355.711 168.26 357.25 166.136C357.852 165.308 358.604 165.467 359.415 165.668C384.97 171.872 406.519 184.165 421.537 206.391C421.596 206.475 421.512 206.642 421.471 206.977ZM554.11 178.077C519.324 186.364 484.889 196.081 449.985 203.908C444.073 205.237 438.136 206.634 432.057 207.06C430.075 207.202 424.69 201.642 425.108 199.835C425.417 198.506 426.73 198.631 427.742 198.397C439.181 195.78 450.621 193.146 462.069 190.562C490.366 184.181 518.663 177.826 546.96 171.463C552.831 170.141 558.709 168.845 565.148 167.407C562.807 173.085 560.164 176.63 554.11 178.077ZM651.646 157.414C635.666 159.145 620.02 162.724 604.35 166.153C600.06 167.089 595.753 167.934 590.92 168.929C592.041 165.802 594.039 164.121 595.678 162.248C609.392 146.636 624.72 132.98 643.217 123.121C646.035 121.616 646.837 122.252 647.465 125.02C649.614 134.477 651.838 143.91 654.146 153.334C654.731 155.725 654.614 157.105 651.646 157.431V157.414ZM667.241 157.347C664.649 157.138 662.098 156.854 659.548 156.762C657.499 156.687 656.746 155.449 656.345 153.752C653.962 143.667 651.612 133.574 649.187 123.498C648.685 121.424 649.304 120.086 651.219 119.292C652.465 118.773 653.711 118.255 654.974 117.803C662.985 114.927 662.909 114.943 664.532 123.464C666.438 133.516 668.412 143.558 670.544 153.559C671.213 156.712 670.444 157.958 667.249 157.347H667.241ZM679.073 119.333C682.477 134.009 686.24 148.609 689.141 164.439C684.684 161.788 680.762 160.074 676.632 158.836C675.026 158.351 674.382 157.046 674.073 155.491C671.522 142.672 669.014 129.853 666.354 117.059C665.911 114.927 666.664 114.032 668.512 113.555C668.646 113.522 668.771 113.497 668.905 113.455C677.025 111.189 677.183 111.164 679.082 119.333H679.073ZM675.937 106.807C676.657 108.939 674.967 109.282 673.462 109.533C648.15 113.848 627.63 127.144 609.074 143.993C601.473 150.892 594.374 158.317 588.177 166.521C586.012 169.389 583.453 171.086 579.916 171.705C576.487 172.307 573.117 173.277 568.76 174.314C574.564 164.196 580.927 155.683 588.043 147.765C604.968 128.958 624.954 114.692 649.405 107.208C656.905 104.909 664.582 103.496 672.375 102.601C675.921 102.199 675.335 105.001 675.937 106.799V106.807ZM660.886 72.8903C666.237 78.5598 669.34 85.6676 671.991 92.9426C672.877 95.3844 672.133 96.3376 669.607 96.6972C662.575 97.7174 662.608 97.7843 659.891 91.1197C655.952 81.4364 650.115 73.1412 641.845 66.6355C641.461 66.3344 641.176 65.908 640.549 65.2223C649.421 63.1234 655.609 67.2794 660.894 72.882L660.886 72.8903ZM631.376 73.1412C633.149 70.9838 634.612 68.5337 637.38 67.3212C638.283 67.9232 639.094 68.3915 639.83 68.9601C648.468 75.7084 654.204 84.4969 657.984 94.6819C658.946 97.2826 658.352 98.4783 655.501 99.1808C648.368 100.945 648.368 101.096 645.257 94.6151C642.221 88.2933 637.948 82.9416 632.229 78.9361C629.494 77.0212 629.461 75.4575 631.376 73.1328V73.1412ZM599.132 114.709C598.747 111.398 600.327 109.608 603.112 108.011C611.023 103.479 615.262 95.5349 620.497 88.5442C622.035 86.4955 623.449 84.3464 624.945 82.2726C628.048 77.9828 628.081 77.9578 632.02 81.1855C637.555 85.7178 641.67 91.3037 644.479 97.9014C645.617 100.577 645.215 102.099 642.288 103.111C626.91 108.413 613.18 116.624 600.72 126.985C598.697 128.665 596.523 129.109 594.006 129.201C565.24 130.204 537.252 125.413 509.59 118.079C499.807 115.487 490.14 112.543 479.57 108.998C487.339 105.26 493.978 101.413 499.564 95.9948C501.462 94.1551 503.034 95.7021 504.59 96.7056C516.681 104.432 529.225 111.272 542.754 116.181C558.141 121.758 573.92 123.757 590.167 121.198C591.89 120.922 593.571 120.362 595.277 119.969C598.078 119.317 599.466 117.569 599.132 114.709ZM406.076 78.1417C403.107 76.6616 402.497 75.7334 405.29 73.2666C413.309 66.209 410.374 66.9616 418.82 72.1963C434.465 81.8963 450.579 90.5678 468.173 96.2875C471.183 97.2658 473.625 96.9063 476.175 95.2673C483.007 90.8688 489.755 86.3115 494.898 79.9479C497.833 76.3104 499.623 79.6051 501.638 80.6002C504.247 81.8796 502.424 83.5185 501.395 84.823C493.836 94.4394 484.278 101.154 472.479 104.591C471.576 104.85 470.64 105.017 469.737 105.227C465.305 104.332 461.232 102.459 457.101 100.836C439.758 94.0213 422.733 86.4871 406.068 78.1501L406.076 78.1417ZM410.232 91.3204C404.153 97.1153 396.635 100.452 389.176 104.006C382.478 107.2 375.203 108.053 368.187 109.968C355.97 113.304 344.606 118.564 333.894 125.22C330.541 127.311 327.23 128.398 323.266 128.247C317.245 128.022 311.208 128.189 304.117 128.189C311.476 121.457 318.558 116.198 326.126 111.573C336.729 105.093 348.219 101.046 360.385 98.5201C372.159 96.0784 383.038 91.2535 392.571 83.853C395.874 81.2859 398.634 80.4162 402.271 82.9917C404.445 84.5304 406.996 85.6174 409.496 86.6292C412.565 87.8752 412.306 89.3386 410.232 91.312V91.3204ZM416.746 62.8893C423.252 57.2365 431.957 54.1676 443.806 54.1927C454.81 54.385 466.643 59.5611 478.057 65.8913C482.773 68.5002 487.213 71.6026 491.796 74.454C493.778 75.6833 493.794 76.7954 492.18 78.5431C486.812 84.3464 480.616 89.0543 473.851 93.1015C472.254 94.0548 470.865 93.9126 469.252 93.3858C450.336 87.2731 433.085 77.8574 416.487 67.087C413.677 65.2641 415.241 64.1937 416.746 62.8893ZM453.397 109.583C453.89 107.217 454.584 106.481 457.193 107.493C476.05 114.818 495.274 121.031 514.892 125.981C517.76 126.709 520.662 127.302 523.547 127.955C523.572 128.139 523.597 128.323 523.614 128.507C515.728 129.385 507.851 130.263 499.966 131.132C491.537 132.069 483.108 133.064 474.662 133.892C471.994 134.151 469.26 134.101 466.576 133.934C458.272 133.407 453.221 128.323 452.619 120.011C452.36 116.499 452.678 113.037 453.389 109.575L453.397 109.583ZM505.459 89.648C509.289 85.0154 509.164 84.9234 514.215 87.9086C525.127 94.3475 535.755 101.355 547.044 107.049C561.076 114.132 576.086 116.741 591.773 112.97C593.002 112.677 594.926 110.771 595.645 113.63C596.247 116.047 594.725 116.984 592.634 117.469C587.358 118.69 582.031 119.367 576.621 119.342C556.502 119.149 538.306 112.435 520.963 102.919C516.004 100.201 511.246 97.1153 506.329 94.3056C504.063 93.0095 503.636 91.8723 505.476 89.6563L505.459 89.648ZM485.892 36.6657C490.056 41.4321 494.798 45.6968 499.221 50.2458C504.464 55.6393 504.23 63.9847 498.828 69.1274C497.95 69.9636 497.081 70.5155 495.994 69.7713C494.689 68.8765 492.849 67.9901 493.401 66.0752C495.308 59.4273 491.319 55.3717 487.197 51.3579C479.411 43.7651 470.564 37.6357 461.048 32.4345C459.418 31.5398 457.829 30.553 456.223 29.6081L456.575 28.4876C467.036 28.4876 477.714 27.3169 485.884 36.6657H485.892ZM410.683 35.5034C422.006 27.4507 433.094 19.0802 445.612 12.8672C453.64 8.88684 457.637 9.36348 464.218 15.5514C467.621 18.7541 470.799 22.1826 474.938 26.3803C467.763 25.3853 461.726 24.9839 455.68 25.7532C440.829 27.6347 427.893 34.04 415.801 42.5025C414.346 43.5226 412.674 46.0313 411.085 42.7366C409.998 40.4788 406.427 38.5221 410.683 35.5034ZM367.752 67.3797C376.215 62.4293 383.891 56.116 391.827 50.2959C395.74 47.4277 399.553 44.4007 403.25 41.2565C404.989 39.7848 405.716 40.1444 406.971 41.867C408.66 44.1916 409.153 48.4479 412.214 48.4228C414.538 48.4061 416.838 45.4961 419.154 43.8822C427.633 37.9618 436.823 33.5383 446.732 30.5447C449.759 29.6332 452.41 29.8924 455.245 31.4478C467.128 37.9618 478.567 45.0362 487.949 55.0122C489.847 57.0358 491.361 59.1848 491.737 61.9778C491.904 63.2154 491.938 64.6286 491.018 65.4313C489.764 66.5268 488.861 64.9881 487.932 64.4279C476.067 57.3117 463.858 50.99 450.035 48.6486C435.644 46.2069 422.75 49.4096 411.62 59.1765C402.907 66.8194 395.013 75.4324 385.095 81.6538C383.624 82.582 382.244 83.736 380.187 83.7945C375.345 82.8245 370.989 80.4413 366.908 77.5062C358.897 71.7447 359.273 72.3468 367.752 67.3881V67.3797ZM280.594 127.261C282.049 126.675 283.379 126.174 283.672 124.451C284.633 118.773 288.923 116.281 293.723 115.127C299.334 113.781 303.498 110.628 307.035 106.506C311.467 101.347 316.911 98.6539 323.659 98.7376C326.427 98.771 328.007 97.7174 329.354 95.2506C332.339 89.7734 336.846 86.1442 343.277 85.2997C348.185 84.6558 352.107 83.0168 354.047 77.64C355.636 73.2415 357.099 73.2833 360.645 76.486C365.16 80.5835 370.495 83.4015 376.625 86.3115C371.566 88.9539 366.908 90.8019 362.075 91.6549C339.338 95.6603 319.679 105.912 302.712 121.19C293.179 129.769 281.924 132.562 269.113 133.934C272.667 130.338 276.681 128.849 280.603 127.261H280.594ZM251.603 150.106C252.983 144.855 258.844 140.857 264.305 140.59C275.962 140.013 287.443 138.382 297.837 132.504C299.426 131.609 300.973 131.065 302.796 131.099C320.732 131.408 338.728 129.987 356.53 133.524C365.57 135.322 374.333 137.889 382.846 141.409C385.371 142.455 385.639 144.252 385.647 146.577C385.689 155.55 385.781 155.458 377.611 152.113C364.081 146.569 349.816 144.361 335.333 143.701C314.369 142.747 293.514 143.993 272.826 147.631C270.827 147.982 269.155 148.132 267.407 146.259C265.258 143.943 261.738 144.478 259.94 146.878C257.966 149.521 258.502 151.962 260.935 153.986C263.385 156.018 266.295 155.658 268.218 152.715C269.573 150.649 271.229 149.997 273.495 149.621C297.594 145.615 321.828 144.311 346.136 146.719C359.34 148.024 372.276 150.934 384.067 157.473C386.684 158.928 387.771 158.351 387.738 155.382C387.704 152.414 387.763 149.445 387.755 146.477C387.755 144.696 388.516 144.319 390.021 145.172C393.073 146.912 395.983 148.843 398.667 151.076C398.809 149.989 399.002 148.902 399.244 147.823C384.125 136.216 366.406 131.45 347.826 129.125C343.954 128.64 340.066 128.364 335.132 127.888C348.888 119.752 362.576 114.233 377.386 110.888C391.15 107.785 404.052 102.149 413.986 91.4625C415.232 90.1246 416.278 90.0075 417.866 90.7016C427.985 95.1837 438.103 99.6574 448.288 103.964C450.554 104.917 450.847 106.222 450.504 108.362C449.952 111.816 449.199 115.328 449.366 118.781C450.077 133.114 459.485 138.307 472.187 137.178C492.331 135.38 512.4 132.78 532.502 130.488C534.702 130.238 536.792 130.656 538.925 131.065C544.168 132.069 549.436 132.93 554.721 133.716C566.419 135.263 579.982 136.785 588.043 136.785C588.043 136.785 573.468 156.051 569.296 161.729C567.933 164.004 566.018 165.041 563.476 165.609C527.661 173.62 491.863 181.715 456.056 189.776C446.055 192.033 436.021 194.166 426.053 196.582C423.511 197.201 422.006 196.507 420.45 194.684C401.619 172.617 376.959 161.813 348.854 157.331C322.748 153.166 296.917 155.6 271.078 159.58C266.571 160.274 262.039 161.136 257.415 159.873C252.481 158.518 250.282 155.023 251.578 150.098L251.603 150.106ZM242.906 155.466C243.985 154.856 244.896 154.789 245.365 156.336C247.832 164.572 254.538 166.195 261.872 166.713C265.676 166.981 269.423 166.253 273.119 165.534C276.48 164.873 279.424 165.358 282.476 166.889C291.047 171.187 298.773 176.396 303.874 184.825C305.647 187.744 306.283 190.303 303.757 193.246C302.21 195.044 301.324 197.41 299.844 200.053C296.282 195.905 293.447 191.824 289.6 188.572C281.89 182.066 273.01 178.713 263.076 177.684C249.763 176.313 236.601 174.122 223.857 169.899C221.976 169.28 219.952 168.929 217.945 167.231C226.701 163.744 234.979 159.94 242.923 155.458L242.906 155.466ZM206.891 170.317C208.195 170.008 209.299 170.585 210.369 171.111C224.368 177.96 239.444 180.786 254.672 183.161C257.013 183.529 260.843 182.35 260.768 187.091C260.726 189.642 259.957 190.98 257.264 190.629C251.252 189.851 245.189 189.349 239.252 188.195C223.464 185.135 208.212 180.268 193.219 173.478C197.776 172.424 202.333 171.387 206.882 170.317H206.891Z" fill="#141416"/>
<path d="M437.409 73.4509C440.544 73.6432 442.183 71.536 442.735 68.9103C442.953 65.7243 440.854 63.3411 437.961 63.2993C434.783 63.2491 432.835 64.8463 432.701 68.049C432.575 71.1848 434.34 73.2586 437.409 73.4425V73.4509Z" fill="#141416"/>
<path d="M463.849 86.587C466.709 86.6706 469.05 84.3961 469.034 81.5697C469.017 78.8688 466.508 76.4187 463.799 76.4688C461.056 76.5106 458.556 79.0527 458.857 81.7788C459.175 84.647 460.738 86.495 463.849 86.587Z" fill="#141416"/>
<path d="M773.247 211.451H4.75336C2.64282 211.451 0.931885 213.161 0.931885 215.272C0.931885 217.383 2.64282 219.093 4.75336 219.093H773.247C775.357 219.093 777.068 217.383 777.068 215.272C777.068 213.161 775.357 211.451 773.247 211.451Z" fill="#141416"/>
</svg>
