<?xml version="1.0" encoding="utf-8"?>
<!-- Generator: Adobe Illustrator 25.0.0, SVG Export Plug-In . SVG Version: 6.00 Build 0)  -->
<svg version="1.1" id="图层_1" xmlns="http://www.w3.org/2000/svg" xmlns:xlink="http://www.w3.org/1999/xlink" x="0px" y="0px"
	 viewBox="0 0 630 630" style="enable-background:new 0 0 630 630;" xml:space="preserve">
<style type="text/css">
	.st0{fill-rule:evenodd;clip-rule:evenodd;fill:#72F596;}
	.st1{fill-rule:evenodd;clip-rule:evenodd;fill:#231F20;}
</style>
<path class="st0" d="M315,625L315,625C143.8,625,5,486.2,5,315v0C5,143.8,143.8,5,315,5h0c171.2,0,310,138.8,310,310v0
	C625,486.2,486.2,625,315,625z"/>
<path class="st1" d="M140.4,298.6c4.8,0,8.8-3.9,8.8-8.8c0-4.8-3.9-8.7-8.8-8.8H72.2c-4.8,0-8.8,3.9-8.8,8.8c0,4.8,3.9,8.7,8.8,8.8
	H140.4z"/>
<path class="st1" d="M120.7,365c0,4.8,3.9,8.8,8.8,8.8l0,0h68.2c4.8,0,8.8-3.9,8.8-8.8c0-4.8-3.9-8.8-8.8-8.8c0,0,0,0,0,0h-68.2
	C124.6,356.3,120.7,360.2,120.7,365z"/>
<path class="st1" d="M178,318.7h-68.2c-0.4,0-0.7,0-1.1,0.1h-6.4c-4.8,0-8.8,3.9-8.8,8.8c0,4.8,3.9,8.8,8.8,8.8c0,0,0,0,0,0h60.2
	c0.4,0,0.8,0,1.1-0.1H178c4.8,0,8.8-3.9,8.8-8.8C186.7,322.6,182.8,318.7,178,318.7z"/>
<path class="st1" d="M79.5,336.3c4.8,0,8.8-3.9,8.8-8.8c0-4.8-3.9-8.8-8.8-8.8c0,0,0,0,0,0h-3.2c-4.8,0-8.8,3.9-8.8,8.8
	c0,4.8,3.9,8.8,8.8,8.8c0,0,0,0,0,0H79.5z"/>
<path class="st1" d="M236,402.6c0-4.8-3.9-8.8-8.8-8.8H79.9c-4.8,0.2-8.6,4.2-8.5,9.1c0.2,4.6,3.9,8.3,8.5,8.5h147.3
	C232,411.4,236,407.5,236,402.6C236,402.7,236,402.7,236,402.6z"/>
<path class="st1" d="M507.1,392.8c-26.9-10.8-40.2-17-51.2-6.7c5.6-11.2,3.4-11.9-1.4-20.2c-9.4-16.6-34.4-43.8-43-95.7
	c0,0,13.9-36.9,15.4-60.5c0,0,5.3-14.8-17.8-7.6c0,0-29,17.7-44.8,22.1c-28.6-3.4-70.6-24.1-86.1-56.1c0,0,12.9-27,1.7-33.2
	c-7.8-4.3-31,19.8-31,19.8l-76,88.6l-5.9,10.9c-2.5,4.7-2.1,10.5,1.2,14.7c20.1,26.8,99.5,132.6,144.8,188.5
	c-129.4,1-199.3,20.9-149.7,27.8c40.6,5.7,133.3,4,202.6,3.7c8.1,2.4,16.4,4.2,24.7,5.5l116.6,1.1c15.2-0.8,28.9-1.9,39.7-3.1
	c7.2-0.8,13.4-5.6,16-12.4C575.3,446.9,555.6,412.2,507.1,392.8z M274.1,328.5l-4-90.5l26.5,55.3l28.5-11.4l7.4,87.2l-30.1-54.3
	L274.1,328.5z"/>
</svg>
