<svg xmlns="http://www.w3.org/2000/svg" xmlns:xlink="http://www.w3.org/1999/xlink" viewBox="0 0 684.9 684.9"><defs><style>.cls-1{fill:none;clip-rule:evenodd;}.cls-2{clip-path:url(#clip-path);}.cls-3{fill:url(#未命名的渐变_11);}.cls-4{clip-path:url(#clip-path-2);}.cls-5{clip-path:url(#clip-path-3);}.cls-6{clip-path:url(#clip-path-4);}.cls-7{clip-path:url(#clip-path-5);}.cls-8{clip-path:url(#clip-path-6);}.cls-10,.cls-11,.cls-12,.cls-13,.cls-14,.cls-15,.cls-16,.cls-9{fill-rule:evenodd;}.cls-9{fill:url(#未命名的渐变_14);}.cls-10{fill:url(#未命名的渐变_14-2);}.cls-11{fill:url(#未命名的渐变_14-3);}.cls-12{fill:url(#未命名的渐变_14-4);}.cls-13{fill:url(#未命名的渐变_14-5);}.cls-14{fill:url(#未命名的渐变_14-6);}.cls-15{fill:url(#未命名的渐变_14-7);}.cls-16{fill:url(#未命名的渐变_14-8);}</style><clipPath id="clip-path"><polygon class="cls-1" points="141.69 442.4 137.51 460.65 149.96 476.85 181.84 476.85 183.23 478.68 182.16 483.29 179.58 485.44 133.43 485.44 128.92 504.76 188.06 504.76 203.73 491.99 208.03 473.74 195.58 457.53 163.7 457.53 162.3 455.71 163.27 451.09 165.95 448.95 209.96 448.95 214.47 429.63 157.47 429.63 141.69 442.4"/></clipPath><linearGradient id="未命名的渐变_11" x1="123.61" y1="460.59" x2="574.61" y2="460.59" gradientUnits="userSpaceOnUse"><stop offset="0.03" stop-color="#d26734"/><stop offset="0.16" stop-color="#b36346"/><stop offset="0.48" stop-color="#695973"/><stop offset="0.71" stop-color="#3a528f"/><stop offset="0.83" stop-color="#28509a"/></linearGradient><clipPath id="clip-path-2"><polygon class="cls-1" points="298.72 429.64 220.37 429.64 215.86 448.96 243.23 448.96 230.35 504.77 253.97 504.77 266.85 448.96 294.22 448.96 298.72 429.64"/></clipPath><clipPath id="clip-path-3"><polygon class="cls-1" points="318.15 475.25 351.42 475.25 355.4 458.08 322.12 458.08 324.27 448.96 369.35 448.96 373.86 429.64 305.16 429.64 287.77 504.77 357.54 504.77 362.05 485.45 315.9 485.45 318.15 475.25"/></clipPath><clipPath id="clip-path-4"><path class="cls-1" d="M384.05,429.64l-17.39,75.13h23.62L394.57,486h36.6l16.43-13.31,6.33-27.37-12-15.67Zm42.08,33.81-4,3.22H399.08L403.16,449h23.4l2.25,2.89Z"/></clipPath><clipPath id="clip-path-5"><polygon class="cls-1" points="549.5 429.64 538.02 479.01 534.8 479.01 523.32 429.64 489.93 429.64 472.55 504.77 494.55 504.77 505.93 455.4 509.25 455.4 520.74 504.77 554.12 504.77 571.51 429.64 549.5 429.64"/></clipPath><clipPath id="clip-path-6"><polygon class="cls-1" points="478.06 420.04 466.48 425.99 458.07 403.57 457.4 444.56 469.3 438.34 478.78 459.29 478.06 420.04"/></clipPath><linearGradient id="未命名的渐变_14" x1="231.03" y1="365.86" x2="408.46" y2="365.86" gradientUnits="userSpaceOnUse"><stop offset="0.03" stop-color="#d26734"/><stop offset="0.22" stop-color="#a16051"/><stop offset="0.44" stop-color="#6d5970"/><stop offset="0.63" stop-color="#485487"/><stop offset="0.78" stop-color="#305195"/><stop offset="0.88" stop-color="#28509a"/></linearGradient><linearGradient id="未命名的渐变_14-2" x1="172.94" y1="238.65" x2="232.36" y2="238.65" xlink:href="#未命名的渐变_14"/><linearGradient id="未命名的渐变_14-3" x1="212.59" y1="290.74" x2="272.01" y2="290.74" xlink:href="#未命名的渐变_14"/><linearGradient id="未命名的渐变_14-4" x1="193.77" y1="264.75" x2="247.62" y2="264.75" xlink:href="#未命名的渐变_14"/><linearGradient id="未命名的渐变_14-5" x1="198.99" y1="264.7" x2="258.4" y2="264.7" xlink:href="#未命名的渐变_14"/><linearGradient id="未命名的渐变_14-6" x1="175.8" y1="264.75" x2="190.15" y2="264.75" xlink:href="#未命名的渐变_14"/><linearGradient id="未命名的渐变_14-7" x1="178.31" y1="316.79" x2="292.48" y2="316.79" xlink:href="#未命名的渐变_14"/><linearGradient id="未命名的渐变_14-8" x1="243.66" y1="256.06" x2="521.54" y2="256.06" xlink:href="#未命名的渐变_14"/></defs><g id="图层_1" data-name="图层 1"><g class="cls-2"><rect class="cls-3" x="123.61" y="401.09" width="451" height="119"/></g><g class="cls-4"><rect class="cls-3" x="123.61" y="401.09" width="451" height="119"/></g><g class="cls-5"><rect class="cls-3" x="123.61" y="401.09" width="451" height="119"/></g><g class="cls-6"><rect class="cls-3" x="123.61" y="401.09" width="451" height="119"/></g><g class="cls-7"><rect class="cls-3" x="123.61" y="401.09" width="451" height="119"/></g><g class="cls-8"><rect class="cls-3" x="123.61" y="401.09" width="451" height="119"/></g></g><path class="cls-9" d="M392.58,376.63c-48.73,0-120.28,1.63-150.44-2.57-35.29-4.91,16.71-19.28,111-19.28S392.58,376.63,392.58,376.63Z"/><path class="cls-10" d="M232.36,238.65a6.08,6.08,0,0,0-6.07-6.07H179a6.07,6.07,0,0,0-6.07,6.07h0a6.07,6.07,0,0,0,6.07,6.07h47.28a6.08,6.08,0,0,0,6.07-6.07h0"/><path class="cls-11" d="M272,290.74a6.07,6.07,0,0,0-6.07-6.07H218.66a6.07,6.07,0,0,0-6.07,6.07h0a6.07,6.07,0,0,0,6.07,6.07h47.28a6.07,6.07,0,0,0,6.07-6.07h0"/><path class="cls-12" d="M199.84,258.68a6.07,6.07,0,0,0-6.07,6.07h0a6.07,6.07,0,0,0,6.07,6.07h41.71a6.07,6.07,0,0,0,6.07-6.07h0a6.07,6.07,0,0,0-6.07-6.07H199.84Z"/><path class="cls-13" d="M258.4,264.7a6.07,6.07,0,0,0-6.07-6.07H205.05A6.06,6.06,0,0,0,199,264.7h0a6.06,6.06,0,0,0,6.06,6.07h47.28a6.07,6.07,0,0,0,6.07-6.07h0"/><path class="cls-14" d="M181.87,258.68a6.07,6.07,0,0,0-6.07,6.07h0a6.07,6.07,0,0,0,6.07,6.07h2.21a6.07,6.07,0,0,0,6.07-6.07h0a6.07,6.07,0,0,0-6.07-6.07h-2.21Z"/><path class="cls-15" d="M292.48,316.79a6.07,6.07,0,0,0-6.07-6.07h-102a6.06,6.06,0,0,0-6.06,6.07h0a6.06,6.06,0,0,0,6.06,6.07h102a6.07,6.07,0,0,0,6.07-6.07h0"/><path class="cls-16" d="M480.36,310c-18.66-7.46-27.84-11.81-35.46-4.66,3.89-7.77,2.34-8.24-.93-14-6.53-11.51-23.8-30.35-29.77-66.3,0,0,9.59-25.53,10.64-41.93,0,0,3.66-10.28-12.31-5.25,0,0-20.11,12.25-31.07,15.28-19.82-2.33-48.94-16.66-59.67-38.85,0,0,8.95-18.68,1.15-23-5.42-3-21.44,13.75-21.44,13.75l-52.66,61.38L244.79,214a9.45,9.45,0,0,0,.77,10.17c15,20,77.43,103.25,107,138.78a118.51,118.51,0,0,0,47.13,17.49l80.82.75c10.56-.54,20-1.33,27.54-2.17a13.31,13.31,0,0,0,11-8.57C527.62,347.42,513.93,323.42,480.36,310ZM338.54,255.88l-19.62,9.51-2.73-62.69L334.55,241l19.73-7.91,5.11,60.4Z"/></svg>