<svg id="图层_1" data-name="图层 1" xmlns="http://www.w3.org/2000/svg" viewBox="0 0 630 630"><defs><style>.cls-1{fill:#231f20;fill-rule:evenodd;}</style></defs><path class="cls-1" d="M140.43,298.63a8.76,8.76,0,0,0,0-17.52H72.19a8.76,8.76,0,0,0,0,17.52Z"/><path class="cls-1" d="M120.66,365.05a8.76,8.76,0,0,0,8.76,8.76h68.24a8.76,8.76,0,1,0,0-17.52H129.42A8.76,8.76,0,0,0,120.66,365.05Z"/><path class="cls-1" d="M178,318.7H109.78a7.91,7.91,0,0,0-1.1.08h-6.42a8.76,8.76,0,1,0,0,17.52h60.2a8.77,8.77,0,0,0,1.15-.08H178a8.76,8.76,0,0,0,0-17.52Z"/><path class="cls-1" d="M79.51,336.3a8.76,8.76,0,1,0,0-17.52H76.33a8.76,8.76,0,1,0,0,17.52Z"/><path class="cls-1" d="M236,402.64a8.76,8.76,0,0,0-8.76-8.75H79.93a8.76,8.76,0,0,0,0,17.51H227.21A8.76,8.76,0,0,0,236,402.64Z"/><path class="cls-1" d="M507.13,392.84c-26.94-10.77-40.18-17-51.17-6.73,5.61-11.22,3.36-11.9-1.35-20.2-9.43-16.61-34.35-43.79-43-95.68,0,0,13.86-36.85,15.37-60.52,0,0,5.28-14.84-17.77-7.57,0,0-29,17.67-44.84,22.05-28.61-3.37-70.63-24.06-86.13-56.08,0,0,12.92-27,1.67-33.17-7.82-4.33-31,19.83-31,19.83l-76,88.59-5.85,10.92A13.69,13.69,0,0,0,168.24,269C188.38,295.79,267.72,401.59,313,457.52c-129.4,1-199.29,20.88-149.69,27.78,40.62,5.66,133.26,4,202.61,3.74a180.13,180.13,0,0,0,24.73,5.47l116.64,1.07c15.24-.77,28.87-1.92,39.74-3.13A19.23,19.23,0,0,0,563,480.08C575.34,446.86,555.58,412.22,507.13,392.84Zm-233-64.38L270.18,238l26.51,55.31,28.46-11.42,7.38,87.18-30.08-54.31Z"/></svg>