<svg xmlns="http://www.w3.org/2000/svg" xmlns:xlink="http://www.w3.org/1999/xlink" viewBox="0 0 1200 330"><defs><style>.cls-1{fill:none;clip-rule:evenodd;}.cls-2,.cls-3,.cls-4,.cls-5,.cls-6,.cls-7,.cls-8,.cls-9{fill-rule:evenodd;}.cls-2{fill:url(#未命名的渐变_14);}.cls-3{fill:url(#未命名的渐变_14-2);}.cls-4{fill:url(#未命名的渐变_14-3);}.cls-5{fill:url(#未命名的渐变_14-4);}.cls-6{fill:url(#未命名的渐变_14-5);}.cls-7{fill:url(#未命名的渐变_14-6);}.cls-8{fill:url(#未命名的渐变_14-7);}.cls-9{fill:url(#未命名的渐变_14-8);}.cls-10{clip-path:url(#clip-path);}.cls-11{fill:url(#未命名的渐变_11);}.cls-12{clip-path:url(#clip-path-2);}.cls-13{clip-path:url(#clip-path-3);}.cls-14{clip-path:url(#clip-path-4);}.cls-15{clip-path:url(#clip-path-5);}.cls-16{clip-path:url(#clip-path-6);}</style><linearGradient id="未命名的渐变_14" x1="972.55" y1="256.97" x2="1089.1" y2="256.97" gradientUnits="userSpaceOnUse"><stop offset="0.03" stop-color="#d26734"/><stop offset="0.22" stop-color="#a16051"/><stop offset="0.44" stop-color="#6d5970"/><stop offset="0.63" stop-color="#485487"/><stop offset="0.78" stop-color="#305195"/><stop offset="0.88" stop-color="#28509a"/></linearGradient><linearGradient id="未命名的渐变_14-2" x1="934.39" y1="173.41" x2="973.42" y2="173.41" xlink:href="#未命名的渐变_14"/><linearGradient id="未命名的渐变_14-3" x1="960.44" y1="207.62" x2="999.46" y2="207.62" xlink:href="#未命名的渐变_14"/><linearGradient id="未命名的渐变_14-4" x1="948.07" y1="190.55" x2="983.45" y2="190.55" xlink:href="#未命名的渐变_14"/><linearGradient id="未命名的渐变_14-5" x1="951.5" y1="190.52" x2="990.53" y2="190.52" xlink:href="#未命名的渐变_14"/><linearGradient id="未命名的渐变_14-6" x1="936.27" y1="190.55" x2="945.7" y2="190.55" xlink:href="#未命名的渐变_14"/><linearGradient id="未命名的渐变_14-7" x1="937.92" y1="224.73" x2="1012.91" y2="224.73" xlink:href="#未命名的渐变_14"/><linearGradient id="未命名的渐变_14-8" x1="980.84" y1="184.84" x2="1163.37" y2="184.84" xlink:href="#未命名的渐变_14"/><clipPath id="clip-path"><polygon class="cls-1" points="62.17 140.63 53.8 177.12 78.7 209.54 142.46 209.54 145.25 213.19 143.1 222.42 137.95 226.71 45.64 226.71 36.63 265.35 154.91 265.35 186.25 239.81 194.84 203.31 169.94 170.9 106.18 170.9 103.39 167.25 105.32 158.02 110.69 153.72 198.7 153.72 207.72 115.08 93.73 115.08 62.17 140.63"/></clipPath><linearGradient id="未命名的渐变_11" x1="26" y1="177" x2="928" y2="177" gradientUnits="userSpaceOnUse"><stop offset="0.03" stop-color="#d26734"/><stop offset="0.16" stop-color="#b36346"/><stop offset="0.48" stop-color="#695973"/><stop offset="0.71" stop-color="#3a528f"/><stop offset="0.83" stop-color="#28509a"/></linearGradient><clipPath id="clip-path-2"><polygon class="cls-1" points="376.23 115.1 219.52 115.1 210.5 153.74 265.25 153.74 239.49 265.37 286.71 265.37 312.48 153.74 367.22 153.74 376.23 115.1"/></clipPath><clipPath id="clip-path-3"><polygon class="cls-1" points="415.08 206.34 481.63 206.34 489.58 171.99 423.03 171.99 427.32 153.74 517.48 153.74 526.5 115.1 389.11 115.1 354.33 265.37 493.87 265.37 502.89 226.73 410.58 226.73 415.08 206.34"/></clipPath><clipPath id="clip-path-4"><path class="cls-1" d="M546.89,115.1,512.11,265.37h47.23l8.59-37.57h73.2L674,201.19l12.66-54.75-24-31.34ZM631,182.72l-7.94,6.44H577l8.15-35.42h46.8l4.51,5.8Z"/></clipPath><clipPath id="clip-path-5"><polygon class="cls-1" points="877.79 115.1 854.83 213.85 848.38 213.85 825.42 115.1 758.65 115.1 723.88 265.37 767.88 265.37 790.64 166.62 797.29 166.62 820.26 265.37 887.03 265.37 921.8 115.1 877.79 115.1"/></clipPath><clipPath id="clip-path-6"><polygon class="cls-1" points="734.91 95.9 711.75 107.82 694.93 62.97 693.58 144.95 717.39 132.51 736.34 174.41 734.91 95.9"/></clipPath></defs><g id="图层_1" data-name="图层 1"><path class="cls-2" d="M1078.66,264c-32,0-79,1.07-98.82-1.69-23.18-3.22,11-12.66,72.93-12.66S1078.66,264,1078.66,264Z"/><path class="cls-3" d="M973.42,173.41a4,4,0,0,0-4-4H938.37a4,4,0,0,0-4,4h0a4,4,0,0,0,4,4h31.06a4,4,0,0,0,4-4h0"/><path class="cls-4" d="M999.46,207.62a4,4,0,0,0-4-4H964.42a4,4,0,0,0-4,4h0a4,4,0,0,0,4,4h31.06a4,4,0,0,0,4-4h0"/><path class="cls-5" d="M952.06,186.57a4,4,0,0,0-4,4h0a4,4,0,0,0,4,4h27.4a4,4,0,0,0,4-4h0a4,4,0,0,0-4-4h-27.4Z"/><path class="cls-6" d="M990.53,190.52a4,4,0,0,0-4-4H955.48a4,4,0,0,0-4,4h0a4,4,0,0,0,4,4h31.06a4,4,0,0,0,4-4h0"/><path class="cls-7" d="M940.26,186.57a4,4,0,0,0-4,4h0a4,4,0,0,0,4,4h1.45a4,4,0,0,0,4-4h0a4,4,0,0,0-4-4h-1.45Z"/><path class="cls-8" d="M1012.91,224.73a4,4,0,0,0-4-4h-67a4,4,0,0,0-4,4h0a4,4,0,0,0,4,4h67a4,4,0,0,0,4-4h0"/><path class="cls-9" d="M1136.32,220.27c-12.26-4.9-18.28-7.76-23.29-3.06,2.56-5.11,1.54-5.42-.61-9.2-4.29-7.55-15.63-19.93-19.56-43.54,0,0,6.31-16.77,7-27.54,0,0,2.4-6.76-8.09-3.45,0,0-13.21,8-20.41,10-13-1.53-32.14-10.94-39.2-25.52,0,0,5.88-12.27.76-15.1-3.56-2-14.09,9-14.09,9l-34.58,40.32-2.67,5a6.25,6.25,0,0,0,.51,6.68C992,177,1033,231.71,1052.35,255.05a77.88,77.88,0,0,0,31,11.49l53.09.49c6.93-.35,13.14-.87,18.08-1.42a8.78,8.78,0,0,0,7.26-5.63C1167.37,244.85,1158.37,229.09,1136.32,220.27Zm-93.15-35.54L1030.28,191l-1.8-41.18L1040.55,175l13-5.2,3.36,39.68Z"/><g class="cls-10"><rect class="cls-11" x="26" y="58" width="902" height="238"/></g><g class="cls-12"><rect class="cls-11" x="26" y="58" width="902" height="238"/></g><g class="cls-13"><rect class="cls-11" x="26" y="58" width="902" height="238"/></g><g class="cls-14"><rect class="cls-11" x="26" y="58" width="902" height="238"/></g><g class="cls-15"><rect class="cls-11" x="26" y="58" width="902" height="238"/></g><g class="cls-16"><rect class="cls-11" x="26" y="58" width="902" height="238"/></g></g></svg>