<svg xmlns="http://www.w3.org/2000/svg" viewBox="0 0 1200 330"><defs><style>.cls-1,.cls-2{fill:#231f20;}.cls-1{fill-rule:evenodd;}</style></defs><g id="图层_1" data-name="图层 1"><path class="cls-1" d="M1078.66,264c-32,0-79,1.07-98.82-1.69-23.18-3.22,11-12.66,72.93-12.66S1078.66,264,1078.66,264Z"/><path class="cls-1" d="M973.42,173.41a4,4,0,0,0-4-4H938.37a4,4,0,0,0-4,4h0a4,4,0,0,0,4,4h31.06a4,4,0,0,0,4-4h0"/><path class="cls-1" d="M999.46,207.62a4,4,0,0,0-4-4H964.42a4,4,0,0,0-4,4h0a4,4,0,0,0,4,4h31.06a4,4,0,0,0,4-4h0"/><path class="cls-1" d="M952.06,186.57a4,4,0,0,0-4,4h0a4,4,0,0,0,4,4h27.4a4,4,0,0,0,4-4h0a4,4,0,0,0-4-4h-27.4Z"/><path class="cls-1" d="M990.53,190.52a4,4,0,0,0-4-4H955.48a4,4,0,0,0-4,4h0a4,4,0,0,0,4,4h31.06a4,4,0,0,0,4-4h0"/><path class="cls-1" d="M940.26,186.57a4,4,0,0,0-4,4h0a4,4,0,0,0,4,4h1.45a4,4,0,0,0,4-4h0a4,4,0,0,0-4-4h-1.45Z"/><path class="cls-1" d="M1012.91,224.73a4,4,0,0,0-4-4h-67a4,4,0,0,0-4,4h0a4,4,0,0,0,4,4h67a4,4,0,0,0,4-4h0"/><path class="cls-1" d="M1136.32,220.27c-12.26-4.9-18.28-7.76-23.29-3.06,2.56-5.11,1.54-5.42-.61-9.2-4.29-7.55-15.63-19.93-19.56-43.54,0,0,6.31-16.77,7-27.54,0,0,2.4-6.76-8.09-3.45,0,0-13.21,8-20.41,10-13-1.53-32.14-10.94-39.2-25.52,0,0,5.88-12.27.76-15.1-3.56-2-14.09,9-14.09,9l-34.58,40.32-2.67,5a6.25,6.25,0,0,0,.51,6.68C992,177,1033,231.71,1052.35,255.05a77.88,77.88,0,0,0,31,11.49l53.09.49c6.93-.35,13.14-.87,18.08-1.42a8.78,8.78,0,0,0,7.26-5.63C1167.37,244.85,1158.37,229.09,1136.32,220.27Zm-93.15-35.54L1030.28,191l-1.8-41.18L1040.55,175l13-5.2,3.36,39.68Z"/><path class="cls-2" d="M36.63,265.35l9-38.64H138l5.15-4.29,2.15-9.23-2.79-3.65H78.7L53.8,177.12l8.37-36.49,31.56-25.55h114l-9,38.64h-88l-5.37,4.3-1.93,9.23,2.79,3.65h63.76l24.9,32.41-8.59,36.5-31.34,25.54Z"/><path class="cls-2" d="M239.49,265.37l25.76-111.63H210.5l9-38.64H376.23l-9,38.64H312.48L286.71,265.37Z"/><path class="cls-2" d="M354.33,265.37,389.11,115.1H526.5l-9,38.64H427.32L423,172h66.55l-7.95,34.35H415.09l-4.51,20.39h92.31l-9,38.64Z"/><path class="cls-2" d="M512.11,265.37,546.89,115.1H662.6l24,31.34L674,201.19,641.13,227.8h-73.2l-8.59,37.57ZM577,189.16H623.1l7.94-6.44,5.37-23.18-4.51-5.8H585.1Z"/><path class="cls-2" d="M723.88,265.37,758.65,115.1h66.77l23,98.75h6.44l23-98.75h44L887,265.37H820.26l-23-98.75h-6.65l-22.76,98.75Z"/><polygon class="cls-1" points="694.93 62.97 693.58 144.95 717.39 132.51 736.34 174.41 734.91 95.9 711.75 107.82 694.93 62.97"/></g></svg>