<svg width="64" height="64" viewBox="0 0 64 64" fill="none" xmlns="http://www.w3.org/2000/svg">
<path d="M54.1787 11.0814C50.0996 9.20968 45.7253 7.83071 41.1517 7.04091C41.0684 7.02567 40.9852 7.06376 40.9423 7.13995C40.3798 8.14052 39.7566 9.44585 39.3202 10.4718C34.4011 9.73538 29.5072 9.73538 24.6889 10.4718C24.2524 9.42304 23.6066 8.14052 23.0415 7.13995C22.9986 7.0663 22.9154 7.02821 22.8321 7.04091C18.2611 7.82818 13.8868 9.20716 9.80516 11.0814C9.76982 11.0966 9.73954 11.122 9.71944 11.155C1.42238 23.5506 -0.850534 35.6416 0.26448 47.5826C0.269525 47.6411 0.30232 47.6969 0.347728 47.7325C5.82189 51.7526 11.1246 54.1931 16.3287 55.8108C16.412 55.8362 16.5003 55.8057 16.5533 55.7371C17.7843 54.056 18.8817 52.2834 19.8226 50.4193C19.8781 50.3101 19.8251 50.1806 19.7116 50.1374C17.971 49.4771 16.3136 48.6721 14.7193 47.7579C14.5932 47.6842 14.5831 47.5039 14.6991 47.4175C15.0346 47.1661 15.3702 46.9045 15.6905 46.6404C15.7485 46.5922 15.8293 46.582 15.8974 46.6125C26.3714 51.3945 37.7108 51.3945 48.0612 46.6125C48.1294 46.5795 48.2101 46.5896 48.2706 46.6379C48.5911 46.902 48.9266 47.1661 49.2646 47.4175C49.3806 47.5039 49.373 47.6842 49.2469 47.7579C47.6526 48.6898 45.9952 49.4771 44.252 50.1349C44.1385 50.1781 44.0881 50.3101 44.1436 50.4193C45.1047 52.2808 46.2021 54.0534 47.4104 55.7346C47.4609 55.8057 47.5516 55.8362 47.6349 55.8108C52.8644 54.1931 58.167 51.7526 63.6411 47.7325C63.6891 47.6969 63.7194 47.6436 63.7244 47.5852C65.0589 33.78 61.4893 21.7882 54.2619 11.1575C54.2442 11.122 54.214 11.0966 54.1787 11.0814ZM21.3867 40.3118C18.2333 40.3118 15.635 37.4167 15.635 33.8613C15.635 30.3059 18.1829 27.4108 21.3867 27.4108C24.6157 27.4108 27.1888 30.3313 27.1383 33.8613C27.1383 37.4167 24.5904 40.3118 21.3867 40.3118ZM42.6527 40.3118C39.4994 40.3118 36.901 37.4167 36.901 33.8613C36.901 30.3059 39.4489 27.4108 42.6527 27.4108C45.8817 27.4108 48.4548 30.3313 48.4044 33.8613C48.4044 37.4167 45.8817 40.3118 42.6527 40.3118Z" fill="#0B0D20"/>
</svg>
