<svg width="64" height="64" viewBox="0 0 64 64" fill="none" xmlns="http://www.w3.org/2000/svg">
<path d="M36.0998 31.5407C36.0998 41.5959 28.0185 49.7473 18.0502 49.7473C8.08194 49.7473 0 41.5941 0 31.5407C0 21.4873 8.08133 13.3335 18.0502 13.3335C28.0191 13.3335 36.0998 21.4855 36.0998 31.5407Z" fill="#0B0D20"/>
<path d="M55.9008 31.5406C55.9008 41.0054 51.8602 48.6813 46.8757 48.6813C41.8913 48.6813 37.8506 41.0054 37.8506 31.5406C37.8506 22.0757 41.8906 14.3999 46.8751 14.3999C51.8595 14.3999 55.9002 22.0733 55.9002 31.5406" fill="#0B0D20"/>
<path d="M64 31.5404C64 40.0186 62.5791 46.8957 60.8259 46.8957C59.0726 46.8957 57.6523 40.0204 57.6523 31.5404C57.6523 23.0604 59.0732 16.1851 60.8259 16.1851C62.5785 16.1851 64 23.0598 64 31.5404Z" fill="#0B0D20"/>
</svg>
